<svg xmlns="http://www.w3.org/2000/svg" width="36" height="36" viewBox="0 0 36 36">
  <g id="CallNav" transform="translate(30.925 1.867)">
    <path id="Circle" d="M18,0A18,18,0,1,1,0,18,18,18,0,0,1,18,0Z" transform="translate(-30.925 -1.867)" fill="#edf0f5"/>
    <g id="Icon" transform="translate(-20.215 8.678)">
      <path id="Path_45661" data-name="Path 45661" d="M11.654,54.8a1.074,1.074,0,0,0-1.623,0c-.379.376-.759.752-1.132,1.135a.224.224,0,0,1-.312.057c-.245-.134-.507-.242-.743-.389a11.77,11.77,0,0,1-2.838-2.583,6.723,6.723,0,0,1-1.017-1.629.233.233,0,0,1,.057-.3c.379-.367.749-.743,1.122-1.119a1.078,1.078,0,0,0,0-1.661c-.3-.3-.593-.593-.89-.893s-.609-.615-.918-.918a1.08,1.08,0,0,0-1.623,0c-.383.376-.749.762-1.138,1.132a1.848,1.848,0,0,0-.58,1.247,5.282,5.282,0,0,0,.408,2.273,13.814,13.814,0,0,0,2.452,4.084A15.172,15.172,0,0,0,7.9,59.173a7.267,7.267,0,0,0,2.783.81,2.04,2.04,0,0,0,1.75-.666c.325-.363.692-.7,1.036-1.043a1.085,1.085,0,0,0,.006-1.652Q12.569,55.709,11.654,54.8Z" transform="translate(0 -44.666)" fill="#005d45"/>
      <path id="Path_45662" data-name="Path 45662" d="M241.31,100.534l1.176-.2A5.281,5.281,0,0,0,238.02,96l-.166,1.183a4.081,4.081,0,0,1,3.456,3.351Z" transform="translate(-230.264 -92.939)" fill="#005d45"/>
      <path id="Path_45663" data-name="Path 45663" d="M247.894,2.48A8.675,8.675,0,0,0,242.92,0l-.166,1.183a7.57,7.57,0,0,1,6.405,6.208l1.176-.2A8.738,8.738,0,0,0,247.894,2.48Z" transform="translate(-235.009)" fill="#005d45"/>
    </g>
  </g>
</svg>
