<svg id="Icon" xmlns="http://www.w3.org/2000/svg" width="60.171" height="71.346" viewBox="0 0 60.171 71.346">
  <path id="Path_130093" data-name="Path 130093" d="M56.733,9.455H50.716V3.438A3.448,3.448,0,0,0,47.278,0H3.438A3.448,3.448,0,0,0,0,3.438V58.452A3.448,3.448,0,0,0,3.438,61.89H9.456v6.017a3.448,3.448,0,0,0,3.438,3.438H42.119a10.032,10.032,0,0,0,5.941-2.356l9.605-9.041a9.129,9.129,0,0,0,2.5-5.794l0-41.26a3.449,3.449,0,0,0-3.439-3.439M9.455,12.894V59.312H3.438a.871.871,0,0,1-.859-.859V3.438a.871.871,0,0,1,.859-.859h43.84a.872.872,0,0,1,.859.859V9.456H12.894a3.448,3.448,0,0,0-3.438,3.438M55.9,58.071l-9.605,9.04a4.562,4.562,0,0,1-.736.539V59.741a2.155,2.155,0,0,1,2.149-2.149h8.6a3.61,3.61,0,0,1-.408.479m1.692-3.917a4.01,4.01,0,0,1-.117.859H47.706a4.737,4.737,0,0,0-4.728,4.728v8.922a4.5,4.5,0,0,1-.859.1H12.894a.87.87,0,0,1-.859-.859V12.894a.871.871,0,0,1,.859-.859H56.733a.871.871,0,0,1,.859.859Z" fill="#005d45"/>
  <path id="Path_130094" data-name="Path 130094" d="M177.355,154.216H152.427a1.289,1.289,0,1,0,0,2.579h24.928a1.289,1.289,0,1,0,0-2.579" transform="translate(-130.077 -132.726)" fill="#46c752"/>
  <path id="Path_130095" data-name="Path 130095" d="M177.355,277.59H152.427a1.289,1.289,0,1,0,0,2.579h24.928a1.289,1.289,0,1,0,0-2.579" transform="translate(-130.077 -238.909)" fill="#46c752"/>
  <path id="Path_130096" data-name="Path 130096" d="M166.182,339.277H152.428a1.289,1.289,0,1,0,0,2.579h13.753a1.289,1.289,0,0,0,0-2.579" transform="translate(-130.078 -292)" fill="#46c752"/>
  <path id="Path_130097" data-name="Path 130097" d="M177.355,215.9H152.427a1.289,1.289,0,1,0,0,2.579h24.928a1.289,1.289,0,1,0,0-2.579" transform="translate(-130.077 -185.817)" fill="#46c752"/>
</svg>
