<svg xmlns="http://www.w3.org/2000/svg" width="65.712" height="72.538" viewBox="0 0 65.712 72.538">
  <g id="doc-Icon" transform="translate(1 1)">
    <path id="Path_130074" data-name="Path 130074" d="M106.193,78.263h0a2.275,2.275,0,0,0,2.275,2.275H160.8a2.275,2.275,0,0,0,2.275-2.275V22.32a2.276,2.276,0,0,0-.666-1.609L152.368,10.667A2.275,2.275,0,0,0,150.759,10h-42.29a2.275,2.275,0,0,0-2.275,2.275V48.683" transform="translate(-99.367 -10)" fill="none" stroke="#005d45" stroke-linecap="round" stroke-linejoin="round" stroke-width="2"/>
    <path id="Path_130075" data-name="Path 130075" d="M523.032,10V21.377a1.138,1.138,0,0,0,1.138,1.138h11.377" transform="translate(-471.835 -10)" fill="none" stroke="#005d45" stroke-linecap="round" stroke-linejoin="round" stroke-width="2"/>
    <path id="Path_130076" data-name="Path 130076" d="M319.091,469.905h-3.662v9.035" transform="translate(-286.331 -420.95)" fill="none" stroke="#46c752" stroke-linecap="round" stroke-linejoin="round" stroke-width="2"/>
    <line id="Line_2" data-name="Line 2" x2="3.371" transform="translate(29.098 53.387)" fill="none" stroke="#46c752" stroke-linecap="round" stroke-linejoin="round" stroke-width="2"/>
    <line id="Line_3" data-name="Line 3" y2="8.68" transform="translate(18.642 49.065)" fill="none" stroke="#46c752" stroke-linecap="round" stroke-linejoin="round" stroke-width="2"/>
    <path id="Path_130077" data-name="Path 130077" d="M223.265,475.273c0,2.434-1.351,4.359-3.494,4.4-.713.013-2.557.019-2.557.019s-.012-3.2-.012-4.426c0-1.008-.006-4.406-.006-4.406h2.5C222.049,470.857,223.265,472.84,223.265,475.273Z" transform="translate(-198.555 -421.801)" fill="none" stroke="#46c752" stroke-linecap="round" stroke-linejoin="round" stroke-width="2"/>
    <line id="Line_4" data-name="Line 4" y2="9.102" transform="translate(9.069 48.922)" fill="none" stroke="#46c752" stroke-linecap="round" stroke-linejoin="round" stroke-width="2"/>
    <path id="Path_130078" data-name="Path 130078" d="M132.412,472.16a2.612,2.612,0,0,1-2.619,2.568c-.7,0-2.517.011-2.517.011s-.011-1.865-.011-2.58c0-.587-.006-2.568-.006-2.568h2.534A2.612,2.612,0,0,1,132.412,472.16Z" transform="translate(-118.19 -420.67)" fill="none" stroke="#46c752" stroke-linecap="round" stroke-linejoin="round" stroke-width="2"/>
    <path id="Path_130079" data-name="Path 130079" d="M251.574,144.444c-3.766-5.814,27.613-11.19,25.854-5.822-2.7,8.248-23.147-19.54-14.278-19.061C268.278,119.838,255.525,150.543,251.574,144.444Z" transform="translate(-228.992 -107.893)" fill="none" stroke="#46c752" stroke-linecap="round" stroke-linejoin="round" stroke-width="2"/>
    <path id="Path_130080" data-name="Path 130080" d="M42.064,355.435v20.479a3.413,3.413,0,0,0,3.413,3.413H80.746a2.276,2.276,0,0,0,2.276-2.275V361.124a2.276,2.276,0,0,0-2.276-2.275H45.477a3.413,3.413,0,0,1,0-6.826H48.89" transform="translate(-42.064 -315.615)" fill="none" stroke="#005d45" stroke-linecap="round" stroke-linejoin="round" stroke-width="2"/>
  </g>
</svg>
