<svg xmlns="http://www.w3.org/2000/svg" xmlns:xlink="http://www.w3.org/1999/xlink" width="82.767" height="82.767" viewBox="0 0 82.767 82.767">
  <defs>
    <clipPath id="clip-path">
      <rect id="Mask" width="82.767" height="82.767" transform="translate(1579 1119)" fill="none" stroke="#707070" stroke-width="1"/>
    </clipPath>
  </defs>
  <g id="EMIcon1" transform="translate(-1579 -1119)" clip-path="url(#clip-path)">
    <g id="Group_125733" data-name="Group 125733" transform="translate(1581.158 1120.003)">
      <g id="Group_125731" data-name="Group 125731" transform="translate(17.209 0.567)">
        <path id="Path_129847" data-name="Path 129847" d="M0-180.984a12.106,12.106,0,0,1,4.325-8.467A134.587,134.587,0,0,1,28.218-205.7" transform="translate(28.301 228.138)" fill="none" stroke="#4789c8" stroke-linecap="round" stroke-linejoin="round" stroke-miterlimit="10" stroke-width="2.5"/>
        <path id="Path_129848" data-name="Path 129848" d="M-205.741-180.734a12.224,12.224,0,0,0-4.322-8.466,134.727,134.727,0,0,0-23.776-16.217" transform="translate(234.01 227.887)" fill="none" stroke="#4789c8" stroke-linecap="round" stroke-linejoin="round" stroke-miterlimit="10" stroke-width="2.5"/>
        <path id="Path_129849" data-name="Path 129849" d="M0-345.261v-47.152" transform="translate(28.287 392.414)" fill="none" stroke="#4789c8" stroke-linecap="round" stroke-linejoin="round" stroke-miterlimit="10" stroke-width="2.5"/>
        <path id="Path_129850" data-name="Path 129850" d="M-137.409-84.113a21.267,21.267,0,0,0,5.42-10.525.892.892,0,0,0-.972-.962c-4.547.087-21.382,1.4-23.209,16.027a.886.886,0,0,0,.861.911c5.736.53,10.082-.429,13.372-2.12" transform="translate(188.695 117.703)" fill="none" stroke="#4789c8" stroke-linecap="round" stroke-linejoin="round" stroke-miterlimit="10" stroke-width="2.5"/>
        <path id="Path_129851" data-name="Path 129851" d="M-7.209,0C-2.661.085,14.173,1.4,16,16.025a.886.886,0,0,1-.861.911C-3.418,18.65-7.43,4.783-8.18.96A.892.892,0,0,1-7.209,0Z" transform="translate(8.193 22.104)" fill="none" stroke="#4789c8" stroke-linecap="round" stroke-linejoin="round" stroke-miterlimit="10" stroke-width="2.5"/>
        <path id="Path_129852" data-name="Path 129852" d="M-47.731-2.216a.641.641,0,0,0-.544-.3.641.641,0,0,0-.544.3C-51.2,1.53-60.04,17.242-48.3,27.409h.039C-36.512,17.242-45.354,1.53-47.731-2.216Z" transform="translate(76.564 2.52)" fill="none" stroke="#4789c8" stroke-linecap="round" stroke-linejoin="round" stroke-miterlimit="10" stroke-width="2.5"/>
      </g>
      <g id="Group_125732" data-name="Group 125732" transform="translate(2.07 47.72)">
        <path id="Path_129853" data-name="Path 129853" d="M0-6.368l13.315-.87M0-6.368l13.315-.87" transform="translate(39.529 23.598)" fill="none" stroke="#4789c8" stroke-linecap="round" stroke-linejoin="round" stroke-miterlimit="10" stroke-width="2.5"/>
        <path id="Path_129854" data-name="Path 129854" d="M-88.794-73.428l5.07,8.782a2.243,2.243,0,0,1-.821,3.064l-2.8,1.616a2.243,2.243,0,0,1-3.064-.821L-100.62-78.475a2.243,2.243,0,0,1,.821-3.064l2.8-1.616a2.243,2.243,0,0,1,3.064.821l2.327,4.031" transform="translate(100.921 92.139)" fill="none" stroke="#4789c8" stroke-linecap="round" stroke-linejoin="round" stroke-miterlimit="10" stroke-width="2.5"/>
        <path id="Path_129855" data-name="Path 129855" d="M-70.338-173.576l2.837-2.517a3.525,3.525,0,0,1,3.418-.719l9.745,3.132a7.179,7.179,0,0,0,3.363.463l19.4-1.991a7.285,7.285,0,0,0,3.388-1.253l13.392-9.213a3.132,3.132,0,0,0,.466-3.95,2.77,2.77,0,0,0-3.96-.806l-8.644,4.543a16.976,16.976,0,0,1-7.313,1.95l.112-1.844a4.751,4.751,0,0,0-3.939-4.328l-9.661-1.172c-2.229-.332-3.342-1.12-5.285-2.318a38.438,38.438,0,0,0-7.33-3.162,12.949,12.949,0,0,0-10.026,1.18l-9.57,5.366" transform="translate(87.089 200.297)" fill="none" stroke="#4789c8" stroke-linecap="round" stroke-linejoin="round" stroke-miterlimit="10" stroke-width="2.5"/>
        <path id="Path_129856" data-name="Path 129856" d="M-282.378-78.926l-5.66-4.513a28.953,28.953,0,0,0-32.9-2.129" transform="translate(349.446 89.705)" fill="none" stroke="#4789c8" stroke-linecap="round" stroke-linejoin="round" stroke-miterlimit="10" stroke-width="2.5"/>
      </g>
    </g>
  </g>
</svg>
