<svg xmlns="http://www.w3.org/2000/svg" width="36" height="36" viewBox="0 0 36 36">
  <g id="EyeNav" transform="translate(36.925 1.867)">
    <path id="Circle" d="M18,0A18,18,0,1,1,0,18,18,18,0,0,1,18,0Z" transform="translate(-36.925 -1.867)" fill="#edf0f5"/>
    <g id="Icon" transform="translate(-26.758 9.058)">
      <path id="Path_45562" data-name="Path 45562" d="M36.787,30.281a2.249,2.249,0,0,0,0-1.711,8.625,8.625,0,0,0-8.022-5.288,8.794,8.794,0,0,0-4.148,1.03l-2.2-2.2a.683.683,0,0,0-.965.965l8.687,8.687,2.767,2.767,2.2,2.2a.682.682,0,1,0,.966-.965l-1.988-1.988A8.462,8.462,0,0,0,36.787,30.281Zm-9.4-3.2a2.68,2.68,0,0,1,1.382-.383,2.733,2.733,0,0,1,2.73,2.731,2.681,2.681,0,0,1-.383,1.382Z" transform="translate(-20.575 -21.917)" fill="#005d45"/>
      <path id="Path_45563" data-name="Path 45563" d="M8.19,147.621a2.733,2.733,0,0,1-2.731-2.73,2.648,2.648,0,0,1,.029-.288l-3.4-3.4a8.476,8.476,0,0,0-1.924,2.83,2.249,2.249,0,0,0,0,1.711,8.623,8.623,0,0,0,8.021,5.288,8.854,8.854,0,0,0,3.154-.577l-2.866-2.866A2.648,2.648,0,0,1,8.19,147.621Z" transform="translate(0.001 -137.382)" fill="#005d45"/>
    </g>
  </g>
</svg>
