<svg xmlns="http://www.w3.org/2000/svg" width="36" height="36" viewBox="0 0 36 36">
  <g id="FAQ" transform="translate(21.925 1.867)">
    <path id="Circle" d="M18,0A18,18,0,1,1,0,18,18,18,0,0,1,18,0Z" transform="translate(-21.925 -1.867)" fill="#edf0f5"/>
    <path id="Icon" d="M7.313,0A6.055,6.055,0,0,0,1.935,2.845.751.751,0,0,0,2.1,3.872L3.445,4.894a.75.75,0,0,0,1.039-.13A3.032,3.032,0,0,1,7.07,3.219c.961,0,2.15.619,2.15,1.551,0,.7-.582,1.067-1.531,1.6C6.582,6.99,5.118,7.762,5.118,9.694V10a.75.75,0,0,0,.75.75H8.132a.75.75,0,0,0,.75-.75V9.82c0-1.339,3.915-1.4,3.915-5.02C12.8,2.07,9.966,0,7.313,0ZM7,11.671a2.165,2.165,0,1,0,2.165,2.165A2.167,2.167,0,0,0,7,11.671Z" transform="translate(-10.725 8.133)" fill="#005d45"/>
  </g>
</svg>
