<svg xmlns="http://www.w3.org/2000/svg" width="22.745" height="22.745" viewBox="0 0 22.745 22.745">
  <path id="Icon-plus" d="M21.12,11.185H13.809V3.875A1.625,1.625,0,0,0,12.185,2.25H10.56A1.625,1.625,0,0,0,8.935,3.875v7.311H1.625A1.625,1.625,0,0,0,0,12.81v1.625a1.625,1.625,0,0,0,1.625,1.625H8.935V23.37a1.625,1.625,0,0,0,1.625,1.625h1.625a1.625,1.625,0,0,0,1.625-1.625V16.059H21.12a1.625,1.625,0,0,0,1.625-1.625V12.81A1.625,1.625,0,0,0,21.12,11.185Z" transform="translate(-2.25 22.745) rotate(-90)" fill="#007066"/>
</svg>
