<svg xmlns="http://www.w3.org/2000/svg" width="31.439" height="33" viewBox="0 0 31.439 33">
  <g id="N2030" transform="translate(-127.547 -99.824)">
    <path id="Path_45669" data-name="Path 45669" d="M206.693,280.277q-.6.272-1.209.5.3.628.635,1.235.636-.307,1.256-.654Q207.017,280.831,206.693,280.277Z" transform="translate(-66.568 -154.131)" fill="#005d45" fill-rule="evenodd"/>
    <path id="Path_45670" data-name="Path 45670" d="M229.109,131.219q.445-.434.925-.839-.444-.512-.925-.993-.482.48-.925.993Q228.664,130.785,229.109,131.219Z" transform="translate(-85.957 -25.251)" fill="#005d45" fill-rule="evenodd"/>
    <path id="Path_45671" data-name="Path 45671" d="M227.271,102.45q.61-.621,1.274-1.191-.609-.747-1.274-1.435-.665.689-1.275,1.435Q226.659,101.829,227.271,102.45Z" transform="translate(-84.088 0)" fill="#005d45" fill-rule="evenodd"/>
    <path id="Path_45672" data-name="Path 45672" d="M241.266,119.038q.593-.443,1.229-.843-.42-.67-.88-1.308c-.436.326-.859.667-1.263,1.025Q240.829,118.459,241.266,119.038Z" transform="translate(-96.35 -14.574)" fill="#005d45" fill-rule="evenodd"/>
    <path id="Path_45673" data-name="Path 45673" d="M260.973,151.291c-.144-.328-.3-.65-.457-.968q.561-.206,1.136-.374.221.537.417,1.087Q261.515,151.145,260.973,151.291Z" transform="translate(-113.573 -42.813)" fill="#005d45" fill-rule="evenodd"/>
    <path id="Path_45674" data-name="Path 45674" d="M249.583,155.734c-.166-.267-.339-.529-.521-.786.3-.148.609-.288.919-.418q.256.436.487.887Q250.02,155.563,249.583,155.734Z" transform="translate(-103.79 -46.727)" fill="#005d45" fill-rule="evenodd"/>
    <path id="Path_45675" data-name="Path 45675" d="M252.758,135.43q-.328-.568-.692-1.112.609-.338,1.233-.638.34.619.643,1.261Q253.343,135.166,252.758,135.43Z" transform="translate(-106.356 -28.917)" fill="#005d45" fill-rule="evenodd"/>
    <path id="Path_45676" data-name="Path 45676" d="M240.315,142.864q-.367-.452-.768-.881.493-.335,1-.643.383.491.729,1.008Q240.789,142.592,240.315,142.864Z" transform="translate(-95.663 -35.46)" fill="#005d45" fill-rule="evenodd"/>
    <path id="Path_45677" data-name="Path 45677" d="M215.535,119.237q.435-.578.91-1.125-.6-.537-1.258-1.026-.458.636-.876,1.305Q214.945,118.792,215.535,119.237Z" transform="translate(-74.109 -14.744)" fill="#005d45" fill-rule="evenodd"/>
    <path id="Path_45678" data-name="Path 45678" d="M229.109,283.93q.445.434.925.839-.444.512-.925.993-.482-.48-.925-.993Q228.664,284.364,229.109,283.93Z" transform="translate(-85.957 -157.251)" fill="#005d45" fill-rule="evenodd"/>
    <path id="Path_45679" data-name="Path 45679" d="M227.271,308.051q.61.621,1.274,1.191-.609.747-1.274,1.435-.665-.689-1.275-1.435Q226.659,308.672,227.271,308.051Z" transform="translate(-84.088 -177.853)" fill="#005d45" fill-rule="evenodd"/>
    <path id="Path_45680" data-name="Path 45680" d="M241.266,294.246q.593.443,1.229.843-.42.67-.88,1.308c-.436-.326-.859-.667-1.263-1.025Q240.829,294.825,241.266,294.246Z" transform="translate(-96.35 -166.062)" fill="#005d45" fill-rule="evenodd"/>
    <path id="Path_45681" data-name="Path 45681" d="M215.535,294.047q.435.578.91,1.125-.6.537-1.258,1.026-.458-.636-.876-1.305Q214.945,294.492,215.535,294.047Z" transform="translate(-74.109 -165.892)" fill="#005d45" fill-rule="evenodd"/>
    <path id="Path_45682" data-name="Path 45682" d="M274.275,146q.614-.1,1.24-.147-.064-.674-.178-1.346-.671.112-1.329.272Q274.164,145.389,274.275,146Z" transform="translate(-125.097 -38.166)" fill="#005d45" fill-rule="evenodd"/>
    <path id="Path_45683" data-name="Path 45683" d="M287.967,122.69q.857-.152,1.729-.231-.062-.961-.205-1.908-.941.175-1.87.429Q287.829,121.829,287.967,122.69Z" transform="translate(-136.724 -17.704)" fill="#005d45" fill-rule="evenodd"/>
    <path id="Path_45684" data-name="Path 45684" d="M291.13,144.28q.74-.017,1.49.026.048-.789.042-1.576-.816.018-1.623.1Q291.111,143.554,291.13,144.28Z" transform="translate(-139.644 -36.647)" fill="#005d45" fill-rule="evenodd"/>
    <path id="Path_45685" data-name="Path 45685" d="M291.82,163.049c.042-.435.068-.871.082-1.307q.691.078,1.374.2-.082.7-.207,1.4Q292.45,163.174,291.82,163.049Z" transform="translate(-140.311 -52.886)" fill="#005d45" fill-rule="evenodd"/>
    <path id="Path_45686" data-name="Path 45686" d="M277.829,161.912c-.023-.387-.062-.774-.114-1.162q.6.014,1.188.056.026.622.009,1.243Q278.374,161.966,277.829,161.912Z" transform="translate(-128.263 -52.039)" fill="#005d45" fill-rule="evenodd"/>
    <path id="Path_45687" data-name="Path 45687" d="M265.119,162.6q-.127-.452-.283-.9c.332-.058.664-.108,1-.146q.126.491.221.987Q265.587,162.561,265.119,162.6Z" transform="translate(-117.263 -52.73)" fill="#005d45" fill-rule="evenodd"/>
    <path id="Path_45688" data-name="Path 45688" d="M269.108,128.2q.69-.219,1.393-.389-.18-.788-.428-1.565-.743.252-1.471.556Q268.885,127.495,269.108,128.2Z" transform="translate(-120.479 -22.568)" fill="#005d45" fill-rule="evenodd"/>
    <path id="Path_45689" data-name="Path 45689" d="M186.194,270.383q.111.612.267,1.221-.658.159-1.33.272-.114-.671-.178-1.346Q185.579,270.479,186.194,270.383Z" transform="translate(-49.032 -145.68)" fill="#005d45" fill-rule="evenodd"/>
    <path id="Path_45690" data-name="Path 45690" d="M185.474,256.356q.036.58.114,1.162-.6-.014-1.188-.056-.026-.622-.009-1.243Q184.931,256.3,185.474,256.356Z" transform="translate(-48.547 -133.582)" fill="#005d45" fill-rule="evenodd"/>
    <path id="Path_45691" data-name="Path 45691" d="M169.51,290.148q.136.861.346,1.71c-.619.17-1.243.312-1.87.43q-.143-.947-.206-1.908Q168.651,290.3,169.51,290.148Z" transform="translate(-34.365 -162.562)" fill="#005d45" fill-rule="evenodd"/>
    <path id="Path_45692" data-name="Path 45692" d="M189.14,285.8q.226.7.511,1.4-.73.3-1.475.554-.25-.777-.434-1.567Q188.448,286.02,189.14,285.8Z" transform="translate(-51.414 -158.849)" fill="#005d45" fill-rule="evenodd"/>
    <path id="Path_45693" data-name="Path 45693" d="M221.692,273.266c-.307.183-.619.357-.934.524q.338.492.709.964.491-.309.97-.643Q222.048,273.7,221.692,273.266Z" transform="translate(-79.614 -148.142)" fill="#005d45" fill-rule="evenodd"/>
    <path id="Path_45694" data-name="Path 45694" d="M215.138,263.922q-.433.182-.88.338.241.444.506.874.463-.207.912-.44C215.488,264.441,215.31,264.184,215.138,263.922Z" transform="translate(-74.063 -140.161)" fill="#005d45" fill-rule="evenodd"/>
    <path id="Path_45695" data-name="Path 45695" d="M200.893,268.336q-.56.156-1.135.272.207.559.441,1.1.6-.179,1.178-.4Q201.123,268.832,200.893,268.336Z" transform="translate(-61.678 -143.931)" fill="#005d45" fill-rule="evenodd"/>
    <path id="Path_45696" data-name="Path 45696" d="M198.2,257.25c-.313.018-.628.027-.942.027q.079.5.188.993.5-.042,1.006-.113Q198.315,257.706,198.2,257.25Z" transform="translate(-59.546 -134.462)" fill="#005d45" fill-rule="evenodd"/>
    <path id="Path_45697" data-name="Path 45697" d="M168.993,271.638c.011.482.042.963.088,1.444q-.8.086-1.619.107-.005-.784.044-1.572Q168.254,271.658,168.993,271.638Z" transform="translate(-34.092 -146.734)" fill="#005d45" fill-rule="evenodd"/>
    <path id="Path_45698" data-name="Path 45698" d="M302.312,183.159q.552.285,1.089.613.344-.584.649-1.193-.608-.305-1.235-.564Q302.583,182.6,302.312,183.159Z" transform="translate(-149.272 -70.203)" fill="#005d45" fill-rule="evenodd"/>
    <path id="Path_45699" data-name="Path 45699" d="M277.234,175q.457.109.91.246c.044-.333.08-.669.105-1-.33-.071-.663-.131-1-.182Q277.259,174.531,277.234,175Z" transform="translate(-127.852 -63.406)" fill="#005d45" fill-rule="evenodd"/>
    <path id="Path_45700" data-name="Path 45700" d="M290.137,178.15q.544.2,1.078.449.162-.573.294-1.152-.587-.207-1.186-.373Q290.244,177.613,290.137,178.15Z" transform="translate(-138.873 -65.982)" fill="#005d45" fill-rule="evenodd"/>
    <path id="Path_45701" data-name="Path 45701" d="M325.258,173.133q.783.382,1.533.831.516-.814.958-1.663-.863-.413-1.764-.754Q325.654,172.355,325.258,173.133Z" transform="translate(-168.871 -61.261)" fill="#005d45" fill-rule="evenodd"/>
    <path id="Path_45702" data-name="Path 45702" d="M315.926,190.9q.608.422,1.189.9.5-.609.961-1.248-.669-.467-1.371-.873Q316.336,190.3,315.926,190.9Z" transform="translate(-160.9 -76.742)" fill="#005d45" fill-rule="evenodd"/>
    <path id="Path_45703" data-name="Path 45703" d="M308.164,167.073q.686.229,1.355.507.318-.743.575-1.517-.748-.233-1.516-.418Q308.4,166.372,308.164,167.073Z" transform="translate(-154.271 -56.22)" fill="#005d45" fill-rule="evenodd"/>
    <path id="Path_45704" data-name="Path 45704" d="M157.449,231.21q-.27.559-.5,1.144-.627-.259-1.235-.563.3-.61.65-1.192Q156.9,230.924,157.449,231.21Z" transform="translate(-24.056 -111.698)" fill="#005d45" fill-rule="evenodd"/>
    <path id="Path_45705" data-name="Path 45705" d="M174.647,207.924q-.3.362-.581.743-.353-.36-.687-.74.333-.382.688-.743Q174.345,207.564,174.647,207.924Z" transform="translate(-39.147 -91.7)" fill="#005d45" fill-rule="evenodd"/>
    <path id="Path_45706" data-name="Path 45706" d="M165.223,218.772q-.313.491-.593,1.007-.474-.362-.927-.745.346-.518.725-1.01Q164.815,218.408,165.223,218.772Z" transform="translate(-30.882 -100.957)" fill="#005d45" fill-rule="evenodd"/>
    <path id="Path_45707" data-name="Path 45707" d="M130.226,237.753q-.4.776-.728,1.586-.9-.34-1.764-.754.443-.849.958-1.663Q129.442,237.37,130.226,237.753Z" transform="translate(-0.16 -117.1)" fill="#005d45" fill-rule="evenodd"/>
    <path id="Path_45708" data-name="Path 45708" d="M150.371,246.538q-.233.7-.411,1.432-.768-.185-1.519-.421.256-.775.572-1.521Q149.683,246.306,150.371,246.538Z" transform="translate(-17.846 -124.877)" fill="#005d45" fill-rule="evenodd"/>
    <path id="Path_45709" data-name="Path 45709" d="M187.175,243.937q-.458-.109-.91-.246c-.044.333-.08.668-.1,1,.33.071.662.131,1,.182C187.152,244.562,187.159,244.249,187.175,243.937Z" transform="translate(-50.063 -122.881)" fill="#005d45" fill-rule="evenodd"/>
    <path id="Path_45710" data-name="Path 45710" d="M169.5,252.965q-.642-.132-1.274-.3-.128.685-.214,1.372c.463.084.93.154,1.4.211Q169.439,253.6,169.5,252.965Z" transform="translate(-34.566 -130.542)" fill="#005d45" fill-rule="evenodd"/>
    <path id="Path_45711" data-name="Path 45711" d="M172.184,238.8q-.545-.2-1.079-.449-.161.573-.293,1.152.587.207,1.186.373Q172.076,239.337,172.184,238.8Z" transform="translate(-36.954 -118.321)" fill="#005d45" fill-rule="evenodd"/>
    <path id="Path_45712" data-name="Path 45712" d="M176.573,227.1q-.4-.254-.777-.533-.229.45-.432.913.433.264.879.5C176.342,227.679,176.454,227.386,176.573,227.1Z" transform="translate(-40.841 -108.252)" fill="#005d45" fill-rule="evenodd"/>
    <path id="Path_45713" data-name="Path 45713" d="M141.7,221.545q-.411.6-.779,1.219-.7-.4-1.371-.868.457-.636.961-1.244Q141.092,221.125,141.7,221.545Z" transform="translate(-10.253 -103.203)" fill="#005d45" fill-rule="evenodd"/>
    <path id="Path_45714" data-name="Path 45714" d="M303,230.231q.279.556.519,1.137.623-.267,1.228-.58-.312-.6-.666-1.183Q303.553,229.939,303,230.231Z" transform="translate(-149.863 -110.85)" fill="#005d45" fill-rule="evenodd"/>
    <path id="Path_45715" data-name="Path 45715" d="M295.074,196.5q.4.355.783.73.366-.473.7-.969-.444-.373-.908-.728Q295.378,196.031,295.074,196.5Z" transform="translate(-143.09 -81.75)" fill="#005d45" fill-rule="evenodd"/>
    <path id="Path_45716" data-name="Path 45716" d="M288.27,207.178q.305.357.59.735.349-.364.676-.749-.337-.377-.7-.734Q288.566,206.814,288.27,207.178Z" transform="translate(-137.279 -91.056)" fill="#005d45" fill-rule="evenodd"/>
    <path id="Path_45717" data-name="Path 45717" d="M305.836,207.035q.44.486.849,1,.507-.478.982-.982-.486-.511-1.006-1Q306.265,206.558,305.836,207.035Z" transform="translate(-152.282 -90.735)" fill="#005d45" fill-rule="evenodd"/>
    <path id="Path_45718" data-name="Path 45718" d="M296.363,217.907q.319.486.606,1,.469-.367.917-.757c-.235-.342-.482-.676-.738-1Q296.766,217.537,296.363,217.907Z" transform="translate(-144.191 -100.21)" fill="#005d45" fill-rule="evenodd"/>
    <path id="Path_45719" data-name="Path 45719" d="M325.922,236.438q.407.771.748,1.576.9-.353,1.754-.778-.455-.843-.979-1.65Q326.7,236.044,325.922,236.438Z" transform="translate(-169.438 -115.959)" fill="#005d45" fill-rule="evenodd"/>
    <path id="Path_45720" data-name="Path 45720" d="M286.223,190.853q.406.234.8.494c.138-.306.268-.618.387-.932-.3-.162-.6-.314-.9-.458C286.424,190.26,286.327,190.558,286.223,190.853Z" transform="translate(-135.53 -76.985)" fill="#005d45" fill-rule="evenodd"/>
    <path id="Path_45721" data-name="Path 45721" d="M309.156,245.458q.242.7.43,1.427.767-.195,1.513-.441-.266-.772-.593-1.514Q309.841,245.218,309.156,245.458Z" transform="translate(-155.118 -123.94)" fill="#005d45" fill-rule="evenodd"/>
    <path id="Path_45722" data-name="Path 45722" d="M316.238,220.386q.419.59.8,1.208.695-.413,1.36-.885-.467-.63-.978-1.231Q316.841,219.958,316.238,220.386Z" transform="translate(-161.167 -102.199)" fill="#005d45" fill-rule="evenodd"/>
    <path id="Path_45723" data-name="Path 45723" d="M157.519,184.089q-.549.292-1.081.627-.352-.578-.664-1.184.6-.312,1.227-.579Q157.241,183.533,157.519,184.089Z" transform="translate(-24.109 -71.003)" fill="#005d45" fill-rule="evenodd"/>
    <path id="Path_45724" data-name="Path 45724" d="M130.049,174.381q-.778.392-1.522.851-.527-.806-.98-1.649.858-.424,1.754-.778Q129.642,173.609,130.049,174.381Z" transform="translate(0 -62.335)" fill="#005d45" fill-rule="evenodd"/>
    <path id="Path_45725" data-name="Path 45725" d="M141.62,192.022q-.6.431-1.177.914-.511-.6-.978-1.235.663-.476,1.36-.892Q141.2,191.43,141.62,192.022Z" transform="translate(-10.18 -77.713)" fill="#005d45" fill-rule="evenodd"/>
    <path id="Path_45726" data-name="Path 45726" d="M153.8,207.263q-.441-.485-.849-1-.507.478-.982.981.486.512,1.006,1Q153.367,207.74,153.8,207.263Z" transform="translate(-20.856 -90.915)" fill="#005d45" fill-rule="evenodd"/>
    <path id="Path_45727" data-name="Path 45727" d="M165.077,197.679q-.32-.486-.606-1-.469.368-.917.757.352.514.738,1Q164.674,198.048,165.077,197.679Z" transform="translate(-30.756 -82.728)" fill="#005d45" fill-rule="evenodd"/>
    <path id="Path_45728" data-name="Path 45728" d="M150.315,168.071q-.683.238-1.349.524-.326-.739-.6-1.509.746-.244,1.511-.438Q150.071,167.373,150.315,168.071Z" transform="translate(-17.786 -57.076)" fill="#005d45" fill-rule="evenodd"/>
    <path id="Path_45729" data-name="Path 45729" d="M276.181,269.766q-.1.613-.251,1.224.661.151,1.333.255.105-.672.16-1.348C277.006,269.867,276.591,269.824,276.181,269.766Z" transform="translate(-126.739 -145.153)" fill="#005d45" fill-rule="evenodd"/>
    <path id="Path_45730" data-name="Path 45730" d="M289.945,236.871c.078.349.144.7.2,1.051.382-.11.762-.233,1.138-.369q-.139-.563-.3-1.122Q290.468,236.669,289.945,236.871Z" transform="translate(-138.709 -116.679)" fill="#005d45" fill-rule="evenodd"/>
    <path id="Path_45731" data-name="Path 45731" d="M278.914,241.459q.036.469.043.942.5-.089.989-.206c-.034-.336-.078-.671-.13-1Q279.368,241.34,278.914,241.459Z" transform="translate(-129.287 -120.746)" fill="#005d45" fill-rule="evenodd"/>
    <path id="Path_45732" data-name="Path 45732" d="M292.383,252.576c.047.434.08.87.1,1.306q.69-.087,1.371-.214-.092-.7-.226-1.4C293.217,252.386,292.8,252.486,292.383,252.576Z" transform="translate(-140.792 -130.209)" fill="#005d45" fill-rule="evenodd"/>
    <path id="Path_45733" data-name="Path 45733" d="M278.509,255.635q-.03.581-.1,1.164.6-.021,1.187-.072.018-.622-.007-1.243Q279.052,255.575,278.509,255.635Z" transform="translate(-128.857 -132.954)" fill="#005d45" fill-rule="evenodd"/>
    <path id="Path_45734" data-name="Path 45734" d="M289.829,289.352q-.126.862-.325,1.714.932.244,1.876.405.129-.948.181-1.91Q290.689,289.493,289.829,289.352Z" transform="translate(-138.333 -161.882)" fill="#005d45" fill-rule="evenodd"/>
    <path id="Path_45735" data-name="Path 45735" d="M286.367,226.085q.191.43.357.873.438-.25.862-.525-.216-.457-.459-.9C286.878,225.725,286.625,225.909,286.367,226.085Z" transform="translate(-135.653 -107.37)" fill="#005d45" fill-rule="evenodd"/>
    <path id="Path_45736" data-name="Path 45736" d="M271.1,285.23q-.216.708-.493,1.406.733.293,1.482.535.24-.78.414-1.572Q271.793,285.439,271.1,285.23Z" transform="translate(-122.19 -158.361)" fill="#005d45" fill-rule="evenodd"/>
    <path id="Path_45737" data-name="Path 45737" d="M239.695,273.078q.464.269.941.512-.332.5-.7.973c-.329-.2-.656-.411-.978-.63Q239.345,273.516,239.695,273.078Z" transform="translate(-95.162 -147.982)" fill="#005d45" fill-rule="evenodd"/>
    <path id="Path_45738" data-name="Path 45738" d="M247.645,263.648q.436.176.884.327-.235.446-.5.88-.465-.2-.917-.429Q247.395,264.045,247.645,263.648Z" transform="translate(-102.129 -139.927)" fill="#005d45" fill-rule="evenodd"/>
    <path id="Path_45739" data-name="Path 45739" d="M253.559,279.918q.6.264,1.215.489-.292.631-.619,1.243-.64-.3-1.264-.638Q253.242,280.477,253.559,279.918Z" transform="translate(-107.06 -153.824)" fill="#005d45" fill-rule="evenodd"/>
    <path id="Path_45740" data-name="Path 45740" d="M260.786,267.895q.563.149,1.14.257-.2.562-.427,1.11-.6-.171-1.183-.383Q260.565,268.395,260.786,267.895Z" transform="translate(-113.402 -143.555)" fill="#005d45" fill-rule="evenodd"/>
    <path id="Path_45741" data-name="Path 45741" d="M230.989,266.609q.352.312.724.6-.372.342-.762.663-.371-.345-.721-.711Q230.619,266.9,230.989,266.609Z" transform="translate(-87.705 -142.456)" fill="#005d45" fill-rule="evenodd"/>
    <path id="Path_45742" data-name="Path 45742" d="M265.819,256.762q.469.022.942.015-.073.5-.175.995c-.337-.023-.673-.058-1.007-.1Q265.713,257.22,265.819,256.762Z" transform="translate(-117.897 -134.046)" fill="#005d45" fill-rule="evenodd"/>
    <path id="Path_45743" data-name="Path 45743" d="M292.761,270.708q-.009.723-.07,1.445.805.077,1.621.085-.005-.783-.064-1.57C293.749,270.7,293.252,270.715,292.761,270.708Z" transform="translate(-141.055 -145.923)" fill="#005d45" fill-rule="evenodd"/>
    <path id="Path_45744" data-name="Path 45744" d="M186.524,146.526q-.615-.087-1.243-.131.056-.675.161-1.349.672.1,1.333.255Q186.627,145.913,186.524,146.526Z" transform="translate(-49.312 -38.626)" fill="#005d45" fill-rule="evenodd"/>
    <path id="Path_45745" data-name="Path 45745" d="M220.906,143.949q-.465-.269-.941-.512.331-.5.7-.973.494.3.978.63Q221.256,143.512,220.906,143.949Z" transform="translate(-78.937 -36.421)" fill="#005d45" fill-rule="evenodd"/>
    <path id="Path_45746" data-name="Path 45746" d="M214.489,155.007q-.435-.176-.884-.326.235-.447.495-.88.465.2.917.428Q214.74,154.611,214.489,155.007Z" transform="translate(-73.505 -46.103)" fill="#005d45" fill-rule="evenodd"/>
    <path id="Path_45747" data-name="Path 45747" d="M205.82,135.665q-.6-.263-1.215-.488.291-.632.619-1.243.639.3,1.264.638C206.253,134.929,206.032,135.294,205.82,135.665Z" transform="translate(-65.818 -29.134)" fill="#005d45" fill-rule="evenodd"/>
    <path id="Path_45748" data-name="Path 45748" d="M200.191,149.817q-.563-.149-1.14-.257.2-.562.427-1.11.6.171,1.183.383C200.5,149.155,200.338,149.484,200.191,149.817Z" transform="translate(-61.074 -41.532)" fill="#005d45" fill-rule="evenodd"/>
    <path id="Path_45749" data-name="Path 45749" d="M169.252,123.435c-.573-.094-1.152-.163-1.732-.209q.049-.961.181-1.91c.628.109,1.255.243,1.875.405Q169.378,122.572,169.252,123.435Z" transform="translate(-34.142 -18.357)" fill="#005d45" fill-rule="evenodd"/>
    <path id="Path_45750" data-name="Path 45750" d="M230.736,151.693q-.352-.312-.724-.6.37-.342.761-.663.371.344.721.711Q231.105,151.4,230.736,151.693Z" transform="translate(-87.519 -43.221)" fill="#005d45" fill-rule="evenodd"/>
    <path id="Path_45751" data-name="Path 45751" d="M168.868,145.046q-.74-.008-1.489.045-.058-.789-.062-1.575c.545.005,1.086.031,1.624.081Q168.878,144.321,168.868,145.046Z" transform="translate(-33.968 -37.319)" fill="#005d45" fill-rule="evenodd"/>
    <path id="Path_45752" data-name="Path 45752" d="M172.611,180.114c-.077-.349-.144-.7-.2-1.051q-.573.165-1.138.369.138.563.3,1.122Q172.088,180.315,172.611,180.114Z" transform="translate(-37.345 -67.681)" fill="#005d45" fill-rule="evenodd"/>
    <path id="Path_45753" data-name="Path 45753" d="M185.446,177.176q-.036-.469-.043-.942-.5.089-.989.206.051.5.131,1C184.844,177.345,185.143,177.256,185.446,177.176Z" transform="translate(-48.572 -65.264)" fill="#005d45" fill-rule="evenodd"/>
    <path id="Path_45754" data-name="Path 45754" d="M169.411,163.7q-.07-.651-.1-1.306-.692.087-1.372.214.091.7.226,1.4Q168.784,163.837,169.411,163.7Z" transform="translate(-34.502 -53.446)" fill="#005d45" fill-rule="evenodd"/>
    <path id="Path_45755" data-name="Path 45755" d="M184.9,162.383q.028-.581.1-1.164-.6.021-1.187.072-.019.622.007,1.243Q184.357,162.444,184.9,162.383Z" transform="translate(-48.051 -52.439)" fill="#005d45" fill-rule="evenodd"/>
    <path id="Path_45756" data-name="Path 45756" d="M176.9,191.275q-.191-.43-.357-.873-.438.251-.862.525.216.457.459.9C176.391,191.636,176.645,191.452,176.9,191.275Z" transform="translate(-41.115 -77.366)" fill="#005d45" fill-rule="evenodd"/>
    <path id="Path_45757" data-name="Path 45757" d="M197.541,162.99q.122-.455.271-.9c-.332-.054-.665-.1-1-.133-.08.328-.149.659-.209.99Q197.073,162.951,197.541,162.99Z" transform="translate(-58.982 -53.066)" fill="#005d45" fill-rule="evenodd"/>
    <path id="Path_45758" data-name="Path 45758" d="M189.183,128.675q-.693-.21-1.4-.37.171-.791.409-1.57.745.242,1.478.536Q189.4,127.968,189.183,128.675Z" transform="translate(-51.451 -22.985)" fill="#005d45" fill-rule="evenodd"/>
    <path id="Path_45759" data-name="Path 45759" d="M197.177,167.469a2.106,2.106,0,0,1,.312,1.052s.653-1.069,2.007-.178c0,0-1.152-.154-1.426.439,0,0,1.77-.463,2.15,1.176,0,0-.819-.914-1.568-.748a1.917,1.917,0,0,1,1.224,2.34s-.143-1.568-1.283-1.758a2.605,2.605,0,0,1,.653,2.614,2.57,2.57,0,0,0-.807-1.913,2.758,2.758,0,0,1-.345,2.554s.463-1.556-.285-2.126c0,0-.309-.19-.3.38,0,0-.088,3.265.073,4.858,0,0,3.27-2.766,6.067-.927,0,0-2.77-1.352-5.96,1.626l2.129,1.87a.534.534,0,0,1,.987.282c0,.719-1.009.668-1.378.236l-2.237-2.056-.016-.048-.017.048-2.237,2.056c-.369.431-1.378.482-1.378-.236a.534.534,0,0,1,.988-.282l2.129-1.87c-3.19-2.978-5.96-1.626-5.96-1.626,2.8-1.839,6.067.927,6.067.927.162-1.593.073-4.858.073-4.858.012-.57-.3-.38-.3-.38-.749.57-.285,2.126-.285,2.126a2.759,2.759,0,0,1-.344-2.554,2.569,2.569,0,0,0-.808,1.913,2.605,2.605,0,0,1,.654-2.614c-1.141.19-1.283,1.758-1.283,1.758a1.917,1.917,0,0,1,1.223-2.34c-.748-.166-1.568.748-1.568.748.379-1.639,2.15-1.176,2.15-1.176-.273-.594-1.426-.439-1.426-.439,1.354-.891,2.008.178,2.008.178A2.094,2.094,0,0,1,197.177,167.469Z" transform="translate(-53.944 -57.778)" fill="#005d45" fill-rule="evenodd"/>
  </g>
</svg>
