<svg xmlns="http://www.w3.org/2000/svg" width="26.335" height="26.335" viewBox="0 0 26.335 26.335">
  <g id="Print-Icon" transform="translate(-1.125 -1.125)">
    <path id="Path_130007" data-name="Path 130007" d="M23.29,7.275V1.125h-18v6.15a4.395,4.395,0,0,0-4.17,4.384V22.193H4.856V20.437H2.881V11.659A2.636,2.636,0,0,1,5.514,9.025H23.071A2.636,2.636,0,0,1,25.7,11.659v8.778H23.29v1.756h4.17V11.659a4.395,4.395,0,0,0-4.17-4.384ZM21.535,7.27H7.05V2.881H21.535Z" fill="#fff"/>
    <path id="Path_130008" data-name="Path 130008" d="M22.9,14.063h1.756v1.756H22.9ZM7.538,17.574H5.344v1.756H7.538V30.3H22.461V19.329h2.195V17.574ZM20.706,28.547H9.294V19.329H20.706Z" transform="translate(-0.927 -2.842)" fill="#fff"/>
  </g>
</svg>
