<svg xmlns="http://www.w3.org/2000/svg" width="24.989" height="24.988" viewBox="0 0 24.989 24.988">
  <g id="RSS" transform="translate(0.161)">
    <path id="Path_49082" data-name="Path 49082" d="M3.564,365.962a3.564,3.564,0,1,0,3.564,3.564,3.568,3.568,0,0,0-3.564-3.564" transform="translate(-0.161 -348.101)" fill="#fff"/>
    <path id="Path_49083" data-name="Path 49083" d="M11.717,183.366A15.424,15.424,0,0,0,.739,178.819a.736.736,0,0,0-.736.736v3.969a.736.736,0,0,0,.736.736,10.1,10.1,0,0,1,10.084,10.084.736.736,0,0,0,.736.736h3.969a.736.736,0,0,0,.736-.736,15.424,15.424,0,0,0-4.547-10.978" transform="translate(-0.164 -170.092)" fill="#fff"/>
    <path id="Path_49084" data-name="Path 49084" d="M23.084,14.811a24.167,24.167,0,0,0-5.2-7.708A24.185,24.185,0,0,0,.739,0,.736.736,0,0,0,0,.736V4.705a.736.736,0,0,0,.736.736A18.833,18.833,0,0,1,19.551,24.253a.736.736,0,0,0,.736.736h3.969a.736.736,0,0,0,.736-.736,24.106,24.106,0,0,0-1.907-9.441" transform="translate(-0.164)" fill="#fff"/>
  </g>
</svg>
