<svg xmlns="http://www.w3.org/2000/svg" width="27.411" height="29.363" viewBox="0 0 27.411 29.363">
  <path id="Share-Icon" d="M25.006,21.19a4.643,4.643,0,0,0-3.683,1.816L11.3,17.315a4.63,4.63,0,0,0,0-3.018L21.323,8.606a4.645,4.645,0,1,0-.843-1.773l-10.2,5.788a4.649,4.649,0,1,0,0,6.369l10.2,5.788a4.649,4.649,0,1,0,4.526-3.589Zm0-18.107a2.692,2.692,0,1,1-2.692,2.692A2.692,2.692,0,0,1,25.006,3.082ZM6.9,18.5A2.692,2.692,0,1,1,9.59,15.807,2.692,2.692,0,0,1,6.9,18.5ZM25.006,28.531A2.692,2.692,0,1,1,27.7,25.839a2.692,2.692,0,0,1-2.692,2.692Z" transform="translate(-2.245 -1.124)" fill="#fff"/>
</svg>
