<svg id="Twitter" xmlns="http://www.w3.org/2000/svg" width="28.224" height="22.893" viewBox="0 0 28.224 22.893">
  <path id="Path_2" data-name="Path 2" d="M46.938,24.893C57.6,24.893,63.4,16.112,63.4,8.429V7.645a12.746,12.746,0,0,0,2.822-2.979,13.016,13.016,0,0,1-3.293.941A6.1,6.1,0,0,0,65.44,2.47a14.382,14.382,0,0,1-3.606,1.411A5.6,5.6,0,0,0,57.6,2a5.891,5.891,0,0,0-5.8,5.8,3.057,3.057,0,0,0,.157,1.254A16.211,16.211,0,0,1,40.038,2.941a6,6,0,0,0-.784,2.979,6.23,6.23,0,0,0,2.509,4.861A5.286,5.286,0,0,1,39.1,10h0a5.731,5.731,0,0,0,4.7,5.645,4.834,4.834,0,0,1-1.568.157,2.668,2.668,0,0,1-1.1-.157,5.94,5.94,0,0,0,5.488,4.077,11.839,11.839,0,0,1-7.213,2.509A4.341,4.341,0,0,1,38,22.071a14.8,14.8,0,0,0,8.938,2.822" transform="translate(-38 -2)" fill="#fff" fill-rule="evenodd"/>
</svg>
