<svg xmlns="http://www.w3.org/2000/svg" width="36" height="36" viewBox="0 0 36 36">
  <g id="Voice" transform="translate(33.925 1.867)">
    <path id="Circle" d="M18,0A18,18,0,1,1,0,18,18,18,0,0,1,18,0Z" transform="translate(-33.925 -1.867)" fill="#edf0f5"/>
    <path id="Icon" d="M13.829,15.286a2.685,2.685,0,0,0,2.688-2.7L16.526,7.2a2.7,2.7,0,1,0-5.393,0v5.393A2.693,2.693,0,0,0,13.829,15.286Zm5.465-2.7a.747.747,0,0,0-.746.638,4.713,4.713,0,0,1-4.719,3.946A4.7,4.7,0,0,1,9.11,13.228a.754.754,0,0,0-.746-.638.77.77,0,0,0-.764.872,6.347,6.347,0,0,0,5.33,5.168v2.049a.9.9,0,0,0,1.8,0V18.63a6.336,6.336,0,0,0,5.33-5.168.77.77,0,0,0-.764-.872Z" transform="translate(-29.728 3.109)" fill="#005d45"/>
  </g>
</svg>
