<svg xmlns="http://www.w3.org/2000/svg" width="31.963" height="24.608" viewBox="0 0 31.963 24.608">
  <g id="Youtube" transform="translate(0 0)">
    <path id="Path_218" data-name="Path 218" d="M34.409,149.323a4.531,4.531,0,0,0-4.214-4.214,127.846,127.846,0,0,0-22.371,0,4.53,4.53,0,0,0-4.213,4.214c-.777,7.01-.776,8.19,0,15.2a4.531,4.531,0,0,0,4.213,4.213,127.846,127.846,0,0,0,22.371,0,4.532,4.532,0,0,0,4.214-4.213C35.185,157.513,35.185,156.333,34.409,149.323ZM23.7,157.529l-8.655,5.215a.788.788,0,0,1-.765.01.742.742,0,0,1-.412-.615V151.708a.775.775,0,0,1,1.151-.606l8.668,5.215a.7.7,0,0,1,.349.606A.684.684,0,0,1,23.7,157.529Z" transform="translate(-3.028 -144.619)" fill="#fff" fill-rule="evenodd"/>
  </g>
</svg>
