<svg id="eO7TgGZrX0L1" xmlns="http://www.w3.org/2000/svg" xmlns:xlink="http://www.w3.org/1999/xlink"
    width="78.002" height="78.002" viewBox="0 0 78.002 78.002" shape-rendering="geometricPrecision"
    text-rendering="geometricPrecision">
    <style>
<![CDATA[
#Rotator {animation: Loaderotate 1500ms linear 1s infinite}
@keyframes Loaderotate {
     0% {transform: translate(1069.001px,-305.002px) rotate(0deg)}
     100% {transform: translate(1069.001px,-305.002px) rotate(360deg)}
    }
]]></style>
    <g transform="translate(-1030 344.002)">
        <g transform="translate(1051.93-328.901)">
            <path
                d="M320.855,44.815c-1.156927-.472381-2.401195-.69294-3.65-.647-2.939,0-7.446.9-13.083,4.983l-.024.018-.115-.088c-5.638-4.08-10.074-4.913-13.013-4.913-1.248805-.04594-2.493073.174619-3.65.647-.07.04-.2.115-.169.239.02.077.091.116.206.116.036176-.000263.07228-.003272.108-.009.693697-.170407,1.405685-.255039,2.12-.252c3.812,0,8.741,2.838,12.686,5.663-.8.645-1.612,1.344-2.45,2.115-.117-.1-.157-.127-.27-.22-.303358-.258376-.648219-.463602-1.02-.607-.191647-.071473-.399427-.088095-.6-.048-.393854.094186-.649595.474753-.588.875.006262.34081.261815.625325.6.668.240618.008161.466207-.116739.587-.325.15.121.294.239.424.361.061.058.12.118.18.176l-.244.211c-.192.166-.38.328-.57.484-.372657.325853-.787771.59968-1.234.814-.156952.080023-.330829.121177-.507.12-.095131-.011896-.189118-.03163-.281-.059l-.068-.019c-.009254-.003401-.018274-.00741-.027-.012-.056741-.029805-.117307-.051676-.18-.065-.028026-.005285-.05648-.007963-.085-.008-.139349-.002799-.268755.071917-.336.194-.080324.153838-.100638.33203-.057.5.034239.116803.096356.223533.181.311.272192.317315.65529.518701,1.071.563.076041.008376.1525.012383.229.012.078492.000239.15694-.003766.235-.012.348721-.042878.68815-.142173,1.005-.294.603407-.284844,1.17046-.641056,1.689-1.061l.5-.394c.163.155.333.313.507.465.223885.213565.488475.379869.778.489.089922.030123.184168.045324.279.045.036447.000051.072859-.002287.109-.007.044,0,.086-.011.13-.018.290191-.072355.505733-.316132.542-.613.061329-.310072-.06079-.627816-.314-.817-.23763-.151036-.54832-.116515-.747.083-.030238.027219-.057706.057366-.082.09-.13-.129-.255-.264-.384-.4.826-.735,1.826-1.492,2.778-2.24.962.748,2.021,1.5,2.847,2.24-.128.139-.254.274-.384.4-.024224-.032387-.051335-.06251-.081-.09-.198834-.200036-.51015-.23458-.748-.083-.252808.189488-.374828.506972-.314.817.036267.296868.251809.540645.542.613.043.008.086.014.13.018.035812.00465.071887.006988.108.007.095172.000488.189774-.014716.28-.045.289586-.109008.5542-.275327.778-.489.172-.153.343-.31.507-.465l.5.394c.518669.419764,1.085699.775962,1.689,1.061.316907.151678.656311.250966,1.005.294.077728.008202.155841.012207.234.012.077164.000332.154286-.003675.231-.012.415353-.044545.798053-.245909,1.07-.563.084612-.087491.146724-.194213.181-.311.042872-.168023.02259-.345938-.057-.5-.067411-.12192-.196709-.196574-.336-.194-.02852.000037-.056974.002715-.085.008-.062652.013468-.123199.035332-.18.065l-.026.012-.07.019c-.091521.027455-.185182.047191-.28.059-.17614.000906-.349954-.040233-.507-.12-.446351-.214105-.861493-.48795-1.234-.814-.19-.156-.378-.318-.57-.484l-.244-.211c.061-.059.119-.119.18-.176.13-.122.274-.24.424-.361.120632.208425.346328.333385.587.325.338185-.042675.593738-.32719.6-.668.061171-.39983-.193842-.77996-.587-.875-.200554-.040417-.408422-.023787-.6.048-.372008.143557-.717172.348762-1.021.607-.112.093-.152.118-.269.22-.812-.746-1.656-1.479-2.443-2.12c3.945-2.824,8.869-5.658,12.679-5.658.714644-.003041,1.426963.081591,2.121.252.035377.005787.071153.008796.107.009.114,0,.184-.039.206-.116.034-.124-.1-.2-.169-.239"
                transform="translate(-287.147-9.094)" fill="#61b254" />
            <path
                d="M306.188,42.82c-.332027.679193-.603738,1.386245-.812,2.113.829941-.41602,1.720713-.69753,2.639-.834c2.826362-.578631,4.894919-3.008515,5.015-5.891-.121.229-.445.714-3.254.84-1.47.066-3.912.244-5.178,2.623.230748.466768.40659.958721.524,1.466c1.576-3.713,5.465-3.2,6.126-3.343-.657.283-3.475.419-5.061,3.025"
                transform="translate(-287.596-8.851)" fill="#61b254" />
            <path
                d="M304.226,47.17l.692-.337c-.17-7.284-4.163-7.7-6.1-7.785-2.81-.128-3.133-.611-3.255-.84.120542,2.882649,2.189435,5.312443,5.016,5.891.739204.074258,1.453742.306867,2.095.682-.537-4.759-4.525-4.642-5.329-4.988.758.158,6.444-1.029,6.179,7.039Z"
                transform="translate(-287.363-8.851)" fill="#61b254" />
            <path
                d="M302.063,25.432c-.049138,1.338894.956798,2.482702,2.291,2.605c1.345868-.098813,2.364505-1.257567,2.29-2.605.025-1.991-2.29-5.788-2.29-5.788s-2.416,3.7-2.291,5.788m3.285,1.707c-.285656.232098-.641946.359798-1.01.362-1.043437-.06956-1.834511-.969239-1.77-2.013.055502-.523612.192136-1.0354.405-1.517-.070968.238656-.11195.485219-.122.734-.075955,1.278585.893098,2.379315,2.171,2.466.109373-.000597.218474-.010972.326-.031"
                transform="translate(-287.531-8.093)" fill="#61b254" />
            <path
                d="M297.949,33.652c0,4.152,5.977,5.478,5.977,5.478v-1.289c0-4.309-5.977-5.477-5.977-5.477Z"
                transform="translate(-287.425-8.612)" fill="#61b254" />
            <path
                d="M304.719,37.841v1.288c0,0,5.981-1.329,5.981-5.477v-1.289c0,0-5.978,1.168-5.978,5.478"
                transform="translate(-287.599-8.612)" fill="#61b254" />
            <path
                d="M299.495,28.792c0,3.376,4.544,4.453,4.544,4.453v-1.045c0-3.5-4.544-4.453-4.544-4.453Z"
                transform="translate(-287.465-8.423)" fill="#61b254" />
            <path
                d="M304.643,32.2v1.047c0,0,4.544-1.077,4.544-4.453v-1.05c0,0-4.544.951-4.544,4.453"
                transform="translate(-287.597-8.423)" fill="#61b254" />
            <path
                d="M288.09,20.779c3.95-3.915,6.484-4.612,9.641-5.1-3.234,2.027-6.254,6.739-5.314,10.055c1.708-3.518,4.689-6.958,7.436-8.211-1.557139,2.105873-1.599769,4.969712-.106,7.121.346-2.97,2.452-5.823,4.215-7.736c1.762,1.913,3.869,4.766,4.215,7.736c1.494709-2.151124,1.451665-5.015756-.107-7.121c2.747,1.253,5.729,4.692,7.436,8.211.942-3.316-2.078-8.028-5.313-10.055c3.157.487,5.693,1.184,9.642,5.1-1.3-5.238-5.89-7.054-9.558-7.7c4.036-.341,4.836.064,8.4,1.52-3.87-3.755-6.583-4.433-10.46-4.067.654372-.562298,1.439316-.951504,2.283-1.132-1.627-.631-4.17-.3-5.16.635-.109361-.955583-.600622-1.826291-1.362-2.414v-.021l-.013.008-.015-.008v.015c-.761268.587664-1.252222,1.458467-1.361,2.414-.991-.935-3.534-1.266-5.161-.635.842467.183388,1.62582.574205,2.279,1.137-3.878-.366-6.591.312-10.461,4.067c3.564-1.456,4.366-1.862,8.4-1.52-3.667.646-8.255,2.462-9.556,7.7"
                transform="translate(-287.171-7.601)" fill="#61b254" />
        </g>
        <path
            d="M39,6C20.774603,6,6,20.774603,6,39s14.774603,33,33,33s33-14.774603,33-33C71.979609,20.783056,57.216944,6.020391,39,6m0-6C60.539105,0,78,17.460895,78,39s-17.460895,39-39,39-39-17.460895-39-39s17.460895-39,39-39Z"
            transform="translate(1030-344)" opacity="0.2" fill="#003462" />
        <g id="Rotator" transform="translate(1069.001,-305.002) ">
            <g transform="translate(-1069,305)">
                <path
                    d="M39,1C20.925707,1.011337,5.359106,13.74884,1.770552,31.463311s5.793544,35.50602,22.438448,42.550689c19.326254,8.116784,41.575531-.944298,49.732407-20.253665s-.85801-41.577402-20.150407-49.774335C49.111774,2.005684,44.081015,0.990077,39,1m0-1C60.539105,0,78,17.460895,78,39s-17.460895,39-39,39-39-17.460895-39-39s17.460895-39,39-39Z"
                    transform="translate(1030-344)" opacity="0" fill="#003462" />
                <path
                    d="M1087.5,-339.244c-2.313294-1.346865-4.776856-2.417206-7.34-3.189-2.670249-.763424-5.414551-1.238799-8.186-1.418l.041,6.43c2.007045.203502,3.990261.596931,5.923,1.175c1.951009.545796,3.839095,1.2956,5.633,2.237Z"
                    fill="#003462" />
            </g>
        </g>
    </g>
</svg>