<svg xmlns="http://www.w3.org/2000/svg" xmlns:xlink="http://www.w3.org/1999/xlink" width="870.908" height="421.789" viewBox="0 0 870.908 421.789">
  <defs>
    <clipPath id="clip-path">
      <rect id="mask" width="870.908" height="421.789" transform="translate(0.317 0.403)" fill="#fff" stroke="#707070" stroke-width="1"/>
    </clipPath>
  </defs>
  <g id="map" transform="translate(-0.317 -0.403)" clip-path="url(#clip-path)">
    <g id="map-2" data-name="map" transform="translate(11.585 11.871)">
      <g id="Blur" transform="translate(0 11.547)">
        <g id="Group_125024" data-name="Group 125024">
          <path id="Union_13" data-name="Union 13" d="M399.834,385.974c-.143-.189-2.8-3.833-5.78-7.527a1.31,1.31,0,0,0-.148-.289,1,1,0,0,0-.062-.091c-.053-.073-.109-.145-.177-.224a1.273,1.273,0,0,0-.091-.1c-.084-.091-.177-.182-.273-.273-.023-.017-.036-.037-.059-.054-.123-.112-.261-.228-.406-.343-.039-.031-.085-.065-.127-.1q-.168-.127-.353-.261c-.053-.038-.109-.075-.166-.115-.132-.091-.266-.182-.409-.278-.045-.031-.091-.058-.135-.091-.19-.123-.383-.243-.588-.371-.045-.025-.091-.054-.135-.079-.166-.1-.331-.2-.5-.3-.07-.039-.143-.081-.213-.124-.159-.091-.32-.182-.485-.273l-.2-.112c-.224-.123-.456-.247-.687-.364l-.091-.046c-.207-.112-.417-.22-.63-.329l-.232-.118c-.171-.091-.344-.174-.518-.261-.073-.037-.149-.074-.224-.109-.213-.1-.426-.211-.638-.314l-.084-.039c-.241-.115-.482-.23-.72-.343l-.2-.1c-.173-.082-.344-.161-.516-.239-.073-.034-.148-.071-.224-.1l-.527-.241-.151-.067c-.232-.107-.455-.2-.678-.3l-.154-.071c-.169-.072-.333-.145-.493-.216-.059-.025-.117-.054-.174-.076-.2-.091-.384-.169-.56-.243l-.067-.031c-.154-.066-.3-.127-.44-.182l-.166-.069-.3-.127-.117-.049c-.118-.051-.227-.1-.323-.135l-.078-.031c-.073-.035-.143-.062-.2-.082l-.047-.02-.12-.05-4.718-10.134-2.154.1L357.655,355.3l.722-14.2,15.646,5.291,2.154-.1,4.718,10.134.12.05.045.016c.065.028.143.06.235.1l.026.012c.1.043.221.091.356.148l.067.028c.1.042.219.091.339.144l.159.067c.14.058.286.12.44.188l.067.029.572.25.146.062.5.22.17.077c.219.091.44.2.67.3l.036.014c.039.02.084.039.126.059l.51.232.236.109c.169.076.339.157.51.235.067.035.135.065.2.1.241.111.482.228.729.344l.053.028.667.325c.073.035.146.071.219.108.177.091.355.178.532.267l.216.109c.221.112.44.228.659.34l.062.034c.236.123.466.249.7.373.065.037.128.074.19.107.168.091.331.182.493.273.07.041.14.082.21.12.171.1.336.2.5.3.046.026.091.054.135.082.2.123.4.247.588.364.048.03.091.058.135.091.143.091.28.182.412.278.056.039.109.076.162.116.123.091.241.176.356.262l.123.1c.146.115.283.23.406.343a.6.6,0,0,1,.059.056,3.853,3.853,0,0,1,.273.273c.031.034.059.065.091.1.067.079.126.152.177.225.022.031.045.061.065.091a1.435,1.435,0,0,1,.146.289c2.976,3.7,5.641,7.335,5.78,7.527l2.74.014,2.7-.717,1.5-1.565.016-.357c0-.03.005-.061.008-.091a1.462,1.462,0,0,1,.045-.2c.005-.014.014-.025.019-.042s.014-.031.02-.048c.014-.034.026-.067.042-.1a1.284,1.284,0,0,1,.123-.2h0l.011-.014a1.806,1.806,0,0,1,.171-.191.662.662,0,0,1,.065-.052c.042-.037.091-.071.131-.1s.067-.061.107-.091c.062-.042.126-.082.2-.12.238-.141.638-.364,1.138-.65l.423-8.317-1.5.013.729-14.2,1.868-.016.081-.373a.594.594,0,0,0,.019-.091l-.456,8.985c.016-.022.036-.045.053-.071s.016-.03.028-.047a4.67,4.67,0,0,1,.339-.4l.159-2.175.474-9.263q.572.1,1.143.177l.188.022c.354.039.7.059,1.048.074l.266.008a10.425,10.425,0,0,0,1.073-.031c.266-.022.527-.056.784-.1l.019-.005a6.423,6.423,0,0,0,.67-.155c.067-.016.135-.039.2-.061q.251-.077.5-.174c.067-.028.138-.054.2-.084a6.468,6.468,0,0,0,.667-.328c.182-.108.35-.222.513-.337.091-.066.182-.137.273-.208s.188-.146.273-.223.166-.146.247-.222.148-.141.221-.214c.2-.193.384-.4.563-.6.23-.26.445-.524.664-.787.051-.062.1-.125.148-.182.07-.082.138-.163.208-.244l-.723,14.194c-.118.138-.235.281-.353.422l-.389.468-.273.327c-.182.2-.364.4-.563.6-.028.027-.053.058-.081.091-.045.042-.091.084-.14.126-.081.073-.162.145-.247.223-.028.024-.056.049-.091.075l-.081,1.619c0-.091,0-.191.005-.281l.067-1.33c-.056.047-.123.091-.182.14-.091.07-.182.138-.273.207-.039.029-.076.059-.115.091-.129.084-.261.169-.4.25a6.515,6.515,0,0,1-.67.329c-.067.031-.135.057-.2.081a5.2,5.2,0,0,1-.5.177c-.067.021-.135.043-.2.062-.221.063-.443.116-.667.156h-.026c-.255.046-.516.08-.779.1l-.084.005c-.255.02-.516.031-.779.031-.067,0-.14-.005-.21-.005l-.273-.007c-.109-.006-.219-.006-.328-.013-.238-.013-.479-.036-.72-.061l-.182-.02h-.036c-.356-.045-.714-.1-1.073-.166l-.381,7.464-.28,3.8c2.065-1.151,4.842-2.679,5.046-2.793l2.113-1.782-.722,14.194-2.113,1.78c-.292.16-5.825,3.207-7.047,3.925a2.34,2.34,0,0,0-.3.209,1.49,1.49,0,0,0-.131.106,1.736,1.736,0,0,0-.236.243l-.011.015a1.27,1.27,0,0,0-.169.3c-.008.016-.014.031-.022.048a.592.592,0,0,1-.015.07l-.028.569-1.541,1.612-2.7.718Zm30.939-28h-.109c-.148,0-.289,0-.423-.007a1.22,1.22,0,0,1-.14-.005c-.049-.005-.081,0-.12-.006a1.546,1.546,0,0,1-.159-.014l-.2-.017a.665.665,0,0,0-.07-.005c-.091-.012-.177-.025-.258-.039l-.019,0h0c-.076-.013-.146-.029-.21-.046a1.1,1.1,0,0,1-.112-.031c-.078-.007-.155-.016-.23-.025l-.182-.026-.162-.026a.674.674,0,0,1-.067-.011c-.112-.02-.213-.042-.311-.066-.219.053-.4.106-.578.153-.151.039-.294.077-.44.1a.455.455,0,0,0-.053.011c-.042.009-.091.017-.128.023-.261.016-.5.028-.729.034l-.2,0h-.384c-.166,0-.325-.007-.476-.013a1.457,1.457,0,0,1-.168-.006c-.036,0-.07-.008-.107-.008-.135-.011-.273-.025-.4-.036-.061-.008-.123-.012-.182-.016s-.091-.014-.143-.019c-.2-.029-.4-.063-.6-.1l-.2-.039c-.507-.16-1.011-.3-1.5-.432l.722-14.193c.059.015.12.036.177.052l.008-.169.026-.016a4.145,4.145,0,0,0,.589-.48,3.905,3.905,0,0,0,.389-.434l.05-.066a5.64,5.64,0,0,0,.455-.742c.031-.056.058-.114.091-.173.091-.2.193-.39.289-.576a10.706,10.706,0,0,1,.911-1.488l-.241,4.707.285.025.273.014c.154.005.311.011.476.011h.579c.23,0,.468-.016.729-.033.061-.008.123-.022.182-.034.143-.028.286-.062.437-.1.174-.047.358-.1.574-.154.115.031.247.056.381.079l.163.025c.128.019.261.036.409.05a2.652,2.652,0,0,0,.325.078h.02c.1.016.213.031.331.045l.2.016c.091.008.182.015.281.02.048,0,.091.005.143.005.132,0,.273.009.425.009h.1q.29,0,.622-.012a1.554,1.554,0,0,0,.159-.005c.177,0,.359-.014.552-.025.091,0,.182-.008.273-.014.174-.008.353-.022.541-.035l.311-.022c.273-.02.558-.042.863-.066,2.306-.194,5.472-.547,9.8-1.072,1.65-.17,3.472-.364,5.483-.583,6.952-1.049,13.06-1.737,18.345-2.186q1.047-.091,2.048-.163h.031q1.113-.084,2.177-.154c.182-.014.364-.022.547-.033.51-.035,1.017-.066,1.51-.091l.737-.04c.412-.022.827-.046,1.224-.065.255-.012.5-.023.751-.031.375-.016.745-.034,1.11-.047.247-.012.487-.02.729-.029.347-.011.691-.022,1.029-.03.235-.008.468-.017.7-.023.331-.008.652-.014.969-.022.216-.005.432-.009.638-.012.328-.007.648-.011.961-.016.182,0,.364,0,.538-.006.355,0,.7,0,1.034-.008h2.567l.312,0c.316,0,.624.006.922.013h.126c.263,0,.518.008.762.012.091,0,.17,0,.258.005.2,0,.39.008.574.014h.233c.232.007.455.011.67.015.5.029,1.011.042,1.513.042.342,0,.681,0,1.02-.011l.342-.012h.091c.138,0,.289-.008.455-.011h.047c.159,0,.339-.006.527-.009h.151c.2,0,.412,0,.638-.007h.193c.19,0,.389-.006.594-.006h.23c.261,0,.532-.005.813-.005h.193c.247,0,.5,0,.76-.005h.252c.309,0,.625-.005.947-.005h.261c.281,0,.563,0,.854-.005h24.587l1.026-.091,22.9-1.931c.529.323,1.549.855,3.889,2.138l.987.41c.162.059.316.121.465.19.031.015.053.031.081.043a5.9,5.9,0,0,1,.729.4l.863.665a3.1,3.1,0,0,0,.23.213.57.57,0,0,0,.073.058,2.52,2.52,0,0,0,.213.163.82.82,0,0,0,.07.05c.1.068.208.133.323.2.023.014.048.025.073.039.1.052.2.107.317.157.042.022.091.042.134.061.07.032.14.06.216.091.056.022.115.048.177.071l.244.091c.084.032.174.06.273.091h.384c.056,0,.117,0,.182.006s.129,0,.2,0c.091,0,.19.017.294.028.659-.011,1.3-.035,1.922-.065.208-.008.4-.026.608-.037.482-.028.967-.056,1.429-.091.675-.056,1.32-.126,1.948-.2l.292-.035c.59-.075,1.16-.157,1.712-.246l.317-.051c.563-.091,1.11-.194,1.628-.3a1.078,1.078,0,0,1,.112-.022c.482-.1.941-.208,1.387-.318.115-.025.227-.053.339-.081.455-.116.9-.232,1.323-.356.053-.014.1-.029.148-.046.381-.112.748-.227,1.1-.343.091-.027.182-.059.273-.091.373-.127.729-.256,1.07-.384.051-.021.1-.037.148-.056q.445-.175.852-.346c.067-.028.138-.057.2-.091.294-.127.572-.252.83-.376.047-.022.091-.045.138-.067.221-.106.432-.213.628-.314.047-.028.1-.049.143-.076.216-.115.417-.226.6-.333.039-.023.073-.041.109-.066q.231-.137.429-.257l.091-.059c.146-.091.273-.177.386-.255.036-.023.067-.046.1-.067l.213-.155.091-.062.138-.107.045-.034.084-.074,7.546-13.338.036-.073q.269-.514.566-1.022c.047-.084.1-.169.154-.252q.24-.4.5-.805c.081-.127.169-.255.252-.383q.222-.332.456-.665c.1-.14.2-.273.3-.418.091-.12.173-.244.263-.364.053-.073.112-.143.166-.214.168-.224.342-.445.518-.67.123-.155.247-.312.373-.468.182-.23.373-.456.566-.683.12-.143.238-.289.364-.431.213-.245.429-.489.644-.729.107-.118.21-.24.316-.353.325-.356.65-.711.981-1.052q.577-.594,1.154-1.157c.042-.039.081-.084.123-.126.118-.116.235-.223.356-.336s.25-.24.372-.36c.182-.171.365-.34.54-.5.118-.109.235-.222.353-.329.193-.176.384-.346.574-.519l.3-.273c.244-.219.485-.43.722-.638.042-.037.091-.073.127-.109.28-.241.555-.475.82-.7.084-.069.162-.134.244-.2l.546-.447c.1-.091.2-.165.3-.246.148-.12.3-.241.44-.356.109-.084.208-.165.311-.247.128-.1.258-.2.381-.3.1-.079.193-.155.291-.228.12-.091.236-.182.351-.273l.258-.2.313-.24.23-.17c.091-.072.182-.139.273-.2.067-.047.132-.1.193-.14.081-.06.157-.112.23-.169l.159-.116c.067-.048.123-.091.182-.128.036-.029.078-.056.109-.081l.132-.091.076-.054.1-.065,13.4-6.806c.266-.132.558-.266.86-.4l.138-.06c.294-.129.6-.261.927-.39l.182-.077c.331-.128.67-.263,1.023-.4.05-.015.1-.036.154-.056.359-.132.729-.267,1.11-.4l.062-.022c.393-.138.8-.273,1.205-.407l.2-.066c.4-.129.8-.258,1.211-.387l.23-.072c.415-.128.835-.258,1.258-.384.047-.015.091-.031.143-.042q.631-.19,1.266-.371l.118-.034,1.3-.364.23-.065c.42-.112.841-.225,1.258-.334l.221-.059c.423-.111.846-.219,1.261-.322l.1-.022c.406-.1.807-.2,1.2-.3.05-.009.1-.023.151-.035.392-.091.773-.182,1.149-.273.073-.014.143-.031.216-.048.364-.084.72-.16,1.065-.236.062-.012.118-.023.177-.036.355-.076.7-.149,1.031-.213h.005c.328-.065.638-.12.93-.175l.091-.016.061-.011c.109-.02.213-.037.317-.054l.23-.039c.1-.015.2-.032.294-.046.067-.009.14-.022.2-.031.1-.015.2-.026.289-.037l.151-.02c.14-.015.273-.027.386-.039,3.682-.31,43.629-7.015,45.425-7.288l53.6-12.207.109-2.155c.7-.165,1.417-.347,2.152-.54s1.485-.405,2.247-.63l-.722,14.194c-1.314.387-2.584.719-3.805,1.022l-.112,2.168L686.3,299.522c-1.8.278-41.744,6.98-45.425,7.288-.117.009-.25.022-.386.039-.045,0-.091.012-.143.017-.1.015-.2.025-.3.042l-.193.025c-.1.017-.2.032-.3.047l-.23.04c-.1.017-.207.033-.316.053-.047.008-.1.021-.151.028-.294.051-.6.109-.933.175h-.006c-.331.064-.68.136-1.039.212-.057.008-.109.021-.163.034q-.521.111-1.07.236c-.073.017-.143.031-.216.047-.375.084-.757.173-1.151.273-.047.011-.1.022-.151.037-.393.091-.79.189-1.2.292l-.091.026c-.414.1-.838.21-1.263.322-.073.02-.146.039-.221.057-.414.109-.834.222-1.255.337-.078.022-.154.042-.23.065-.429.117-.86.239-1.292.359-.045.012-.091.028-.138.039-.417.12-.835.241-1.25.364-.05.017-.1.029-.148.046-.423.126-.84.252-1.258.381-.076.025-.151.047-.227.073-.409.128-.813.256-1.208.387l-.208.067c-.406.135-.807.273-1.2.406l-.073.026c-.378.132-.745.263-1.1.4-.05.019-.1.035-.154.056q-.529.2-1.023.4l-.182.076c-.325.129-.638.261-.927.39-.047.019-.091.039-.138.062-.305.135-.594.273-.86.4l-13.417,6.8-.1.07-.042.028c-.045.03-.1.071-.159.116l-.109.075c-.056.042-.115.084-.182.133l-.157.114c-.073.055-.148.109-.232.169-.059.046-.127.091-.19.142-.091.064-.182.131-.273.2-.073.056-.151.112-.23.17l-.308.235c-.091.065-.174.133-.266.2-.109.091-.227.177-.347.266-.091.076-.188.149-.286.224l-.4.311c-.1.079-.2.154-.3.236-.146.118-.3.241-.456.364-.1.082-.193.157-.294.239-.17.14-.347.289-.524.435-.091.075-.174.145-.263.22-.273.225-.541.456-.82.7l-.132.114q-.353.3-.717.63c-.1.091-.207.188-.311.281-.188.169-.375.336-.567.51-.117.107-.235.219-.355.328-.177.166-.356.332-.536.5l-.381.364c-.159.151-.316.305-.473.456-.383.379-.771.761-1.154,1.156-.331.345-.659.7-.984,1.056-.1.115-.2.233-.308.347-.219.245-.437.489-.65.735-.123.144-.24.29-.364.433-.19.224-.378.456-.566.682-.126.154-.247.311-.37.468-.177.222-.35.446-.518.668q-.219.29-.429.58c-.1.139-.2.278-.3.418-.154.219-.305.441-.455.661-.084.128-.17.256-.252.385-.174.266-.339.536-.5.805-.05.085-.1.169-.151.25q-.319.547-.6,1.093l-7.543,13.339c-.014.012-.042.037-.084.071-.014.011-.031.025-.047.036-.036.032-.081.065-.135.1l-.091.067c-.062.04-.132.091-.21.148-.034.022-.064.046-.1.073l-.039.028c-.1.067-.219.146-.342.224a.987.987,0,0,0-.091.058q-.2.124-.425.256-.053.036-.109.067c-.182.107-.383.216-.6.332-.047.024-.1.053-.148.078-.2.1-.4.207-.625.314-.047.022-.091.042-.138.066-.258.125-.535.248-.826.374l-.211.091c-.273.116-.547.229-.843.343-.053.02-.1.039-.154.063-.336.126-.7.254-1.068.381-.091.028-.182.058-.273.091-.35.116-.712.23-1.093.343-.054.015-.1.031-.154.046-.42.123-.865.241-1.323.356l-.339.084c-.445.108-.9.213-1.385.312l-.115.026c-.394.077-.8.157-1.213.23-.135.026-.273.045-.415.067-.1.02-.21.037-.317.053-.552.091-1.121.171-1.712.248l-.292.034c-.63.075-1.275.143-1.947.2-.158.013-.314.026-.474.036-.311.026-.638.039-.958.06-.2.011-.4.024-.608.036-.625.03-1.261.053-1.919.064-.188-.022-.344-.027-.5-.031-.058,0-.123,0-.182,0h-.381c-.047-.015-.091-.031-.143-.048s-.084-.027-.126-.044l-.247-.091c-.059-.025-.117-.048-.177-.07s-.143-.059-.21-.091c-.026-.012-.057-.022-.081-.035a.374.374,0,0,1-.059-.027c-.112-.054-.216-.107-.316-.158-.023-.013-.048-.025-.07-.039-.118-.065-.221-.129-.323-.2l-.073-.049c-.073-.054-.146-.107-.211-.163l-.073-.058c-.081-.07-.159-.14-.23-.214l-.863-.666a6.25,6.25,0,0,0-.729-.4c-.177-.081-.356-.165-.547-.232l-.987-.413c-2.339-1.28-3.36-1.812-3.892-2.138l-22.9,1.947-1.026.091h-23.2c-.834,0-1.64.005-2.4.011h-.027c-.378,0-.742,0-1.1.005h-.073c-.339,0-.67,0-.984.006h-.034l-.894.008h-.168l-.667.008h-.126c-.238,0-.455.006-.67.012h-.128l-.547.007H494.3c-.174,0-.323,0-.456.011h-.091c-.132,0-.25.009-.342.012-.283.012-.566.014-.849.017-.056,0-.115-.005-.171-.005-.5,0-1.008-.012-1.513-.043l-.672-.016-.23,0c-.182,0-.37-.005-.56-.012-.091,0-.188,0-.286-.005-.239,0-.485-.008-.74-.011h-.135c-.3-.005-.6-.009-.925-.014h-2.891l-1.008.008c-.182,0-.375,0-.56,0-.311.006-.622.009-.947.015-.207.006-.425.008-.638.014-.317.005-.638.014-.969.023-.23,0-.465.013-.7.019l-1.023.034c-.241.008-.485.016-.734.029-.364.013-.729.027-1.107.044L476,353.4c-.4.019-.813.042-1.224.065-.247.015-.487.026-.737.039l-1.477.091c-.2.013-.386.022-.586.036q-1.056.072-2.164.154-1.021.076-2.084.166c-5.284.446-11.393,1.133-18.345,2.186-2.011.216-3.836.414-5.486.584-4.324.521-7.489.878-9.8,1.071l-.683.057-.182.012c-.107.009-.21.014-.311.022-.188.014-.364.022-.541.034-.091,0-.188.011-.273.017l-.552.022c-.054,0-.109.005-.16.005l-.589.011c-.011,0-.019,0-.031,0ZM347.7,356.927a.416.416,0,0,1-.062-.014l-.057-.014-.05-.01-.138-.043c-.034-.009-.065-.017-.1-.029l-.286-.091-.056-.02h0c-.2-.065-.424-.146-.667-.237-.048-.016-.091-.036-.146-.053-.244-.091-.51-.19-.793-.3l-.149-.058c-.281-.109-.578-.225-.888-.349l-.084-.036c-.336-.132-.69-.273-1.057-.424l-.19-.079c-.364-.148-.74-.3-1.13-.456l-.118-.05c-.373-.152-.751-.306-1.138-.468l-.171-.071c-.406-.169-.815-.336-1.23-.51l-.289-.118q-.529-.224-1.068-.446c-.456-.188-.9-.376-1.353-.564l-.227-.091L335,351.871l-.146-.059c-.373-.158-.74-.306-1.1-.456-.062-.025-.126-.054-.19-.079-.364-.151-.722-.294-1.073-.437l-.255-.1c-.354-.143-.7-.281-1.023-.409l-.1-.043c-.3-.12-.589-.235-.863-.339-.056-.022-.112-.046-.165-.066-.281-.109-.547-.207-.787-.3-.05-.017-.1-.037-.148-.053-.238-.091-.465-.169-.659-.237l-.014,0-.026-.007-.317-.1a.963.963,0,0,0-.1-.028c-.067-.02-.132-.039-.188-.054l-.059-.015c-.07-.015-.135-.031-.182-.036h0a.506.506,0,0,1-.091-.011.54.54,0,0,1-.091-.017h-.008c-.036-.007-.076-.02-.115-.028a.367.367,0,0,1-.05-.016c-.081-.019-.169-.047-.263-.079-.019,0-.034-.011-.053-.016l-.014,0c-.188-.066-.4-.149-.638-.244l-.056-.023c-.236-.1-.493-.212-.768-.334l-.045-.02-.031-.017c-.21-.091-.429-.193-.652-.3-.057-.029-.109-.054-.166-.082-.227-.107-.456-.22-.7-.336l-.023-.009c-.249-.123-.507-.252-.768-.384l-.177-.091c-.252-.13-.51-.259-.771-.394l-.12-.062-.721-.373-.162-.087c-.263-.138-.527-.273-.787-.415-.062-.031-.12-.062-.182-.091-.238-.124-.471-.25-.7-.374l-.112-.059-.765-.413-.19-.1-.7-.379-.036-.02-.672-.364-.21-.116c-.2-.109-.393-.215-.575-.317l-.128-.07c-.169-.091-.331-.182-.479-.267l-.1-.056-.443-.246-.14-.079c-.123-.067-.238-.133-.336-.188h0l-.462-.259c-.611-1.093-12.2-21.757-19.8-35.581l-1.366-1.605-.042.011-.031.005-.073.02-.048.009-.109.024-.076.015c-.039.008-.084.013-.129.026l-.047.008-.034,0c-.12.019-.255.042-.406.062l-.062.009c-.166.019-.342.039-.532.056l-.091.009h-.073c-.2.014-.4.023-.617.026h-.138c-.138,0-.273-.005-.417-.014h-.163c-.059,0-.117-.011-.177-.014-.1-.009-.208-.017-.312-.029l-.047-.008c-.053,0-.1-.016-.154-.022-.084-.015-.171-.026-.255-.039l-.112-.026c-.056-.011-.112-.021-.168-.036s-.1-.02-.151-.035c-.067-.015-.135-.038-.2-.057-.054-.017-.109-.031-.162-.047-.022-.008-.047-.014-.07-.022-.091-.028-.171-.065-.255-.1-.067-.029-.135-.05-.2-.078l-.039-.017a4.422,4.422,0,0,1-.456-.232c-.19-.124-.4-.273-.6-.422-.047-.033-.091-.066-.143-.1-.2-.151-.414-.309-.638-.476-.07-.053-.146-.115-.219-.171-.2-.148-.4-.306-.6-.462-.238-.182-.485-.377-.74-.567-.047-.037-.1-.074-.146-.109-.224-.166-.456-.332-.686-.5-.05-.037-.1-.074-.151-.109-.263-.182-.535-.364-.809-.542-.062-.042-.124-.078-.182-.117-.261-.163-.527-.325-.8-.475a.852.852,0,0,0-.091-.053c-.289-.163-.586-.31-.888-.45-.07-.033-.14-.064-.21-.091a9.549,9.549,0,0,0-.95-.379c-.091-.029-.174-.051-.261-.078-.146-.046-.292-.091-.44-.129-.224-.058-.455-.109-.678-.148l-11.07-3.382c-.384-.117-.771-.227-1.165-.327h-.023c-.465-.118-.938-.218-1.415-.308-.148-.031-.3-.055-.449-.082-.336-.057-.672-.109-1.014-.154-.154-.019-.308-.043-.462-.058-.409-.048-.82-.085-1.233-.116-.078,0-.157-.013-.232-.017-.507-.031-1.018-.046-1.524-.046-.127,0-.252,0-.378.006-.494,0-.989.023-1.479.056-.14.011-.281.014-.421.025l-3.833-.659c-1.714-.9-34.29-18.072-35.438-23.155l.308-6.051c-1.662-2.015-6.682-7.926-9.748-9.556a7.471,7.471,0,0,1-.2-2.676l.347-6.822a15.89,15.89,0,0,0-4.079-10.791l-10.81-6.854c-.468-.4-9.229-7.889-9.159-9.263v-.091c-.19-.2-.4-.4-.614-.613l-.23-.215c-.151-.146-.3-.29-.466-.438l-.314-.286c-.146-.129-.289-.261-.437-.393-.118-.1-.24-.207-.364-.314l-.44-.382-.381-.319c-.154-.129-.305-.256-.462-.385-.128-.108-.263-.216-.4-.326-.157-.126-.311-.252-.471-.379-.135-.109-.273-.216-.409-.325-.157-.124-.313-.25-.474-.374-.14-.109-.28-.216-.42-.323l-.468-.356c-.143-.106-.283-.213-.425-.317s-.305-.23-.455-.34-.28-.2-.42-.306l-.456-.325c-.15-.107-.273-.182-.4-.282s-.3-.2-.443-.3-.261-.177-.389-.265-.283-.188-.421-.273-.246-.16-.364-.236c-.135-.091-.273-.17-.4-.25s-.23-.14-.343-.207-.247-.146-.364-.213-.21-.118-.311-.174-.224-.12-.331-.177l-.273-.137c-.14-.065-.28-.136-.406-.182s-.241-.1-.364-.161l-.163-.075-.118-.054c-.182-.084-.373-.177-.574-.273-.182-.091-.386-.182-.6-.273-.034-.017-.067-.034-.1-.048-.25-.114-.521-.235-.82-.359-.409-.2-.891-.424-1.412-.67-.091-.046-.19-.091-.286-.135-.182-.091-.373-.178-.568-.273-.1-.051-.213-.1-.32-.153-.182-.084-.373-.174-.56-.263-.128-.059-.255-.118-.384-.182l-.558-.259-.4-.182c-.2-.091-.406-.188-.611-.282-.12-.057-.241-.109-.364-.166-.273-.127-.547-.25-.82-.377-.056-.025-.109-.047-.165-.074-.311-.142-.622-.281-.93-.417-.1-.045-.193-.084-.289-.129l-.653-.285-.311-.135c-.213-.091-.423-.182-.63-.273l-.273-.118q-.433-.182-.84-.346l-.076-.03c-.241-.1-.476-.191-.7-.278-.078-.031-.151-.056-.227-.091l-.487-.182c-.076-.024-.151-.053-.221-.078a10.541,10.541,0,0,0-1.042-.314c-.034-.008-.067-.017-.1-.022a2.47,2.47,0,0,0-.364-.059c-.091-.008-.182-.016-.273-.028-.062-.008-.12-.015-.182-.028s-.132-.015-.2-.028c-.031,0-.065-.008-.1-.016-.078-.013-.157-.033-.235-.05l-.19-.042a.219.219,0,0,1-.053-.012c-.078-.02-.155-.045-.23-.067s-.159-.045-.238-.069l-.042-.013c-.042-.015-.081-.036-.126-.049-.129-.047-.255-.1-.375-.148a.661.661,0,0,1-.076-.029c-.059-.026-.109-.056-.165-.084s-.118-.058-.177-.091a2.656,2.656,0,0,1-.241-.143l-.151-.091c-.081-.058-.157-.118-.232-.177a1.067,1.067,0,0,1-.112-.091,3.206,3.206,0,0,1-.3-.283l-2.239,1.423c-.9-.477-1.88-.957-2.87-1.4h-.005c-.311-.14-.625-.278-.936-.413-.084-.036-.171-.073-.255-.107-.252-.107-.5-.211-.751-.311-.065-.028-.132-.055-.2-.08-.3-.12-.6-.235-.888-.344-.067-.026-.135-.047-.2-.074-.235-.084-.462-.166-.683-.241-.078-.025-.16-.054-.239-.082l-.524-.165c-.062-.02-.126-.042-.188-.059-.23-.066-.448-.128-.656-.182-.036-.012-.067-.015-.1-.025-.182-.046-.359-.082-.524-.116-.081-.016-.162-.031-.238-.041-.058-.012-.117-.022-.174-.029-.123-.016-.24-.03-.35-.036h-.026a2.619,2.619,0,0,0-.325,0l-.154,1.373-1.393-.38c-.281-.058-.547-.12-.81-.182-.076-.016-.146-.036-.221-.053-.177-.042-.356-.084-.524-.128h-.008l-.031-.005c-.328-.084-.63-.169-.925-.25-.061-.02-.123-.036-.182-.054q-.429-.127-.807-.251a.5.5,0,0,0-.048-.015c-.036-.011-.067-.025-.1-.036q-.261-.087-.5-.182c-.056-.019-.109-.041-.163-.061-.193-.077-.375-.152-.547-.23h-.005L133,198.2c-.266-.121-.5-.241-.717-.364l-.011-.005a5.79,5.79,0,0,1-.575-.378H131.7a4.132,4.132,0,0,1-.456-.4h0a3.663,3.663,0,0,1-.353-.413L121.521,195l-1.813-2.032.729-14.192,1.81,2.031,9.37,1.64a3.582,3.582,0,0,0,.351.415h0a4.514,4.514,0,0,0,.455.394l.008,0a5.846,5.846,0,0,0,.571.377l.011,0c.213.124.456.244.715.364l.02.008c.168.077.351.152.547.228l.162.063c.157.058.323.117.493.177.053.019.1.036.157.056.252.084.521.165.8.249.062.017.123.036.188.054.292.084.6.165.925.249l.039.012.437.107.311.076.807.182,1.393.375.151-1.372h.014c.05,0,.1,0,.159,0s.1,0,.148,0h.047c.081.005.168.015.258.025a.527.527,0,0,1,.073.012c.056.008.115.016.174.028l.154.023.085.019c.165.034.339.07.524.118a.792.792,0,0,1,.078.016l.023.006c.208.053.429.114.656.182l.188.058c.17.054.344.107.524.166.034.014.064.022.1.033s.091.034.139.048c.224.077.456.157.684.24.065.026.131.048.2.074q.437.165.891.345c.065.026.129.051.193.079.25.1.5.2.751.311.091.037.17.07.255.107.311.135.625.273.936.413h.005c.987.445,1.967.926,2.869,1.4l2.236-1.424a3.567,3.567,0,0,0,.3.287l.112.084c.076.059.151.12.235.177.047.031.1.062.151.091.078.051.157.1.238.144l.182.091c.078.039.154.076.238.111.12.052.247.1.378.146.056.02.109.043.168.063.076.025.157.047.235.069s.188.056.283.079c.065.017.129.028.19.041.112.026.221.048.333.068.065.011.132.019.2.028.148.022.3.045.456.059h.005a1.06,1.06,0,0,1,.123.01c.045.005.091.015.14.023.028,0,.062.016.091.022s.062.015.091.022a.977.977,0,0,1,.118.028c.109.028.23.059.356.1h0c.128.04.263.082.409.133l.154.053c.073.025.151.054.23.082.151.054.311.115.479.178.076.03.151.056.232.091.224.091.456.182.7.273l.078.032c.273.109.547.223.838.344l.273.118q.311.131.63.273c.1.046.207.091.311.135l.653.29.289.127q.462.2.925.415h.006l.165.075c.273.124.547.247.82.374.12.056.241.109.364.169.207.091.409.188.61.282l.4.182c.182.091.37.172.552.259.14.065.273.129.415.194l.493.23.4.19.456.213c.14.065.281.133.414.2l.63.3.02.008.711.34q.42.177.773.337l.05.022c.036.016.07.031.1.048l.6.273c.2.1.393.182.575.273l.12.057c.182.082.355.16.527.232.073.03.148.065.23.1a1.6,1.6,0,0,1,.174.091c.091.042.182.091.273.135s.216.116.328.178.2.112.311.173.24.14.364.216.227.133.344.2.261.162.4.25.244.151.364.235c.138.091.273.182.42.273s.258.172.39.262.294.2.443.3.266.182.4.282l.455.326c.139.1.273.2.42.3s.305.224.456.339.281.21.424.318.314.239.468.356.28.216.42.322c.159.124.316.25.474.373l.412.325.468.379c.132.109.266.217.4.326l.455.384.381.32c.151.129.294.256.44.381l.364.315c.148.131.292.264.437.393.1.1.213.194.313.285.162.149.314.292.468.438.073.074.154.146.227.218.221.213.432.423.624.622l-.005.14c.166,1.518,8.689,8.8,9.154,9.2l10.807,6.859c3.9,4.261,4.237,9.186,4.029,13.249l-.305,5.972a4.367,4.367,0,0,0,.2,1.038c3.615,1.918,9.964,9.817,10.3,10.232l-.328,6.407c4.385,6.039,33.287,21.273,34.9,22.123l3.833.662c.073-.008.146-.014.216-.02s.138,0,.2-.009c.493-.033.987-.049,1.482-.056.076,0,.151-.009.23-.009h.146c.507,0,1.018.014,1.524.046h.039c.064,0,.128.013.193.02.412.028.82.065,1.23.112.065,0,.127.008.19.016.091.011.182.028.273.042.339.045.675.091,1.014.154.091.017.19.028.282.045.057.009.109.025.163.037.476.091.95.19,1.415.309h.019c.4.1.784.209,1.166.325l11.07,3.382a.73.73,0,0,1,.084.015c.188.036.375.077.563.127l.031.008c.146.036.292.084.437.128.084.026.169.046.25.074l.015.005c.323.109.638.238.949.379.034.014.07.025.1.039s.073.039.109.056c.3.14.6.286.885.446.034.02.065.039.1.057.273.152.532.312.793.475l.188.118c.273.177.547.359.807.542l.151.109c.235.165.462.331.687.5.05.037.1.071.146.107q.383.286.742.567c.208.16.406.311.6.464.073.058.148.115.221.17.219.169.426.326.63.476.048.036.091.07.143.1.208.151.412.293.6.42a4.974,4.974,0,0,0,.49.248c.067.031.135.057.2.081.109.043.216.084.325.121l.159.047c.12.034.241.066.364.091.053.015.109.026.166.037.123.026.247.045.37.065.05.009.1.017.151.023.121.016.241.025.364.036l.174.016a1.59,1.59,0,0,1,.163.006c.143.005.28.012.417.012h.143c.216,0,.423-.011.619-.022.053-.005.112-.008.166-.012.193-.016.37-.036.532-.058l.062-.008c.151-.02.289-.041.409-.062l.076-.014.134-.026.073-.013c.039-.008.073-.015.1-.023l.056-.012.067-.016.036-.009.039-.011,1.366,1.6c7.607,13.827,19.19,34.495,19.8,35.583.056.032.219.121.463.259h0c.112.062.243.138.386.217l.059.033c.14.079.3.166.471.261l.124.068c.157.091.325.182.5.281l.07.036c.188.107.393.216.6.33l.2.114,1.412.769.182.1c.252.135.51.273.768.414l.1.053q.357.193.723.387l.165.091c.261.138.518.273.779.41l.19.1.72.374.1.047c.261.136.521.273.776.4l.182.091c.255.128.51.255.757.375l.039.02c.235.116.462.225.683.332.056.025.109.05.162.076.224.107.443.211.653.306l.076.033c.273.125.532.236.768.334l.059.023c.235.1.448.182.638.243.023.009.045.015.067.023.091.031.182.058.263.081.058.015.117.031.171.042h0a1.455,1.455,0,0,0,.182.029c.034,0,.076.011.12.02l.062.016.059.013a.278.278,0,0,1,.047.012l.14.043c.034.008.065.016.1.027.091.031.2.066.316.1l.026.008h.011c.2.067.421.148.659.236.051.017.1.033.148.052.243.091.507.191.787.3.056.02.115.045.171.066.273.1.555.215.854.334l.109.042c.325.132.67.273,1.02.413.084.034.168.067.252.1.356.143.718.292,1.093.446l.138.056,1.087.449c.076.03.154.062.233.1l1.177.487.336.14c.429.177.857.357,1.289.536.359.152.714.3,1.07.446l.286.118,1.239.516.148.063c.378.154.748.308,1.115.46l.171.069c.375.151.737.3,1.093.446l.227.091,1.031.415.112.045.855.334.168.065c.281.109.541.208.784.3.054.022.1.039.154.058.238.091.455.166.652.23l.017.008.034.012c.112.036.213.069.308.1a1,1,0,0,0,.1.029c.065.019.132.039.188.053l.057.015c.07.016.135.03.182.036l5.974-.834.034-.654v.021c.005-.084.011-.163.025-.248l-.019.34a3.086,3.086,0,0,0,.036.547l-.722,14.194v-.016l-6.046.842c-.031,0-.062.007-.094.009Zm400.2-87.977,69.883-26.1,29.777-11.15-.723,14.2-29.776,11.145-69.885,26.1ZM110.48,182.624c-.7-.87-14.082-17.429-15.069-18.457-.261-.294-1.314-1.822-2.746-3.935-1.407-.848-1.469-1.478-1.471-1.51a28.768,28.768,0,0,0-2.813-4.9.09.09,0,0,1-.026,0l-.112-.042-.036-.02-.011-.005-.028-.014c-.028-.014-.056-.029-.091-.048l-.118-.067c-.056-.03-.112-.062-.177-.1s-.159-.091-.247-.149-.154-.091-.241-.148-.21-.131-.322-.2l-.283-.182-.4-.259-.339-.223c-.143-.091-.294-.195-.448-.3-.126-.084-.25-.163-.381-.254-.166-.108-.339-.23-.513-.344l-.424-.287-.568-.386c-.151-.1-.3-.2-.456-.307-.2-.135-.406-.273-.61-.421-.165-.112-.322-.219-.493-.336l-.852-.587-.3-.2c-.4-.278-.813-.561-1.23-.854-.159-.108-.322-.223-.485-.336-.261-.182-.518-.364-.787-.547-.216-.151-.44-.305-.659-.455s-.44-.306-.664-.464l-.709-.5-.638-.442c-.216-.153-.432-.306-.65-.456-.255-.182-.507-.356-.765-.535l-.547-.386-.835-.589-.583-.413-.837-.589-.536-.38c-.273-.19-.538-.378-.807-.567l-.681-.483-.683-.483c-.213-.152-.426-.3-.638-.455-.266-.188-.529-.377-.793-.562l-.437-.31-.877-.623-.5-.356c-.232-.166-.455-.325-.687-.486s-.437-.313-.652-.466l-.5-.353-.683-.487-.455-.323c-.232-.166-.463-.327-.687-.488-.148-.107-.289-.2-.432-.31l-.538-.381c-.224-.162-.44-.314-.652-.466l-.258-.182c-.21-.148-.406-.292-.6-.43l-.3-.23c-.193-.141-.373-.273-.552-.4l-.2-.141-.547-.389-.109-.078c-.143-.1-.266-.191-.386-.278l-.163-.115c-.311-.226-.535-.385-.656-.476-1.975-1.434-4.282-3.462-4.4-3.572l-1.172-3.356-8.411-2.989-3.079-2.824-2.7-4.7L27.914,108.2l-4.393-2.341-2.057-1.06-6.548-.677L10.5,103.5l-2.454.208-3.587,1.784-3.063.258L0,104.764l.723-14.2,1.392.989L5.178,91.3,8.765,89.51l2.46-.208,4.416.621,6.548.676,2.056,1.06L28.638,94l8.837,6.041,2.707,4.706,3.079,2.824,8.411,2.989,1.166,3.354c.123.107,2.424,2.138,4.4,3.576.12.091.344.25.656.471l.163.118c.12.091.243.173.386.273l.112.082.532.382.266.19.485.345.389.278c.146.107.294.21.455.322l.5.364c.162.111.322.228.487.347l.4.283c.221.157.443.314.675.477.148.109.3.219.455.327.2.141.4.283.6.43s.406.29.613.435.429.305.647.455c.14.1.286.2.432.306l.888.631.4.287c.273.2.558.393.838.594l.507.357.875.624c.154.106.305.213.455.322l.9.638c.162.117.325.228.485.343.3.213.6.424.9.638.163.118.328.232.49.348q.441.309.883.619c.182.127.356.252.538.379.281.2.563.4.844.6l.547.384c.283.2.566.4.846.595l.538.376.779.547c.2.137.4.273.6.415.216.152.428.3.638.449.227.157.455.318.681.474.273.182.527.364.79.547l.482.337c.415.284.82.569,1.213.842l.417.286c.258.177.516.356.762.528l.406.273c.23.161.463.321.686.472l.455.312c.188.128.382.258.56.381l.423.287.516.345c.126.091.244.166.364.246.159.1.316.21.466.31.118.076.224.145.333.219.135.091.273.174.393.256.1.067.2.127.292.182l.316.2.241.148c.091.054.17.1.247.148s.123.071.182.1c.084.048.171.1.232.127l.014.006a.647.647,0,0,0,.171.065,28.774,28.774,0,0,1,2.813,4.9c0,.034.065.666,1.474,1.509,1.429,2.112,2.482,3.644,2.743,3.938.987,1.024,14.365,17.582,15.069,18.454l7.075,7.524-.722,14.194Zm547.45-45.175,4.382-4.314-.722,14.193-4.382,4.314Zm-68.9-23.822.722-14.193,3.892.289,3.755-1.3-.723,14.2-3.754,1.3Zm-4.693-27.3,1.709-1.134-.723,14.194-1.709,1.134Zm-21.545,4.263a6.149,6.149,0,0,0-.936-.57l.723-14.194c.091.045,1.342.668,1.32,1.087L563.177,91.1C563.185,90.946,563.015,90.763,562.793,90.588ZM6.081,87.227,6.8,73.032a9.455,9.455,0,0,1,.247,2.792L6.321,90.019a9.376,9.376,0,0,0-.241-2.792ZM7.2,72.333,7.92,58.139a10.96,10.96,0,0,1,.031,3.024l-.725,14.2A11.315,11.315,0,0,0,7.2,72.333ZM109.729,36.684,95.313,31.846A17.033,17.033,0,0,1,90.3,25.07L72.119,14.194,72.842,0,86.78,8.335l.151.091,4.1,2.452a17.031,17.031,0,0,0,5.01,6.775l14.416,4.838,3.595,2.155-.724,14.191Z" fill="#0b2720" opacity="0.53"/>
        </g>
      </g>
      <g id="_3D" data-name="3D" transform="translate(15.885 19.075)">
        <g id="Group_125025" data-name="Group 125025" transform="translate(0)">
          <path id="Path_126465" data-name="Path 126465" d="M130.568,283.169l-13.411-8.008-.7,13.64,17.5,10.453a16.356,16.356,0,0,0,4.823,6.509l13.874,4.651,3.462,2.069.7-13.639-3.462-2.07-13.874-4.646a16.345,16.345,0,0,1-4.828-6.51l-3.946-2.357" transform="translate(-47.041 -275.161)" fill="#646d75"/>
          <path id="Path_126466" data-name="Path 126466" d="M681.353,376.965l.7-13.64c.02-.4-1.184-1-1.271-1.043l-.7,13.64a6.009,6.009,0,0,1,.9.547C681.2,376.641,681.361,376.82,681.353,376.965Z" transform="translate(-139.289 -289.42)" fill="#646d75"/>
          <path id="Path_126467" data-name="Path 126467" d="M707.465,373.052l-1.644,1.089-.7,13.64,1.644-1.089Z" transform="translate(-143.387 -291.183)" fill="#646d75"/>
          <path id="Path_126468" data-name="Path 126468" d="M718.715,401.886l.7-13.64L715.8,389.5l-3.746-.279-.7,13.64,3.746.279Z" transform="translate(-144.408 -293.67)" fill="#646d75"/>
          <path id="Path_126469" data-name="Path 126469" d="M794.732,428.137l-4.217,4.146-.7,13.64,4.217-4.146Z" transform="translate(-157.249 -300.198)" fill="#646d75"/>
          <path id="Path_126470" data-name="Path 126470" d="M41.772,358.513l.7-13.64a10.5,10.5,0,0,0-.03-2.908l-.7,13.64A10.605,10.605,0,0,1,41.772,358.513Z" transform="translate(-34.812 -286.095)" fill="#646d75"/>
          <path id="Path_126471" data-name="Path 126471" d="M40.695,375.405l.7-13.64a8.976,8.976,0,0,0-.237-2.682l-.7,13.64a8.946,8.946,0,0,1,.237,2.682Z" transform="translate(-34.601 -288.897)" fill="#646d75"/>
          <path id="Path_126472" data-name="Path 126472" d="M125.99,436.078c-.251-.285-1.264-1.753-2.642-3.781-1.354-.814-1.414-1.42-1.418-1.452a27.505,27.505,0,0,0-2.707-4.709.619.619,0,0,1-.166-.062l-.012-.005c-.059-.029-.143-.077-.226-.123-.054-.03-.108-.061-.171-.1s-.154-.091-.238-.143l-.23-.142-.3-.193c-.091-.057-.182-.116-.282-.182l-.377-.246-.321-.21c-.143-.091-.3-.2-.449-.3l-.353-.236-.495-.332-.407-.273-.539-.364-.441-.3-.66-.456c-.13-.091-.256-.174-.389-.266l-.735-.506-.4-.273-1.169-.809-.465-.322-.759-.526-.657-.456-.617-.429-.575-.4-.752-.526-.516-.364-.82-.571-.527-.371-.812-.57-.517-.364-.848-.6-.474-.333-.869-.613-.468-.331-.867-.613-.443-.312-.843-.6-.486-.343-.806-.571-.385-.273-.856-.607-.415-.294-.621-.442-.589-.419-.579-.413-.443-.314-.648-.456-.383-.273-.469-.335-.487-.347-.434-.31-.376-.268-.466-.333-.254-.182-.515-.364-.107-.077-.373-.266-.157-.112-.63-.455c-1.9-1.38-4.118-3.332-4.234-3.434L83.194,398.2l-8.1-2.873-2.964-2.711-2.6-4.528-8.506-5.8-4.23-2.249-1.981-1.014-6.3-.65-4.251-.6-2.369.2-3.451,1.715-2.947.249-1.342-.952-.7,13.639,1.342.953,2.947-.249,3.451-1.715,2.369-.2,4.251.6,6.3.65,1.979,1.018,4.23,2.25,8.505,5.8,2.6,4.521,2.964,2.71,8.1,2.873,1.128,3.225c.117.1,2.333,2.054,4.233,3.434l.63.456.158.112.372.267.107.077.522.374.189.136.531.379.3.214.578.412.25.182.629.448.516.364.415.3.66.469.438.312.657.466.48.341.63.447.659.466.485.343.843.6.421.3.762.539.614.434.659.465.655.462.775.547.517.364.805.567.56.394.805.566.527.371.738.516.625.438.611.426.683.477.638.445.638.442.759.527.465.323,1.184.82.285.2.82.566.475.324.589.4.433.293c.182.126.373.253.547.373l.406.273.495.332c.128.087.246.164.364.245l.431.286.327.214c.13.086.26.17.38.248l.273.174.311.2.23.142.238.143.171.1c.036.019.081.047.112.065l.091.046.027.014.011.005.036.017.06.026a.307.307,0,0,0,.046.016h.025a27.473,27.473,0,0,1,2.708,4.709c0,.032.065.638,1.418,1.452,1.377,2.028,2.39,3.5,2.642,3.782.951.985,13.826,16.9,14.5,17.736l6.81,7.23.7-13.64-6.809-7.23C139.817,452.977,126.941,437.063,125.99,436.078Z" transform="translate(-33.456 -291.956)" fill="#646d75"/>
          <path id="Path_126473" data-name="Path 126473" d="M397.295,636.521c-.012.08-.018.158-.023.236a.118.118,0,0,1,0-.016l-.033.629-5.749.8c-.046-.005-.108-.019-.177-.035l-.054-.014c-.055-.015-.117-.032-.182-.051l-.091-.027c-.091-.027-.189-.059-.3-.091l-.034-.011-.015-.005c-.182-.063-.4-.139-.628-.223l-.148-.055c-.234-.091-.486-.182-.755-.286l-.16-.063q-.392-.152-.82-.322l-.108-.043-.992-.4-.22-.091-1.052-.43-.165-.067-1.072-.442-.144-.059-1.192-.494-.273-.115-1.029-.427-1.242-.517-.323-.135-1.132-.469-.223-.091-1.046-.432-.132-.055-1.05-.428-.242-.1-.984-.4-.106-.041c-.288-.115-.56-.221-.82-.322l-.166-.065q-.405-.157-.757-.287l-.143-.053c-.23-.085-.446-.161-.633-.225h-.012l-.025-.007c-.11-.037-.212-.07-.305-.1l-.091-.027-.135-.039-.047-.012-.056-.014-.061-.015c-.044-.009-.082-.015-.116-.021a1.3,1.3,0,0,1-.182-.026h0c-.049-.01-.107-.026-.163-.042q-.117-.032-.253-.078l-.066-.021c-.182-.062-.385-.141-.61-.233l-.057-.024c-.227-.091-.475-.2-.738-.321l-.076-.034c-.2-.091-.411-.189-.628-.292l-.156-.074c-.213-.1-.432-.208-.658-.318l-.039-.019c-.237-.117-.481-.239-.729-.364l-.177-.091q-.37-.182-.749-.381l-.091-.047-.693-.359-.182-.1-.75-.394-.16-.085-.7-.371-.1-.052-.74-.4-.182-.1c-.478-.259-.935-.508-1.361-.741l-.195-.107-.577-.317-.066-.036-.483-.268-.119-.066-.455-.251-.055-.03-.374-.209h0l-.444-.25c-.587-1.045-11.737-20.908-19.058-34.194l-1.334-1.549-.039.01-.033.007-.066.016-.054.012-.1.021-.07.014-.13.024-.074.014c-.116.02-.247.04-.393.06l-.06.007c-.158.021-.327.04-.513.056-.051,0-.108.005-.159.01q-.284.019-.595.024h-.138c-.131,0-.265,0-.4-.012a1.52,1.52,0,0,1-.158-.005l-.169-.015c-.116-.009-.23-.019-.347-.035-.049-.005-.1-.016-.147-.023-.118-.017-.237-.036-.354-.061l-.159-.035c-.117-.026-.231-.056-.346-.091-.051-.015-.1-.028-.154-.045-.106-.034-.21-.076-.312-.116-.066-.026-.131-.048-.2-.076a4.529,4.529,0,0,1-.47-.239c-.182-.12-.381-.259-.581-.4l-.138-.1c-.2-.145-.4-.3-.607-.455l-.213-.164-.579-.447c-.231-.182-.468-.36-.712-.547l-.14-.1c-.216-.16-.435-.322-.66-.48l-.147-.1q-.38-.265-.777-.52l-.182-.114q-.376-.236-.764-.456l-.091-.054c-.28-.154-.566-.3-.854-.43-.036-.016-.068-.036-.1-.053s-.066-.025-.1-.04c-.3-.133-.6-.257-.911-.365l-.015-.006c-.079-.026-.159-.046-.24-.071-.139-.043-.28-.091-.421-.125l-.029-.008c-.182-.046-.364-.086-.547-.119l-.081-.015-10.652-3.239q-.553-.17-1.122-.315h-.018c-.447-.113-.9-.209-1.366-.3-.053-.01-.1-.025-.156-.035-.091-.016-.182-.026-.273-.042q-.485-.085-.976-.149c-.091-.013-.178-.03-.267-.041-.06-.007-.121-.01-.182-.016q-.589-.068-1.184-.108c-.063,0-.125-.014-.188-.017h-.037c-.488-.029-.977-.042-1.468-.043h-.139c-.074,0-.148.007-.22.008-.476.005-.953.024-1.427.056a1.766,1.766,0,0,0-.2.007l-.208.016-3.691-.638c-1.549-.82-29.369-15.456-33.591-21.258l.314-6.158c-.322-.4-6.433-7.989-9.913-9.831a4.125,4.125,0,0,1-.188-1l.293-5.739c.2-3.9-.123-8.639-3.878-12.732l-10.4-6.589c-.446-.381-8.654-7.379-8.81-8.837l.006-.135q-.283-.29-.6-.6c-.07-.067-.148-.139-.22-.208-.148-.139-.292-.273-.448-.422-.1-.091-.2-.182-.3-.273-.139-.126-.273-.25-.42-.377l-.348-.3c-.141-.122-.28-.244-.424-.364-.12-.1-.244-.205-.364-.308-.148-.124-.292-.247-.443-.371q-.19-.156-.383-.311c-.15-.122-.3-.243-.456-.364-.13-.1-.262-.208-.394-.312-.151-.119-.3-.24-.456-.358-.135-.1-.273-.207-.4-.311-.15-.116-.3-.23-.451-.343l-.409-.3c-.148-.109-.3-.22-.443-.327s-.269-.195-.4-.291l-.437-.313-.388-.273c-.142-.1-.285-.2-.425-.292s-.251-.169-.377-.252-.273-.182-.4-.266-.238-.152-.354-.227-.257-.163-.382-.24-.22-.134-.33-.2-.238-.141-.352-.206-.2-.114-.3-.167-.215-.117-.316-.169-.182-.091-.267-.131c-.055-.026-.117-.06-.169-.084-.077-.035-.149-.067-.22-.1-.165-.068-.333-.144-.507-.224l-.116-.054-.553-.261c-.182-.086-.37-.174-.574-.268l-.1-.046-.046-.021c-.229-.1-.475-.211-.744-.324l-.685-.324-.02-.009-.607-.287-.4-.189-.435-.206-.385-.182-.475-.222-.4-.182-.53-.247-.385-.182-.588-.273-.349-.16-.791-.36-.159-.073h-.005l-.889-.4-.279-.123-.628-.273-.3-.129c-.2-.091-.406-.175-.607-.26l-.262-.112c-.273-.117-.547-.229-.807-.333l-.076-.03q-.347-.14-.67-.264l-.225-.086-.462-.17-.22-.077-.148-.053q-.209-.07-.394-.128h0c-.122-.036-.236-.069-.342-.1-.041-.011-.075-.016-.113-.026l-.091-.022-.091-.02c-.048-.009-.091-.016-.136-.022s-.082-.01-.118-.013h-.005c-.148-.014-.292-.034-.436-.055l-.189-.028c-.107-.019-.214-.041-.321-.065-.061-.014-.123-.025-.182-.04-.091-.023-.182-.05-.273-.077s-.153-.043-.228-.067c-.056-.018-.107-.04-.162-.059-.125-.045-.247-.091-.364-.142-.078-.035-.154-.07-.23-.107-.057-.028-.116-.056-.17-.087-.08-.044-.156-.091-.23-.137-.049-.03-.1-.059-.147-.091-.079-.054-.153-.111-.226-.169-.036-.027-.074-.055-.107-.083a2.958,2.958,0,0,1-.285-.273l-2.154,1.367c-.867-.456-1.81-.919-2.76-1.348H197.9q-.45-.2-.9-.4l-.245-.1q-.364-.154-.729-.3l-.182-.076q-.436-.173-.857-.331l-.192-.069q-.335-.123-.657-.232c-.045-.015-.091-.034-.136-.047l-.091-.03c-.173-.056-.341-.109-.5-.16l-.182-.056c-.219-.066-.429-.124-.63-.175l-.021-.005-.077-.016c-.177-.045-.343-.081-.5-.112l-.082-.018c-.053-.01-.1-.015-.148-.024l-.167-.026a.62.62,0,0,1-.07-.011c-.087-.011-.169-.019-.248-.024h-.046c-.048,0-.1,0-.144,0a1.417,1.417,0,0,0-.152.005h-.015l-.147,1.317-1.34-.364c-.273-.058-.527-.117-.777-.175l-.3-.073c-.142-.035-.287-.068-.422-.1l-.037-.01c-.316-.08-.609-.159-.89-.241l-.182-.051c-.273-.08-.534-.16-.775-.241l-.149-.052c-.167-.056-.324-.114-.476-.17l-.157-.06c-.182-.072-.364-.145-.524-.219l-.018-.008c-.253-.116-.482-.23-.688-.35l-.01-.005a5.429,5.429,0,0,1-.552-.364l-.006,0a3.963,3.963,0,0,1-.435-.378h0a3.348,3.348,0,0,1-.338-.4l-9.019-1.579-1.744-1.953-.7,13.64,1.745,1.952,9.019,1.58a3.43,3.43,0,0,0,.338.4h0a4.055,4.055,0,0,0,.435.378l.005.005a5.251,5.251,0,0,0,.552.364l.011.006a6.6,6.6,0,0,0,.689.35l.01.005h.005c.163.074.341.147.526.219.05.02.1.04.156.059q.229.091.478.172c.036.012.065.025.1.036l.046.015c.242.08.5.161.777.241l.182.051c.281.079.574.159.89.24l.027.007h.01c.161.041.333.081.5.122.073.017.14.036.214.052q.374.088.78.177l1.34.364.147-1.317a2.4,2.4,0,0,1,.312,0h.026c.1.006.218.019.336.036.053.006.109.016.166.026.075.012.151.026.23.041.159.032.327.068.5.112l.1.024c.2.051.411.109.629.175.059.017.122.038.182.056.165.05.332.1.506.16l.228.077q.321.109.658.231l.191.07q.422.157.857.331l.182.076q.359.146.729.3l.245.1q.45.193.9.4h.005c.951.429,1.894.889,2.76,1.347l2.155-1.366a2.972,2.972,0,0,0,.285.273c.034.029.072.056.107.084.073.057.146.114.225.169.046.031.1.06.147.091.076.046.15.091.23.137.056.029.113.056.17.086s.1.055.158.079c.023.011.049.018.072.028.118.051.239.1.364.142.042.015.079.034.122.047l.04.012c.075.025.152.046.229.067s.145.046.22.065l.053.012c.06.015.122.026.182.04.077.016.15.036.228.049l.091.015c.062.011.126.02.189.029s.117.019.176.026c.087.011.172.019.26.027a2.382,2.382,0,0,1,.347.055c.03.006.062.014.091.022.273.064.61.168,1,.3l.214.076q.226.08.47.173l.218.082q.325.126.675.267l.073.029c.26.106.531.218.807.333l.263.111.607.26.3.129.628.273.279.123.894.4.159.072.791.364.349.159.588.273.385.182.536.249.364.172.54.253.309.146.547.258.273.128,1.361.645c.289.12.547.236.791.345l.1.047c.2.091.4.182.577.268q.292.139.553.26l.115.053.156.072c.118.054.236.106.352.153s.255.116.39.182c.087.042.174.085.266.132s.209.109.316.169l.3.167c.1.058.231.136.352.207s.217.128.329.2l.383.239c.13.082.233.148.353.227l.4.265c.136.089.25.167.377.253s.282.194.425.292l.387.273c.145.1.291.208.437.313s.269.192.4.292.294.217.442.327.273.2.409.3.3.229.451.344c.135.1.273.206.4.311.152.118.3.239.455.358l.394.312.451.364c.128.1.257.208.383.312.15.124.3.247.444.371.122.1.247.2.364.308.145.123.283.245.424.364.117.1.235.2.348.3.145.128.281.252.42.378.1.091.207.182.3.273.156.143.3.281.447.422.073.068.15.139.22.208q.312.3.591.588v.083c-.066,1.322,8.365,8.517,8.817,8.9l10.4,6.59A15.25,15.25,0,0,1,256.6,545.1l-.334,6.559a7.153,7.153,0,0,0,.195,2.574c2.953,1.562,7.784,7.246,9.383,9.183l-.3,5.814c1.1,4.883,32.454,21.383,34.1,22.251l3.69.638c.135-.011.273-.015.4-.024q.71-.048,1.425-.056c.12,0,.241,0,.364,0q.734,0,1.467.044c.075,0,.148.013.223.017q.6.041,1.184.108c.149.016.3.037.446.056q.49.065.976.149c.144.026.289.048.432.076.456.091.911.182,1.366.3l.021.005q.568.143,1.121.315l10.659,3.249c.22.037.436.086.652.142.143.036.283.082.425.126.083.025.168.047.25.076.311.106.615.23.911.364.067.029.136.059.2.091.29.135.576.273.855.432.03.016.059.035.091.051.261.146.516.3.769.456l.182.112c.264.169.525.343.778.521l.147.1c.225.159.445.32.66.479l.14.1q.366.273.712.547l.58.447.212.164c.21.16.412.313.608.455l.138.1c.2.146.4.284.582.4a4.4,4.4,0,0,0,.432.223l.038.015c.065.028.129.051.195.076.081.033.162.068.245.1l.067.02c.052.016.1.03.156.046s.132.041.2.057c.048.013.1.021.146.032l.16.036.109.024c.081.015.162.026.243.037l.148.023.046.006c.1.013.2.019.3.027.056,0,.115.012.17.015h.158c.136.005.273.011.4.012h.138c.206,0,.4-.011.593-.024h.068l.091-.007c.182-.015.355-.035.513-.055l.061-.007c.146-.02.273-.04.392-.06l.03,0,.046-.008.125-.024.073-.015.107-.022.044-.01.072-.017.029-.006.039-.01,1.32,1.541c7.321,13.286,18.471,33.149,19.057,34.194l.445.25h0l.326.182.133.074.425.237.1.056.463.256.123.067.553.3.2.111.648.353.034.018.671.364.182.1.737.4.107.057.677.36.172.091.758.4.159.083.692.359.115.059q.376.193.743.378l.169.086c.251.127.5.25.739.365l.021.01c.23.113.451.22.668.323l.159.076c.217.1.426.2.628.291l.032.015.043.018c.263.118.512.228.74.322l.055.022c.226.091.433.172.613.235l.015.005.05.015c.091.03.177.056.253.077l.049.015.11.026h.007c.032.006.062.013.091.016l.086.009h0c.046.005.108.019.176.035l.056.015c.055.014.117.032.182.051l.091.027c.091.028.194.061.3.1l.025.008.016.005c.182.063.4.14.632.225l.143.053q.353.13.759.287l.159.062c.263.1.539.21.832.326l.1.04c.313.125.644.258.984.4l.245.1,1.034.422.182.076,1.057.436.141.057,1.212.5.22.091,1.3.541,1.029.428.273.115,1.184.491.164.067,1.093.451.115.047c.373.153.733.3,1.086.443l.182.076c.352.142.692.28,1.015.408l.082.033c.3.118.584.23.854.335l.143.056q.41.159.764.291l.139.051c.233.086.455.164.638.228h.006l.054.017.273.091.1.028c.045.014.091.028.131.038l.047.012.056.015.058.015c.045.009.084.016.117.021l5.819-.811v.018l.7-13.64a2.8,2.8,0,0,1-.034-.529Z" transform="translate(-56.007 -308.785)" fill="#646d75"/>
          <path id="Path_126474" data-name="Path 126474" d="M961.321,552.1l-67.263,25.089-.7,13.64,67.263-25.089,28.659-10.711.7-13.64Z" transform="translate(-174.196 -318.735)" fill="#646d75"/>
          <path id="Path_126475" data-name="Path 126475" d="M825.84,586.289l-.107,2.071-51.581,11.734c-1.731.266-40.175,6.707-43.721,7.006-.114.01-.239.023-.372.038l-.146.018-.28.036c-.063.008-.131.019-.2.029l-.282.043-.22.036-.3.052-.061.01-.091.016c-.284.051-.58.107-.9.168h-.006c-.315.062-.649.131-.991.2l-.169.038c-.331.071-.673.147-1.025.226l-.206.047c-.364.082-.729.168-1.108.258l-.146.035q-.567.137-1.154.282l-.091.023c-.4.1-.806.2-1.215.311l-.213.056q-.6.158-1.21.322l-.22.061q-.624.17-1.249.347l-.114.034q-.611.175-1.219.354l-.139.041q-.611.182-1.211.364l-.22.068q-.592.182-1.166.374l-.19.063c-.394.129-.782.26-1.159.392l-.059.021c-.365.128-.722.257-1.07.384l-.147.055c-.341.127-.668.253-.985.38l-.182.072q-.466.189-.892.375l-.132.059c-.292.13-.572.26-.828.386l-12.9,6.545-.091.065-.072.051-.128.091-.1.076-.177.127-.153.11-.222.162-.182.135-.263.2-.22.166-.3.228-.25.19-.337.261-.281.22c-.118.091-.241.189-.364.287l-.3.239-.424.342-.291.235c-.169.138-.344.285-.521.432l-.235.2q-.389.326-.792.674l-.12.1c-.23.2-.463.4-.7.612-.1.085-.193.173-.29.26-.182.165-.364.33-.555.5l-.338.313q-.26.24-.521.486l-.364.345c-.114.108-.227.214-.341.324-.04.039-.08.082-.12.121-.371.364-.741.729-1.11,1.11q-.476.5-.944,1.011c-.1.112-.2.228-.3.341-.21.233-.416.465-.621.7-.118.137-.232.273-.349.414-.182.218-.364.435-.547.656-.121.149-.24.3-.358.456q-.253.32-.5.643c-.052.068-.107.136-.159.2-.091.118-.169.236-.253.353-.1.133-.193.266-.287.4-.149.212-.293.426-.436.638-.081.122-.165.243-.243.365-.166.258-.323.515-.478.774-.048.081-.1.161-.149.242q-.286.489-.547.982l-.036.07-7.261,12.82-.083.067-.044.035-.131.1-.082.061c-.059.044-.129.091-.2.147-.032.023-.061.044-.1.066-.108.075-.232.157-.371.244l-.091.056c-.126.078-.264.162-.413.25l-.106.062c-.178.1-.371.21-.578.32-.045.025-.091.048-.138.073q-.283.149-.6.3l-.131.065q-.374.178-.8.364c-.064.028-.13.056-.2.084q-.39.166-.82.332l-.142.056c-.325.124-.671.247-1.03.364l-.26.087q-.506.167-1.056.331l-.143.043c-.4.117-.833.23-1.275.342l-.324.079c-.43.1-.873.206-1.337.3l-.106.023c-.5.1-1.026.2-1.567.288l-.3.05c-.531.086-1.079.164-1.649.236-.091.012-.188.022-.28.033-.606.073-1.226.139-1.875.194-.445.037-.911.066-1.377.091-.2.011-.385.026-.585.036-.6.029-1.216.051-1.85.062-.1-.012-.194-.02-.282-.025H651.8c-.065,0-.119,0-.176,0h-.368c-.091-.03-.175-.06-.261-.091s-.16-.057-.235-.086l-.169-.067c-.071-.028-.14-.056-.207-.086-.045-.019-.091-.039-.13-.059-.108-.05-.21-.1-.3-.151l-.069-.036c-.111-.062-.214-.126-.31-.19-.025-.016-.046-.033-.069-.048q-.108-.077-.2-.156l-.069-.056c-.077-.067-.153-.136-.221-.2l-.831-.638a5.9,5.9,0,0,0-.7-.382c-.027-.013-.049-.029-.078-.042q-.216-.1-.448-.182l-.949-.394c-2.25-1.231-3.233-1.743-3.744-2.055l-22.038,1.857-.987.084H594.5l-.911.005h-1.152l-.781.005h-.222l-.57.005h-.182l-.616.008h-.146l-.507.008h-.045c-.164,0-.309.006-.44.011h-.091c-.125,0-.24.007-.328.012-.326.012-.654.012-.981.011-.486,0-.972-.013-1.458-.041l-.646-.015h-.223l-.554-.013-.247,0-.733-.013h-.122l-.887-.012h-.3l-.679,0h-1.791c-.324,0-.653,0-.995.006l-.518.006c-.3,0-.608.008-.924.015l-.615.013c-.306.005-.617.014-.935.022l-.668.019c-.324.009-.656.02-.992.032l-.7.026c-.349.014-.707.029-1.067.046l-.722.032c-.384.018-.781.039-1.179.061l-.71.037c-.474.026-.962.057-1.458.091l-.524.033q-1.022.067-2.1.148h-.029q-.966.073-1.973.157c-5.087.428-10.965,1.093-17.655,2.1-1.937.209-3.691.4-5.284.56-4.163.5-7.211.844-9.431,1.03-.293.026-.565.046-.831.066l-.3.02c-.182.013-.354.024-.521.033l-.265.015c-.182.009-.365.016-.53.023l-.154.005c-.214.006-.413.009-.6.01h-.1q-.217,0-.41-.007l-.137-.005-.273-.018-.194-.017c-.114-.013-.221-.026-.318-.044h-.017a2.865,2.865,0,0,1-.312-.075c-.145-.014-.273-.032-.394-.05-.052-.007-.107-.015-.156-.024-.131-.023-.256-.047-.365-.076-.209.052-.387.1-.555.148-.146.04-.282.073-.422.1-.059.012-.117.024-.177.032-.251.016-.48.026-.7.034h-.553c-.159,0-.312-.005-.455-.013-.091,0-.177-.007-.261-.014s-.182-.016-.273-.025l.23-4.521a10.3,10.3,0,0,0-.875,1.427c-.091.182-.182.364-.279.555-.027.056-.055.111-.084.167a5.25,5.25,0,0,1-.441.711l-.046.062a4.113,4.113,0,0,1-.941.879l-.025.016-.008.162-.17-.049-.7,13.64c.469.128.956.26,1.442.415l.19.035c.19.036.384.067.576.091l.138.018c.057.006.118.009.177.016.127.014.256.026.387.036.035,0,.067.007.1.009.051,0,.109,0,.162.005.147.006.3.011.456.013H523c.221-.006.451-.016.7-.034.043-.005.085-.013.127-.02a.27.27,0,0,0,.051-.012c.138-.026.273-.06.422-.1.168-.045.345-.1.556-.148h0c.091.024.193.046.3.066l.065.01.158.024c.053.008.11.018.173.026s.145.016.221.025c.034.011.07.02.107.03.062.016.128.03.2.044h.018c.078.014.159.026.249.037l.067.005c.062.006.129.012.2.016s.1.011.155.015a.973.973,0,0,1,.115,0l.137,0c.128.005.262.007.406.008h.136c.177,0,.364,0,.565-.01l.154-.005c.169-.005.344-.014.53-.023l.265-.015q.251-.014.521-.033l.3-.021.175-.012q.315-.024.657-.053c2.219-.188,5.267-.528,9.43-1.03,1.588-.165,3.342-.353,5.284-.56,6.69-1.008,12.572-1.67,17.654-2.1q1.026-.091,2-.159,1.066-.082,2.083-.149l.562-.035,1.421-.091.709-.037c.4-.022.794-.043,1.184-.061l.721-.033,1.067-.045.707-.025c.333-.012.661-.023.984-.032l.675-.019.933-.023.614-.013.911-.014.538-.007c.333,0,.655,0,.972-.006h1.788l.711,0h.285l.889.012h.131l.71.013.273.005.537.012.223,0,.647.016c.485.028.97.038,1.458.041h.165c.273,0,.547-.005.82-.015.091,0,.2-.008.329-.012h.091c.132,0,.273-.007.442-.011h.036l.528-.009h.126l.642-.008h.122l.638-.006h.162l.859-.006h.033l.947-.005h.071l1.056,0h.026c.729,0,1.506-.006,2.309-.009h22.325l.988-.083,22.037-1.857c.511.313,1.494.824,3.744,2.055l.95.4c.182.066.355.145.526.225a5.874,5.874,0,0,1,.7.382l.831.638c.068.069.143.138.221.2.022.019.045.037.069.057.064.053.132.1.2.155l.069.049c.1.065.2.128.311.19.022.013.046.025.068.036.091.051.2.1.3.151.021.01.037.02.058.029l.077.032.2.085.171.067c.076.028.155.056.236.085.042.015.078.03.122.045l.138.046h.54a4.673,4.673,0,0,1,.477.031c.638-.011,1.249-.033,1.85-.062.2-.01.388-.025.583-.036.309-.018.624-.034.923-.055l.456-.036c.649-.055,1.269-.121,1.874-.194l.28-.033c.569-.072,1.118-.151,1.649-.236l.3-.05c.132-.023.269-.043.4-.066.4-.071.789-.146,1.167-.222l.113-.025c.462-.091.9-.2,1.331-.3l.326-.079c.442-.111.868-.225,1.275-.342l.148-.045c.364-.107.713-.218,1.049-.329l.261-.087c.359-.122.7-.245,1.028-.364l.148-.058c.285-.109.555-.22.813-.329l.2-.086c.281-.121.547-.241.8-.36l.133-.066q.318-.154.6-.3l.143-.075q.311-.166.577-.32c.037-.021.07-.041.107-.063q.22-.129.408-.248l.091-.057c.119-.077.231-.149.328-.215l.039-.027.1-.07.2-.143.084-.063.129-.1.046-.036.081-.066,7.262-12.82q.273-.528.58-1.053c.046-.08.1-.159.147-.24.155-.26.312-.517.479-.775.079-.123.163-.245.245-.364.142-.213.286-.427.435-.638q.142-.2.288-.4.2-.28.412-.558.244-.322.5-.642l.358-.455c.182-.221.364-.438.547-.656l.349-.415c.206-.239.415-.473.626-.708.1-.111.2-.224.3-.334q.468-.515.944-1.013.556-.57,1.112-1.111c.151-.147.3-.3.455-.44l.364-.353c.173-.163.345-.322.517-.483.114-.1.228-.211.341-.314.182-.169.364-.331.547-.492l.3-.273c.233-.208.463-.408.691-.6l.126-.109q.4-.348.791-.672c.086-.073.168-.139.253-.21l.506-.418.282-.23.435-.351.286-.227.378-.3.273-.216.333-.258.255-.195.3-.225.22-.166.264-.2.182-.135.222-.162.153-.11.177-.127.1-.075.155-.109.039-.027.1-.068,12.9-6.538c.256-.127.537-.257.828-.386l.132-.059c.282-.124.581-.249.892-.374.059-.025.118-.048.182-.072.316-.127.643-.253.985-.381l.147-.054q.516-.191,1.06-.382l.072-.026c.373-.13.759-.26,1.149-.389l.2-.067q.571-.187,1.161-.372l.22-.068q.6-.187,1.211-.364l.141-.042q.6-.182,1.2-.351l.132-.038c.414-.118.829-.232,1.242-.345l.221-.061c.4-.11.809-.219,1.21-.322l.213-.056c.409-.107.82-.21,1.215-.311l.091-.024q.588-.146,1.154-.281l.146-.036q.567-.134,1.107-.258l.207-.046c.353-.079.7-.156,1.031-.226l.157-.034c.345-.073.681-.142,1-.2h.006c.317-.062.614-.117.9-.168l.146-.026.3-.052.221-.036.292-.045.182-.027c.1-.015.195-.026.288-.037l.138-.018c.133-.015.258-.028.372-.037,3.545-.3,42-6.741,43.721-7.005l52.157-11.862.107-2.085c1.177-.29,2.4-.609,3.661-.98l.7-13.64c-.729.215-1.458.415-2.163.6S826.511,586.131,825.84,586.289Z" transform="translate(-112.893 -325.898)" fill="#646d75"/>
          <path id="Path_126476" data-name="Path 126476" d="M506.355,663.532c-.209.254-.417.507-.638.761q-.257.294-.547.577c-.069.069-.141.137-.213.2s-.156.143-.237.213-.176.145-.267.216-.173.134-.264.2c-.158.111-.317.22-.493.323a6.413,6.413,0,0,1-.644.316c-.065.028-.129.053-.195.078-.159.063-.32.119-.481.169-.066.02-.131.042-.2.059-.213.059-.428.11-.646.148h-.018c-.249.044-.5.076-.754.1-.338.028-.684.035-1.033.029-.086,0-.171,0-.257-.008-.334-.012-.67-.032-1.009-.068l-.182-.022q-.547-.069-1.1-.171l-.456,8.9-.155,2.1a4.109,4.109,0,0,0-.324.38c-.011.015-.017.03-.029.045s-.035.046-.049.067l.441-8.637a.457.457,0,0,1-.017.086l-.078.364-1.8.015-.7,13.64,1.448-.012-.408,7.994c-.476.268-.865.487-1.093.622-.067.037-.129.076-.19.117-.039.026-.067.056-.1.084s-.087.066-.125.1c-.02.017-.046.034-.065.052a1.693,1.693,0,0,0-.162.182l-.012.014h0a1.338,1.338,0,0,0-.118.188,1.032,1.032,0,0,0-.04.1c-.006.016-.015.031-.02.047s-.013.027-.017.041a1.21,1.21,0,0,0-.043.188c0,.029-.006.059-.008.091l-.017.342-1.439,1.5-2.6.69-2.637-.014c-.135-.182-2.7-3.683-5.557-7.232a1.425,1.425,0,0,0-.142-.28c-.018-.028-.041-.058-.062-.091q-.079-.112-.168-.215c-.027-.032-.055-.064-.085-.1q-.119-.128-.263-.26l-.056-.055c-.118-.107-.251-.218-.391-.328-.038-.031-.08-.062-.12-.091q-.163-.126-.342-.253l-.158-.111c-.127-.091-.259-.178-.4-.267l-.129-.086q-.273-.176-.566-.353l-.13-.078c-.158-.091-.319-.19-.484-.285l-.2-.117c-.156-.091-.312-.177-.474-.264l-.182-.1q-.329-.18-.669-.359l-.06-.032q-.313-.164-.631-.326l-.209-.107-.513-.257-.21-.1c-.213-.106-.427-.209-.638-.311l-.054-.026q-.352-.169-.7-.332l-.195-.091-.489-.228-.229-.106-.491-.223-.121-.056-.034-.016-.644-.289-.166-.073-.483-.212-.139-.061-.552-.24-.064-.026-.424-.182-.154-.066-.327-.138-.065-.026-.343-.143-.023-.01-.227-.091-.045-.017-.117-.047-4.541-9.738-2.073.1-15.058-5.083-.7,13.64,15.059,5.083,2.074-.1,4.541,9.738.117.048.046.018.19.078.075.031.311.129.113.047.289.121.159.067.424.182.064.027.539.234.169.073.475.21.149.066c.21.091.429.19.652.291l.145.066.508.231.216.1.495.23.195.091.692.329.081.039.617.3.216.107q.251.124.5.251l.222.113c.2.1.407.209.608.314l.082.043q.336.177.662.355l.194.108c.158.086.312.173.465.26l.206.118q.247.143.483.284l.13.078c.2.118.384.238.566.354l.131.091q.2.133.393.265l.159.113c.117.085.23.168.338.25l.123.091c.14.111.273.22.391.328.02.017.036.035.056.053q.144.134.264.261c.03.033.057.066.086.1.064.074.118.145.169.215.021.03.043.059.061.091a1.437,1.437,0,0,1,.142.279c2.864,3.553,5.427,7.049,5.563,7.233l2.636.013,2.6-.689,1.484-1.549.027-.547c.006-.022.006-.045.015-.066s.014-.031.02-.046a1.329,1.329,0,0,1,.162-.289l.012-.014a1.792,1.792,0,0,1,.226-.235c.039-.036.082-.068.126-.1a2.419,2.419,0,0,1,.292-.2c1.178-.69,6.5-3.618,6.782-3.772l2.034-1.711.7-13.64-2.033,1.712c-.2.108-2.87,1.578-4.857,2.686l.273-3.649.364-7.174q.516.094,1.033.16h.035l.173.021q.349.037.692.059c.107.005.21.005.316.009.086,0,.172.006.259.007.067,0,.137.006.2.006.252,0,.5-.01.75-.029l.08-.005c.253-.022.5-.053.75-.1h0l.023,0c.216-.038.43-.091.638-.148.066-.018.129-.039.195-.059.162-.049.323-.107.484-.169.065-.025.128-.05.193-.077a6.637,6.637,0,0,0,.645-.316q.2-.117.382-.24c.039-.026.073-.057.111-.084.091-.066.182-.131.263-.2.058-.046.121-.091.178-.136l-.066,1.275c-.005.086-.006.177-.005.273l.079-1.556c.029-.025.055-.05.083-.075.081-.07.159-.141.237-.212.044-.041.091-.08.134-.121s.052-.056.079-.084c.19-.189.371-.381.541-.576.091-.1.182-.209.268-.313.127-.151.251-.3.375-.456.112-.135.226-.273.339-.4l.7-13.64c-.067.077-.133.157-.2.235Z" transform="translate(-100.825 -338.658)" fill="#646d75"/>
        </g>
      </g>
      <g id="Map-Areas" transform="translate(16.586 0)">
        <g id="Group_125036" data-name="Group 125036">
          <path id="Path_126511" data-name="Path 126511" d="M318.042,304.415l10.445-4.614,8.076-13.952.424-.455,8.6-5.735.758-.23h24.978l10.659-20.422a32.436,32.436,0,0,0-4.809-6.044,37.877,37.877,0,0,0-7.438-5.582c-2.056-1.127-2.958-1.571-3.889-1.991a53.818,53.818,0,0,0-10-3.139c-3.526-.762-7.144-1.361-10.681-2.27a27.751,27.751,0,0,1-5.809-2.161,13.07,13.07,0,0,1-1.615-1.049,14.945,14.945,0,0,1-3.3-3.8c-.446-.672-.881-1.348-1.374-2.01a28.831,28.831,0,0,0-8.669-7.341,43.216,43.216,0,0,0-4.168-2.117q-.754-.334-1.536-.65c-.883-.355-1.789-.668-2.71-.956-2.156-.677-4.39-1.234-6.54-1.944a11.266,11.266,0,0,1-2.193-.968,6.577,6.577,0,0,1-.925-.655l-2.8.048-2.377.737-.05.172,1.054,1.158.535,2.76-1.961,3.224-11.713,4.993-1.86,1.176.946.2c2.755.588,3.8.812,4.227.957l.006-.029.182.04.123.17,1.139,2.047-1.351,1.389-5.739,2.114-2.162,1.255-4.772,3.8-8.775,5.317-4.309,4.865-8.761-.413L253.7,255.2l-2.51,1.044-5.642.22-.175-.173-1.426-1.674.62-2.651-.237-.529-1.6-.671-6.127-.859V249.9h-.011l.166-.5,2.326-5.64-.273-1.075-.331-.208-4.241.638-10.55,3.239-1.725-.638-.012-.049-.069-.159-.547-1.832-.552-.017L213.923,245l-.066-.169c-.46-.211-2-.9-3.495-1.562-3.351-1.492-4.492-2-4.878-2.26l-.033.042-1.9-1.494-3.805.678c2.059,1.9,4.089,3.639,4.305,3.826l10.4,6.587c6.559,7.15,2.642,16.251,3.771,19.472,3.48,1.842,9.592,9.432,9.913,9.831l-.826,5.165c1.1,4.883,32.453,21.382,34.1,22.25L265.1,308a25.262,25.262,0,0,1,9.428.985l10.659,3.248c3.667.638,6.8,3.81,8.893,5.176a7.13,7.13,0,0,0,4.106.716,9.651,9.651,0,0,0,1.53-.241l1.318,1.54c2.221,4.03,6.341,11.443,8.864,15.974,5.2,9.324,9.822,17.56,10.195,18.22.568.32,11.351,6.394,13,6.485,1.7.218,17.777,7.395,19.456,7.6l5.819-.809h.017a2.77,2.77,0,0,1,.049-1.176h0c.411-1.4,1.766-2.551,3.5-3.547l.026-.019-1.41-1.064,5.49-7.279,2.337-5.061-2.186-7.652H349.711l-12.22,6.32-3.389,2.542a1.367,1.367,0,0,1-1.886-.239l-3.838-4.785a1.366,1.366,0,0,1-.3-.855v-4.354a1.366,1.366,0,0,1,.911-1.287l6.411-2.287v-2.381h-5.952a1.366,1.366,0,0,1-1.366-1.366v-7.234l-19.441-.1-1.458-14.651.781-1.235Z" transform="translate(-17.779 -19.255)" fill="#4789c8"/>
          <path id="Path_126512" data-name="Path 126512" d="M188.138,230.829c4.8-.867,6.377-1.174,6.551-1.174h.348l.036.182,2.417,1.887,7.5,3.344,6.153-1.2,2.642.083.013.042.1.258.638,2.122c.985-.269,4.17-1.261,6.366-1.945a33.735,33.735,0,0,1,3.523-1.057l1.438-.221c2.369-.364,3.454-.528,3.644-.528h.248l.068.117,1.766,1.1.729,2.831L230.7,240.6l.608.091c1.661.242,2.354.343,2.667.414a11.994,11.994,0,0,1,2.083.834c.331.138.578.242.61.256l.2.049.032.165.911,2.04-.509,2.186,3.9-.152,1.938-.807,4.611-3.18,8.411.394,3.881-4.324,8.906-5.388,4.795-3.826,2.522-1.449.01.017c.194-.1.63-.261,1.686-.648.714-.261,1.612-.592,2.339-.86l-.312-.066c-2.182-.461-3.2-.676-3.669-.831v.015H276.3c-.206,0-.234-.031-1.682-1.63-.21-.231-.391-.432-.5-.541l-.927-.166,5.278-3.312,11.1-4.744,1.049-1.731-.221-1.142-1.518-1.67.8-2.789,4.112-1.241,1.97-.016c.19-1.718,1.965-3.255,3.406-4.659a11.232,11.232,0,0,0,2.411-3.072,4.76,4.76,0,0,0,.446-1.527c-.389-4.794-5.179-8.407-10.194-10.973-5.876-3.006-13.075-4.965-20.348-6.416q-1.66-.331-3.332-.616a138.86,138.86,0,0,0-20.047-1.868c-7.9-.182-15.544-1.656-23.381-2.291-5.689-.462-11.864-.74-17.017-2.512-6.407-2.2-7.835-6.628-7.949-10.5-.066-3.644.788-7.091-.372-10.47a10.423,10.423,0,0,0-1.118-2.26,11.306,11.306,0,0,0-6.189-4.486,13.462,13.462,0,0,0-4.869-.668,42.6,42.6,0,0,0-4.689,1.221,13.93,13.93,0,0,1-1.986.308,19.327,19.327,0,0,1-2,.057,47.387,47.387,0,0,1-9.572-1.526,38.261,38.261,0,0,1-6.216-1.532q-2.476-.631-4.944-1.275c-4.157-1.071-8.326-2.122-12.614-3a214.669,214.669,0,0,0-22.1-3.436,119.967,119.967,0,0,0-21.425-.314q-2.307.194-4.574.508c-.885.125-1.974.243-3,.418.23,2.836.973,3.785,1.765,4.637,1.582,1.705,3.456,3.336,5.2,4.987q22.1,20.843,46.3,40.945a48.373,48.373,0,0,1,5.544,4.7c1.228,3.769-.046,4.965-2.043,5.921a24.123,24.123,0,0,1-2.262.911,99.252,99.252,0,0,1-15.1,3.562q-1.525.273-3.064.519c-1.739.281-3.5.547-5.259.78v.009l-.063,1.892.229.256,9.019,1.58c.794,1.1,2.448,1.969,6.735,2.9l1.339.364.147-1.317c1.568-.131,6.267,1.723,9.748,3.566l2.153-1.367A5.557,5.557,0,0,0,158.034,212c1.656.1,9.678,3.925,13.077,5.534,1.184.495,1.93.9,2.642,1.2,2.612,1.085,9.034,5.929,12.085,9.063-.153.4.885,1.619,2.3,3.039" transform="translate(-8.375 -11.963)" fill="#4789c8"/>
          <path id="Path_126513" data-name="Path 126513" d="M112.845,195.47c1.807-.241,3.3-.491,4.764-.75,4.729-.844,8.629-1.667,12.511-2.517,3.083-.681,6.311-1.3,9.262-2.144,1.614-.455,3.132-1.13,3.3-2.08a10.042,10.042,0,0,0-2.356-2.749c-3.644-3.108-8.071-5.428-11.509-8.179-5.289-4.3-9.449-8.413-13.8-12.384-8.326-7.512-15.844-14.291-23.367-21.068l-7.577-6.825c-1.561-1.412-3.5-2.768-3.862-4.08a1.458,1.458,0,0,1,.491-1.549,7.092,7.092,0,0,1,3.125-1.337,9.544,9.544,0,0,1,4.326-1.539c2.253-.107,2.9-.108,3.539-.119,9.558-.148,19.177-.212,28.76.488a109.629,109.629,0,0,1,26.718,4.9c1.8.609,3.541,1.4,5.312,2.158.729.312,1.458.618,2.2.9.966.247,1.913.489,2.863.729,1.775.44,2.719.67,3.661.893a46.122,46.122,0,0,0,6.377,0V117.8a1.367,1.367,0,0,1,.828-1.256l12.669-5.435-12.669-5.435c-.036-.015-.07-.033-.1-.05L139.684,90.362,124.7,83.986H52.341l-.161-1.644a26.764,26.764,0,0,1-6.521,2.551c-3.94.332-34.27-2.979-35.866-3.153l-2.87.479c.02.069.485,1.384-1.073,14.313,1.667,6.5-5.474,16.336-5.85,16.853l1.338.95,2.947-.249,3.451-1.714,2.369-.2,4.251.595,6.3.65,1.98,1.018,4.23,2.249,8.506,5.8,2.6,4.521,2.965,2.711,8.1,2.873,1.126,3.226c.118.1,2.332,2.054,4.234,3.434s29.678,21.2,30.669,21.273a27.547,27.547,0,0,1,2.707,4.713c0,.032.065.638,1.418,1.452,1.377,2.029,2.39,3.5,2.642,3.782.95.986,13.826,16.9,14.5,17.737Z" transform="translate(0 -7.275)" fill="#4789c8"/>
          <path id="Path_126514" data-name="Path 126514" d="M330.419,93.173l-9.93,4.757A1.366,1.366,0,0,1,319.5,98l-16.911-5.146a1.366,1.366,0,0,1-.968-1.305v-10.1L289.5,76.742H266.965l-5.991,17.97v15.311c-.3,4.162-.515,10.627-.067,11.97.777,2.327-3.244,9.51-6.754,15.122a1.367,1.367,0,0,1-1.016.638c-6.487.683-14.2,2.133-15.352,3.28-.174.174-.343.349-.509.522-2.493,2.584-4.737,4.225-12.968,3.553-6.169-.51-9.695,1.268-11.092,2.208a13.015,13.015,0,0,1,.426,4.771c-.211,2.518-.859,5.148.026,7.682,2.07,5.049,11.059,6.933,18.158,7.848,3.973.513,7.984.836,11.976,1.214,4.705.438,9.376,1.039,14.115,1.252.967.046,1.942.077,2.915.091,1.611.017,3.223-.017,4.805-.134a35.54,35.54,0,0,0,6.356-1.018c5.453-1.64,7.968-4.486,10.818-6.99,6.277-5.523,12.82-10.956,19.4-16.359,5.788-4.753,12.116-9.464,20.58-12.711,4.526-1.74,9.11-3.05,11.955-5.855,2.752-2.713,4.48-5.846,6.522-8.77,1.11-1.6,2.26-3.188,3.336-4.8.994-1.495,1.731-3.012,1.14-4.668-.659-1.731-2.224-3.25-3.624-4.737q-2.173-2.315-4.345-4.623c-.644-.681-1.308-1.36-1.964-2.042l-.219.249Z" transform="translate(-18.978 -6.831)" fill="#4789c8"/>
          <path id="Path_126515" data-name="Path 126515" d="M435.928,367.289c.781-.911,1.438-1.848,2.308-2.727a80.008,80.008,0,0,0,6.278-6.481,39.593,39.593,0,0,0,3.43-11.821c.041-.812.08-1.621.141-2.429.071-.943.149-1.715.273-2.48a26.091,26.091,0,0,1,.8-3.586,20.025,20.025,0,0,1,.768-2.113c1.2-4.427,3.147-8.887-1.033-13.177a25.511,25.511,0,0,0-4.079-3.28c-2.933-1.95-6.135-3.644-8.975-5.466a28.165,28.165,0,0,1-7.679-7.117c-.59-.82-1.131-1.65-1.64-2.5-.82-1.4-1.376-2.46-1.955-3.512a24.989,24.989,0,0,0-5.01-6.832,14.859,14.859,0,0,0-2.575-1.888,20.616,20.616,0,0,0-3.5-1.521c-2.733-.839-5.878-.935-8.584-1.786-5.648-2.049-6.536-5.729-6.637-8.86a59.246,59.246,0,0,0-.288-7.743,19.422,19.422,0,0,0-.786-3.477c-.25-.714-.531-1.417-.839-2.108l-10.175,19.5-1.213.737H366.467l9.12,14.138a1.367,1.367,0,0,1-.3,1.807l-9.045,7.236v7.946a1.367,1.367,0,0,1-.083.467l-3.826,10.515a1.358,1.358,0,0,1-.262.44l-7.646,8.6a1.366,1.366,0,0,1-1.021.455h-2.473v3.345a1.366,1.366,0,0,1-.911,1.286l-6.411,2.287v2.906l2.71,3.379,2.421-1.822a1.6,1.6,0,0,1,.192-.12l12.615-6.525a1.368,1.368,0,0,1,.629-.152h17.837a1.367,1.367,0,0,1,1.314.99l2.611,9.135a1.367,1.367,0,0,1-.074.948l-2.61,5.655a1.372,1.372,0,0,1-.15.251L377.177,365a26.844,26.844,0,0,1,9.431-2.625c.444-.077.889-.147,1.342-.2.123-.014.247-.026.373-.036a15.923,15.923,0,0,1,2.717.02,36.32,36.32,0,0,1,6.382.595c8.086,1.52,15.569,4.027,23.033,6.417a39.872,39.872,0,0,0,7.1,1.957,30.411,30.411,0,0,0,3.62-.2,4.423,4.423,0,0,0,2.937-1.473l.222-.169a3.071,3.071,0,0,1,.65-.753c.342-.389.437-.729.764-1.109" transform="translate(-30.584 -23.71)" fill="#4789c8"/>
          <path id="Path_126516" data-name="Path 126516" d="M422.081,123.215l-10.234,7.677v7.4a1.366,1.366,0,0,1-1.366,1.367h-5.893L397.482,150l2.307,2.884a1.146,1.146,0,0,1,.091.12l5.146,8.085a1.366,1.366,0,0,1,.214.733v8.822a1.366,1.366,0,0,1-1.366,1.366H380.108l-3.538,2.95v14.794a1.366,1.366,0,0,1-.806,1.246l-14.7,6.617-8.472,4.239-5.355,7.364,1.849,12.13-.493.075c.374.515.742,1.034,1.082,1.572a23.965,23.965,0,0,0,1.78,2.36,13.724,13.724,0,0,0,6.449,3.691q.863.264,1.785.488c3.826.924,7.7,1.556,11.447,2.421a50.822,50.822,0,0,1,6.794,2,44.364,44.364,0,0,1,11.3,6.27c4.883,4.008,7.763,7.732,9.587,11.506q.538,1.118.959,2.248a22.28,22.28,0,0,1,1.426,8.654c-.01.263-.028.538-.046.82-.22,3.348-.729,8.054,4.888,10.037a35.767,35.767,0,0,0,5.83,1.229,24.163,24.163,0,0,1,3.494.8,20.267,20.267,0,0,1,4.073,1.883,16.54,16.54,0,0,1,1.8,1.275,19.276,19.276,0,0,1,2.784,2.815,44.573,44.573,0,0,1,4.081,6.559c2.023,3.62,4.22,7.106,8.534,10.1,4.5,3.076,9.656,5.531,13.372,8.665,2.947,2.618,3.987,4.887,4.2,7.212a11.172,11.172,0,0,1-.016,2.153c.214-.21.439-.415.678-.622,3.513-3.079,8.712-5.284,14.326-6.969q1.563-.47,3.147-.911c16.237-4.523,33.7-6.806,51.53-8.317,12.774-1.071,25.164-1.741,37.414-2.518q2.3-.146,4.6-.3l-.013.017q3.78-.252,7.549-.521a10.561,10.561,0,0,1-3.883-2.642,16.749,16.749,0,0,1-2.329-3.713c-.95-1.833-2.015-3.658-2.806-5.512q-.236-.552-.433-1.112a10.825,10.825,0,0,1-.645-4.878c.282-2.252,1.315-4.478,2.041-6.679,2.987-8.988,6.924-18.047,7.844-27.277a25.776,25.776,0,0,0-1.221-11.131,25.46,25.46,0,0,0-1.049-2.54c-2.187-4.57-5.615-8.923-8.4-13.392-2.642-4.243-4.515-8.622-6.849-12.913-2.224-4.082-4.483-8.158-6.3-12.3-1.591-3.618-3.169-7.462-6.455-10.762a18,18,0,0,1-3.021-3.306,4.443,4.443,0,0,1-.373-.814,5.968,5.968,0,0,1,.02-3.553c-7.569-1.731-12.827-5.634-14.394-10.021a7.876,7.876,0,0,1-.289-4.482c.842-3.667,3.1-7.093,2.186-10.9-.078-.324-.175-.649-.285-.97-1.067-3.108-3.587-6.066-6.923-8.64C504.841,126.939,477.712,124.9,455.515,122q-9.869-1.284-19.725-2.576c-3.768-.492-7.718-.789-11.177-1.921-3.365-1.1-5.2-3.22-7.458-5l5.284,8.91a1.366,1.366,0,0,1-.355,1.789" transform="translate(-30.907 -10.014)" fill="#003462"/>
          <path id="Path_126517" data-name="Path 126517" d="M377.89,380.057v.026l15.057,5.083,2.073-.1,4.54,9.738c.627.254,12.518,5.1,13.364,7.524,2.859,3.553,5.422,7.051,5.557,7.233l2.642.014,2.6-.69,1.483-1.549a1.409,1.409,0,0,1,.88-1.5c1.177-.689,6.5-3.618,6.782-3.771l2.038-1.7-.514-.911c-.447-.2-8.563-3.917-6.134-7.613v-.018c.02-.031.047-.056.068-.086.07-.1.15-.2.236-.3.046-.054.083-.115.132-.166l.281-3.814-.42-1.481v-.007l-.458-1.627-.976-.58,1-.176.52,0,.05-.232v-.03l.023-.1a.182.182,0,0,0-.017-.182v-.091c-6.419-.934-12.329-3.225-17.875-5.215q-1.055-.381-2.116-.757c-2.627-.928-5.295-1.817-8.1-2.551a36.693,36.693,0,0,0-6.944-1.337c-.526.006-1.051.022-1.573.049-.209.012-.417.025-.625.04l-.311.025c-.169.015-.34.03-.507.047a37.512,37.512,0,0,0-9.468,3.119c-.42.182-.834.39-1.237.606a7.265,7.265,0,0,0-1.458,1.72,5.788,5.788,0,0,0-.59,1.361Z" transform="translate(-33.635 -33.208)" fill="#4789c8"/>
          <path id="Path_126518" data-name="Path 126518" d="M342.569,96.973c1.2,1.292,2.45,2.568,3.662,3.855,1.64,1.744,3.342,3.484,4.928,5.245a11.992,11.992,0,0,1,2.448,3.651,4.654,4.654,0,0,1,.3,1.506c.029,1.715-1.088,3.311-2.16,4.846q-1.9,2.711-3.784,5.425c-2.174,3.112-3.985,6.612-7.72,9.2s-9.464,3.873-13.959,5.962a67,67,0,0,0-12.232,7.495c-3.67,2.777-7.047,5.685-10.476,8.563-3.771,3.163-7.577,6.317-11.285,9.51-3.26,2.819-6.086,6.286-11.009,8.251a26.61,26.61,0,0,1-4.36,1.288c-.975.2-1.978.364-3,.495,4.3.5,9.23,1.184,14.042,2.128q.784.156,1.573.318a83.062,83.062,0,0,1,18.451,5.739,38.731,38.731,0,0,1,7.707,4.689,16.093,16.093,0,0,1,3.851,4.291,6.3,6.3,0,0,1,.755,5.156,11.254,11.254,0,0,1-3.137,4.2c-.223.221-.451.444-.677.668-1.687,1.668-3.741,3.972-.217,5.515a27.016,27.016,0,0,0,3.866,1.184c.568.147,1.136.293,1.68.455,1.389.415,2.748.87,4.052,1.372a46.979,46.979,0,0,1,7.608,3.693,33.678,33.678,0,0,1,5.849,4.464l-1.4-9.189a1.366,1.366,0,0,1,.246-1.009l5.88-8.087a1.361,1.361,0,0,1,.494-.418l8.82-4.412,13.947-6.279V172.189a1.366,1.366,0,0,1,.492-1.049l4.41-3.676a1.366,1.366,0,0,1,.875-.317h22.89v-7.057l-4.893-7.688-2.9-3.618a1.367,1.367,0,0,1-.058-1.628l8.091-11.764a1.366,1.366,0,0,1,1.126-.592h5.245V128.08a1.367,1.367,0,0,1,.547-1.093l9.8-7.353L406,107.921a14,14,0,0,0-4.491-.619c-.595.015-1.184.053-1.767.1-.616.051-.978.086-1.343.118-.38.036-.76.071-1.142.1-1.386.1-2.087.128-2.8.113-4.475-.085-8.571-2.451-11.075-4.473a7.124,7.124,0,0,1-2.363-2.492,17.321,17.321,0,0,0-3.477-.675c-2.453-.312-4.9-.673-7.288-1.151-4.532-.9-9-2.26-12.255-4.4-3.022-1.982-4.092-5.523-9.191-5.985a14.786,14.786,0,0,0-2.492-.008c-2.687.266-4.919,1.037-6.039,2.21a2.321,2.321,0,0,0-.527,2.466,7.782,7.782,0,0,0,1,1.681l2.057,1.81Z" transform="translate(-24.381 -7.878)" fill="#4789c8"/>
          <path id="Path_126519" data-name="Path 126519" d="M341.575,330.24v7.235h9.186l7.065-7.948,3.655-10.044v-8.36a1.367,1.367,0,0,1,.512-1.067l8.6-6.876-9.411-14.58h-3.655l-7.993,5.328-8.138,14.061-.63.566-10.819,4.779-9.263,4.391v9.58l.158,1.57h19.372a1.366,1.366,0,0,1,1.366,1.366" transform="translate(-28.543 -25.688)" fill="#4789c8"/>
          <path id="Path_126520" data-name="Path 126520" d="M439.464,62.738c-9.844,2.616-14.332,8.281-14.615,13.533,0,.364.014.729.036,1.1.224,2,1.2,3.965,1.1,5.993-.113,2.175-.668,5.04-3.436,6.6-1.8,1.008-4.884,1.366-7.26,1.774-2.576.441-5.2.794-7.8,1.184a70.631,70.631,0,0,0-12.32,4.638c.174,2.191,2.478,3.644,4.352,4.575a13.512,13.512,0,0,0,6.741,1.634c.57-.025,1.139-.065,1.7-.112a45.911,45.911,0,0,1,5.388-.3,18.013,18.013,0,0,1,4.521.777l.983-.583.718,1.211c3.575,1.511,5.317,3.962,8.278,5.8,3.056,1.887,7.445,2.161,11.523,2.7,12.369,1.617,24.753,3.2,37.11,4.85,20.193,2.7,42.56,6.733,53.263,18.283a16.972,16.972,0,0,1,3.735,5.941,11.305,11.305,0,0,1,.494,2.071c.426,3.111-1.026,5.967-1.986,8.948a8.409,8.409,0,0,0-.118,5.518,9.081,9.081,0,0,0,2.053,3.209c2.551,2.675,6.757,4.726,11.705,5.708.455,1.989.216,3.245.638,4.476a4.29,4.29,0,0,0,.743,1.321c.925,1.147,2.267,2.169,3.24,3.305a29.606,29.606,0,0,1,3.443,5.231c2.1,3.866,3.613,7.814,5.667,11.694,2.186,4.152,4.56,8.275,6.61,12.45a131.912,131.912,0,0,0,8.2,13.464,42.2,42.2,0,0,1,4.6,8.837,22.445,22.445,0,0,1,1.052,4.132A34.1,34.1,0,0,1,578.9,245.8c-1.1,4.531-2.7,9-4.191,13.483q-1.137,3.427-2.272,6.845a62.412,62.412,0,0,0-2.253,6.986,9.749,9.749,0,0,0,.539,5.193,54.6,54.6,0,0,0,3.188,6.559c1.3,2.514,2.733,5.04,7.353,6.087,13.893-.793,26.965-1.842,40.084-2.76q.89-.082,1.773-.157c1.872-.154,3.28-.256,4.68-.345q1.427-.091,2.859-.163c5.83-.415,11.691-.791,17.57-.9a106.58,106.58,0,0,1,12.472.507c2.926.121,4.665.148,6.4.17,1.16-.024,2.324-.059,3.483-.091,3.377-.084,6.641.1,10.021.182,2.306.051,4.607-.018,6.894-.148,2.1-.118,4.18-.289,6.249-.464,9.675-.814,18.444-1.878,27.026-3.253,5.685-.958,11.1-2.061,16.5-2.559,3.5-.262,4.294-.333,5.079-.425,7.957-.138,10.09.806,11.651,2.073l-.341.159.341-.158-.021.382.343-.106h.007l.107-.04L821.594,257.8l28.66-10.713,2-36.6.7-13.641L827.63,181.206l-.377,1.809-97.594,4.669-47.61-23.243c-.1-.282-1.965-5.622-9.912-4.952a21.006,21.006,0,0,0-4.1.8l-.3-3.765,4.22-4.134-2.36-.991a22.428,22.428,0,0,1-11.626,4.79,16.285,16.285,0,0,1-2.905-.01l-4.538-1.393-3.249-2.331-2.679-.721-10.5-8.007-3.168-3.289-2.967-1.526-3.644-3.483c-.478-.21-9.559-4.171-11.585-7.081a43.541,43.541,0,0,0-5.072-4.078l-2.559-.375-2.985-3.9,3.746.278,3.61-1.254c-.021-.3-.444-5.89-7.349-8.269-2.283-.755-4.425-1.361-4.538-1.393l-.683-1.958,1.64-1.088-3.162-2.1a3.584,3.584,0,0,0-2.369-.981,26.434,26.434,0,0,1-5.317-.737c-1.579-.456-5.444-1.6-5.648-1.659l-.883-1.356-5.21-2.166c.12.061,2.452,1.217.484,1.384-1.309.11-1.829.416-2.676.487a6,6,0,0,1-1.648-.123q-3.128-.47-6.305-.653l-1.526-3.188-.885-2.53V91.5l-5.648-1.655a74.059,74.059,0,0,1-7.871-.521L546.219,87.5l-1.207-3.454-10.689-6.216-6.667-6.313-1-2.869L497.729,69.9a7.146,7.146,0,0,1-4.635-4.586l-3.644-3.483c-.273-.143-5.455-2.861-32.6-.573-5.525.435-9.646.709-13.229,1.275Z" transform="translate(-35.173 -5.372)" fill="#4789c8"/>
          <path id="Path_126521" data-name="Path 126521" d="M756.154,305.392a17.878,17.878,0,0,0-4.724-1.231,38.551,38.551,0,0,0-6.468-.236,74.235,74.235,0,0,0-13.146,2.251c-1.139.29-2.269.588-3.4.882-2.231.584-4.469,1.193-6.825,1.614-.743.132-1.5.245-2.27.344-.7.091-1.4.168-2.109.239-3.836.332-4.473.382-5.109.435-7.158.577-14.414.82-21.7.864-.833.006-1.661,0-2.493,0-5.159,0-10.294-.083-15.423-.182-2.247.021-4.5.01-6.754-.118-5.607-.091-11.213-.16-16.81-.091q-4.353.055-8.693.221c-5.514.346-9.677.626-13.832.917-6.479.626-12.735,1.655-19.119,2.486-.935.12-1.94.247-2.992.37-1.236.142-2.541.281-3.886.394a55.147,55.147,0,0,1-14.17-.289q-12.1.867-24.222,1.612l-6.825.408q-3.927.238-7.853.488c-5.138.335-9.776.665-14.394,1.051-7.229.612-13.884,1.3-20.454,2.2-8.746,1.225-16.32,2.757-23.82,4.5-6.071,1.4-12.207,2.933-17.24,5.338-5.714,2.733-8.578,6.28-10.1,10.164-.738,3.026-1.258,6.032-1.731,9.051-.062.386-.118.773-.182,1.156-.091,1.117-.182,2.226-.3,3.323a17.007,17.007,0,0,1-3.146,8.388,34.754,34.754,0,0,1-4.7,6.859c-.911,1.034-1.458,1.613-2.024,2.186a8.886,8.886,0,0,0-.746.855,11.994,11.994,0,0,0-1.2,2.052,5.342,5.342,0,0,1-.571.939,4.07,4.07,0,0,1-.94.875l.027.031-.048.013-.007.144c.417.116.844.23,1.275.364.252.049.51.091.766.131a11.4,11.4,0,0,0,1.536.1c.348,0,.729-.014,1.147-.043a11.135,11.135,0,0,0,1.153-.28,5.893,5.893,0,0,0,.917.149,16.379,16.379,0,0,0,4.955,0c2.218-.182,5.268-.527,9.432-1.029,1.592-.165,3.346-.352,5.284-.56,6.689-1,12.572-1.666,17.653-2.1a193.343,193.343,0,0,1,22.284-.671c.812.047,1.628.058,2.437.03,2.135-.1,15.037-.091,23.436-.091,4.136,0,7.18,0,7.31-.007l.986-.082,22.038-1.858c.513.312,1.495.82,3.744,2.055l.949.395a6.239,6.239,0,0,1,1.229.607l.83.638a5.17,5.17,0,0,0,2.25,1.232h.193a6.135,6.135,0,0,1,.829.035c1.343-.022,2.614-.091,3.812-.19,11.362-.956,15.987-4.849,16.23-5.055l7.261-12.819a37.231,37.231,0,0,1,6.2-8.25,75.263,75.263,0,0,1,10.167-8.654l12.9-6.539c5.174-2.571,18.014-5.784,21.56-6.083s41.989-6.741,43.72-7l52.157-11.862-.465-1.941c1.315-.314,2.709-.681,4.14-1.093h0l.039-.013.042-.011V305.4Z" transform="translate(-39.675 -27.048)" fill="#4789c8"/>
          <path id="Path_126522" data-name="Path 126522" d="M254.775,41.4c-2.844.415-7.687.865-9.687-.47-1.464-.729-12.313-.46-21.936.226h-12.5a1.367,1.367,0,0,1-.7-.191l-7.453-4.415a1.343,1.343,0,0,1-.2-.148L189.245,24.979H176.266l-14.46,5.785a1.381,1.381,0,0,1-.507.1H138.507a1.366,1.366,0,0,1-1.275-.882l-8.05-21.211-.626-1.4c-1.275.355-2.6.716-3.951,1.076l-3,.793c-7.128-.8-12.191-1.387-12.457-1.418-.073,0-1.458.071-3.581.253-5.335.45-14.879,1.557-16.267,3.792-.523.834-.7,2.642-.547,4.933L74.634,19.73l17.5,10.459A16.326,16.326,0,0,0,96.962,36.7l13.874,4.646,3.462,2.069c-9.592,1.723-13.657,9.169-15.009,12.438L73.45,60.958l-2.715,4.967c-1.555,2.355-7.189,5.989-12.126,8.713H130.2a1.366,1.366,0,0,1,.535.109l15.293,6.5a1.2,1.2,0,0,1,.109.052l28.618,15.265,15.543,6.668a1.366,1.366,0,0,1,0,2.512l-14.769,6.336v19.291c1.668-.139,2.677-.22,3.673-.273,4.282-.24,8.758-.055,12.465,1.529a13.522,13.522,0,0,1,6.741,5.953c2.02-1.216,6.031-2.89,12.359-2.369,7.547.622,8.973-.855,10.777-2.725.182-.182.358-.371.547-.557,2.226-2.227,12.332-3.553,16.331-4,3.111-5.05,6.233-11.052,6.111-12.328-.755-2.246-.182-11.023-.051-12.9v-15.4a1.425,1.425,0,0,1,.07-.433l7.333-22L254.774,53.6Z" transform="translate(-5.217 -0.655)" fill="#4789c8"/>
          <path id="Path_126523" data-name="Path 126523" d="M391.806,58.6l-26.4-.115L286.2,29.912,258.727,19.091c-10.962-2.391-30.331-7.177-31.351-7.429L201.139,4.986C187.685.665,155.143.034,153.432,0a16.2,16.2,0,0,0-6.741,2.979l-2.015.938C143.14,4.5,140.94,5.193,138.4,5.93l.4,1.111,7.753,20.44h21.586L182.6,21.7a1.367,1.367,0,0,1,.507-.1h13.756a1.367,1.367,0,0,1,.9.338L211.11,33.616l7.022,4.157h11.977c6.358-.455,21.264-1.328,23.595.229,1.077.72,5.662.455,9.292-.208a1.367,1.367,0,0,1,1.589,1.1,1.386,1.386,0,0,1,.022.245V53.1a1.345,1.345,0,0,1-.036.313l-2.941,12.5c-.009.04-.021.08-.034.119l-.382,1.143h21.878a1.358,1.358,0,0,1,.5.091l13.234,5.148a1.366,1.366,0,0,1,.871,1.275V83.706l15.432,4.7,10.267-4.919a1.367,1.367,0,0,1,1.492.207l.146.128c.374-1.76,2.474-3.143,5.1-3.917a19.609,19.609,0,0,1,3.322-.638,21.56,21.56,0,0,1,2.237-.086,16.925,16.925,0,0,1,2.81.287c4.746,1.063,5.739,3.588,8.224,5.546,5.164,4.076,14.414,5.324,22.449,6.179a6.194,6.194,0,0,1,2.668-2.307c2.222-1.08,5.659-1.64,8.431-2.136.733-.133,1.479-.254,2.22-.373q2.39-.748,4.883-1.393c2.687-.689,5.548-1.16,8.233-1.852,2.9-.751,4.351-1.964,4.538-3.841a23.865,23.865,0,0,0-.342-5.511,9.142,9.142,0,0,1-.294-3.321,11.973,11.973,0,0,1,.078-1.9,13.048,13.048,0,0,1,5.115-8.386,17.655,17.655,0,0,1,3.263-2.1V57.8Z" transform="translate(-12.319)" fill="#4789c8"/>
        </g>
      </g>
      <g id="lines" transform="translate(68.524 7.107)">
        <g id="Group_125039" data-name="Group 125039" transform="translate(0)">
          <path id="Path_126524" data-name="Path 126524" d="M669.209,275.122l-2.354,1.093a17.834,17.834,0,0,0-4.723-1.231,38.554,38.554,0,0,0-6.468-.236A74.229,74.229,0,0,0,642.519,277c-1.139.29-2.269.588-3.4.882-2.231.584-4.469,1.193-6.824,1.614-.744.132-1.5.245-2.271.344-.7.091-1.4.168-2.108.239-3.836.332-4.475.382-5.111.435-7.157.577-14.413.82-21.694.864-.833.005-1.66,0-2.493,0-5.158,0-10.294-.083-15.423-.182-2.246.021-4.495.01-6.753-.118-5.607-.091-11.213-.16-16.81-.091q-4.352.054-8.693.221c-5.514.346-9.678.626-13.832.917-6.48.626-12.735,1.655-19.119,2.486-.935.12-1.94.247-2.993.37-1.237.142-2.541.281-3.885.394a55.144,55.144,0,0,1-14.17-.289q-12.1.868-24.223,1.612l-6.824.408q-3.927.237-7.854.488c-5.137.335-9.775.665-14.394,1.051-7.229.612-13.885,1.3-20.454,2.2-8.746,1.225-16.321,2.757-23.82,4.5-6.072,1.4-12.207,2.933-17.241,5.337-5.714,2.733-8.577,6.28-10.1,10.164-.739,3.026-1.259,6.032-1.731,9.051-.062.386-.117.772-.182,1.156-.091,1.117-.182,2.226-.3,3.323a17.035,17.035,0,0,1-3.146,8.388,34.865,34.865,0,0,1-4.7,6.859c-.911,1.034-1.458,1.613-2.024,2.186a8.889,8.889,0,0,0-.746.855,11.877,11.877,0,0,0-1.2,2.052,5.348,5.348,0,0,1-.571.939,4.059,4.059,0,0,1-.965.895c-2.251-.516-2.619-.943-3.045-1.355a3.438,3.438,0,0,1,1.152-2.624c.342-.389.656-.785.983-1.169.781-.911,1.615-1.8,2.484-2.682a79.988,79.988,0,0,0,6.278-6.481,39.593,39.593,0,0,0,3.43-11.821c.041-.812.08-1.622.141-2.429.071-.943.149-1.715.273-2.48a25.953,25.953,0,0,1,.8-3.586,20.035,20.035,0,0,1,.768-2.113c1.2-4.427,3.147-8.887-1.033-13.177a25.6,25.6,0,0,0-4.079-3.28c-2.933-1.95-6.135-3.644-8.975-5.466a28.164,28.164,0,0,1-7.679-7.117c-.59-.82-1.131-1.65-1.64-2.5-.82-1.4-1.376-2.46-1.955-3.512a24.987,24.987,0,0,0-5.01-6.832,14.858,14.858,0,0,0-2.575-1.888,20.623,20.623,0,0,0-3.5-1.521c-2.733-.839-5.878-.935-8.584-1.786-5.648-2.049-6.536-5.729-6.637-8.86a59.24,59.24,0,0,0-.288-7.743,19.428,19.428,0,0,0-.786-3.477,27.155,27.155,0,0,0-1.773-4.008,32.416,32.416,0,0,0-5.436-7.06A37.883,37.883,0,0,0,302.332,226c-2.056-1.127-2.958-1.571-3.889-1.991a53.815,53.815,0,0,0-10-3.139c-3.526-.762-7.144-1.361-10.681-2.27a27.72,27.72,0,0,1-5.808-2.165,13.069,13.069,0,0,1-1.615-1.049,14.928,14.928,0,0,1-3.3-3.8c-.445-.672-.881-1.348-1.374-2.01A28.843,28.843,0,0,0,257,202.233a43,43,0,0,0-4.168-2.117q-.754-.335-1.536-.65c-.883-.355-1.789-.668-2.71-.956-2.156-.677-4.39-1.234-6.54-1.944a11.27,11.27,0,0,1-2.193-.968c-1.314-.777-2.142-1.764-2.121-2.908.042-1.814,1.935-3.424,3.44-4.892a11.235,11.235,0,0,0,2.412-3.072,4.738,4.738,0,0,0,.445-1.527c-.389-4.794-5.179-8.407-10.194-10.973-5.876-3.006-13.075-4.965-20.348-6.416q-1.661-.332-3.332-.616a138.858,138.858,0,0,0-20.048-1.869c-7.9-.182-15.543-1.656-23.381-2.291-5.689-.462-11.864-.74-17.017-2.513-6.406-2.2-7.835-6.628-7.948-10.5-.066-3.644.787-7.091-.373-10.47a10.4,10.4,0,0,0-1.112-2.258,11.313,11.313,0,0,0-6.189-4.486,13.446,13.446,0,0,0-4.87-.668,42.449,42.449,0,0,0-4.689,1.221,13.915,13.915,0,0,1-1.985.308,19.356,19.356,0,0,1-2,.057,47.4,47.4,0,0,1-9.572-1.526,38.371,38.371,0,0,1-6.219-1.532q-2.476-.631-4.943-1.275c-4.157-1.071-8.326-2.122-12.615-3A214.535,214.535,0,0,0,65.1,120.965a119.877,119.877,0,0,0-21.425-.314q-2.307.194-4.573.508c-.885.125-1.975.243-3,.418.23,2.836.973,3.785,1.766,4.637,1.582,1.705,3.456,3.336,5.2,4.987q22.1,20.843,46.3,40.949a48.3,48.3,0,0,1,5.544,4.7c1.228,3.769-.046,4.965-2.043,5.921a24.252,24.252,0,0,1-2.261.911,99.269,99.269,0,0,1-15.1,3.562q-1.524.273-3.064.519c-1.739.281-3.5.547-5.259.78l-3.954-2.479c1.806-.24,3.3-.491,4.764-.75,4.729-.844,8.629-1.667,12.511-2.517,3.083-.681,6.311-1.3,9.262-2.144,1.614-.455,3.132-1.13,3.3-2.08a10.058,10.058,0,0,0-2.356-2.749c-3.644-3.108-8.071-5.428-11.509-8.179-5.289-4.3-9.449-8.413-13.8-12.384-8.326-7.512-15.844-14.291-23.367-21.068l-7.577-6.825c-1.561-1.412-3.5-2.768-3.862-4.08a1.458,1.458,0,0,1,.491-1.549,7.092,7.092,0,0,1,3.125-1.337,9.543,9.543,0,0,1,4.326-1.539c2.253-.107,2.9-.108,3.539-.119,9.558-.148,19.177-.212,28.76.488a109.627,109.627,0,0,1,26.718,4.9c1.8.609,3.541,1.4,5.312,2.158.729.312,1.458.618,2.2.9.966.247,1.913.489,2.863.729,1.775.44,2.719.67,3.661.893a46.025,46.025,0,0,0,8.025-.131c2.359-.2,3.561-.3,4.756-.364,4.282-.24,8.758-.055,12.465,1.529a13.524,13.524,0,0,1,6.785,6.025,11.727,11.727,0,0,1,.805,1.8,13.027,13.027,0,0,1,.619,5.46c-.211,2.518-.859,5.148.026,7.682,2.07,5.049,11.059,6.933,18.158,7.848,3.973.513,7.984.836,11.976,1.214,4.705.438,9.376,1.039,14.115,1.252.967.046,1.942.077,2.915.091,1.611.017,3.223-.017,4.805-.134a35.624,35.624,0,0,0,6.356-1.018c5.453-1.64,7.968-4.486,10.818-6.99,6.277-5.523,12.82-10.956,19.4-16.359,5.788-4.753,12.116-9.464,20.58-12.711,4.526-1.74,9.11-3.05,11.955-5.855,2.752-2.713,4.48-5.846,6.522-8.77,1.11-1.6,2.26-3.188,3.336-4.8.994-1.495,1.731-3.012,1.14-4.668-.659-1.731-2.224-3.25-3.624-4.737q-2.173-2.315-4.345-4.623c-1.5-1.591-3.125-3.168-4.469-4.8a8.263,8.263,0,0,1-1.448-2.329,3.147,3.147,0,0,1-.182-1.657c.329-1.8,2.46-3.2,5.128-3.993a19.6,19.6,0,0,1,3.322-.638,21.563,21.563,0,0,1,2.236-.086,16.828,16.828,0,0,1,2.81.287c4.746,1.063,5.739,3.588,8.223,5.546,5.164,4.076,14.414,5.324,22.449,6.179a6.2,6.2,0,0,1,2.668-2.307c2.222-1.08,5.659-1.64,8.431-2.136.729-.133,1.479-.254,2.22-.373q2.389-.749,4.883-1.393c2.687-.689,5.548-1.16,8.233-1.852,2.9-.751,4.351-1.964,4.538-3.841a23.921,23.921,0,0,0-.342-5.511,9.141,9.141,0,0,1-.294-3.321,11.962,11.962,0,0,1,.078-1.9,13.048,13.048,0,0,1,5.115-8.381,17.656,17.656,0,0,1,3.263-2.1l9.159-.853c-10.219,2.551-14.849,8.332-15.137,13.679,0,.364.014.729.036,1.1.224,2,1.2,3.965,1.1,5.993-.113,2.175-.668,5.04-3.436,6.6-1.8,1.008-4.884,1.366-7.26,1.774-2.576.441-5.2.794-7.8,1.184a70.57,70.57,0,0,0-12.321,4.638c.175,2.186,2.479,3.644,4.353,4.575a13.509,13.509,0,0,0,6.741,1.634c.57-.025,1.139-.065,1.7-.112a45.694,45.694,0,0,1,5.389-.3,18.008,18.008,0,0,1,5.981,1.294c3.749,1.5,5.488,4.03,8.52,5.91,3.056,1.887,7.445,2.161,11.523,2.7,12.369,1.617,24.753,3.2,37.109,4.85,20.194,2.7,42.561,6.733,53.264,18.283a16.989,16.989,0,0,1,3.735,5.941,11.376,11.376,0,0,1,.494,2.071c.426,3.111-1.026,5.967-1.986,8.948a8.4,8.4,0,0,0-.118,5.518,9.038,9.038,0,0,0,2.053,3.209c2.551,2.675,6.757,4.726,11.705,5.708.456,1.989.216,3.245.638,4.476a4.268,4.268,0,0,0,.742,1.321c.926,1.147,2.268,2.169,3.241,3.305a29.664,29.664,0,0,1,3.443,5.231c2.1,3.866,3.613,7.814,5.667,11.694,2.186,4.152,4.56,8.275,6.61,12.45a131.923,131.923,0,0,0,8.2,13.464,42.206,42.206,0,0,1,4.6,8.837,22.587,22.587,0,0,1,1.052,4.132,34.1,34.1,0,0,1-.926,13.1c-1.1,4.531-2.7,9-4.191,13.483l-2.272,6.845a61.94,61.94,0,0,0-2.253,6.986,9.735,9.735,0,0,0,.539,5.193,54.367,54.367,0,0,0,3.188,6.559c1.3,2.514,2.733,5.04,7.353,6.087,13.893-.793,26.965-1.842,40.084-2.76q.886-.084,1.773-.157c1.872-.154,3.28-.256,4.679-.345q1.427-.091,2.86-.163c5.83-.415,11.691-.791,17.57-.9a106.2,106.2,0,0,1,12.472.507c2.925.121,4.664.149,6.4.17,1.16-.024,2.323-.059,3.483-.091,3.376-.084,6.641.1,10.021.182,2.306.051,4.607-.018,6.894-.149,2.1-.118,4.18-.289,6.249-.464,9.675-.814,18.444-1.878,27.025-3.253,5.686-.958,11.1-2.061,16.5-2.559,3.5-.262,4.293-.333,5.079-.425,7.957-.139,10.089.806,11.651,2.073m-183.869,9.323q3.78-.252,7.549-.521a10.566,10.566,0,0,1-3.883-2.642,16.791,16.791,0,0,1-2.329-3.713c-.95-1.833-2.015-3.658-2.806-5.512q-.237-.553-.433-1.112a10.852,10.852,0,0,1-.645-4.878c.282-2.252,1.315-4.478,2.042-6.679,2.987-8.988,6.923-18.047,7.844-27.277a25.761,25.761,0,0,0-1.221-11.131,25.156,25.156,0,0,0-1.047-2.545c-2.186-4.57-5.615-8.923-8.4-13.392-2.642-4.243-4.515-8.622-6.849-12.913-2.224-4.082-4.483-8.158-6.3-12.3-1.591-3.618-3.169-7.462-6.455-10.762a18.129,18.129,0,0,1-3.021-3.306,4.617,4.617,0,0,1-.373-.814,5.974,5.974,0,0,1,.02-3.553c-7.569-1.731-12.827-5.634-14.394-10.021a7.877,7.877,0,0,1-.289-4.482c.842-3.667,3.1-7.093,2.186-10.9-.078-.324-.175-.649-.285-.97-1.067-3.108-3.587-6.066-6.924-8.64-15.022-11.577-42.152-13.614-64.349-16.511q-9.869-1.284-19.725-2.576c-3.768-.492-7.718-.789-11.177-1.921-4.085-1.335-5.912-4.177-8.985-6.088a13.994,13.994,0,0,0-7.6-2c-.595.016-1.184.053-1.767.1-.616.051-.978.086-1.343.118-.38.036-.76.071-1.142.1-1.386.1-2.087.128-2.8.113-4.475-.085-8.572-2.451-11.075-4.473A7.132,7.132,0,0,1,307,90.759a17.32,17.32,0,0,0-3.475-.677c-2.453-.312-4.9-.673-7.288-1.151-4.532-.9-9-2.26-12.255-4.4-3.022-1.982-4.092-5.523-9.191-5.985a14.786,14.786,0,0,0-2.492-.008c-2.687.266-4.919,1.037-6.039,2.21a2.321,2.321,0,0,0-.527,2.466,7.793,7.793,0,0,0,1.519,2.292c1.559,1.8,3.307,3.543,4.972,5.311,1.64,1.744,3.342,3.484,4.928,5.245a11.991,11.991,0,0,1,2.448,3.651,4.651,4.651,0,0,1,.3,1.506c.029,1.715-1.088,3.311-2.16,4.846q-1.9,2.711-3.784,5.425c-2.174,3.112-3.985,6.612-7.72,9.2s-9.464,3.873-13.959,5.962a67,67,0,0,0-12.232,7.495c-3.67,2.777-7.047,5.685-10.476,8.563-3.771,3.163-7.577,6.317-11.285,9.51-3.26,2.819-6.086,6.286-11.009,8.251a26.606,26.606,0,0,1-4.36,1.288c-.975.2-1.978.364-3,.495,4.3.5,9.23,1.184,14.042,2.128q.786.156,1.573.318a83.063,83.063,0,0,1,18.451,5.739,38.735,38.735,0,0,1,7.707,4.689,16.089,16.089,0,0,1,3.851,4.29,6.3,6.3,0,0,1,.755,5.156,11.254,11.254,0,0,1-3.137,4.2c-.223.221-.451.444-.677.668-1.687,1.668-3.741,3.972-.217,5.515a27.014,27.014,0,0,0,3.866,1.184c.568.147,1.136.293,1.68.455,1.389.415,2.748.87,4.052,1.372a46.9,46.9,0,0,1,7.608,3.693,33.712,33.712,0,0,1,6.832,5.406,28.877,28.877,0,0,1,2.84,3.785,23.955,23.955,0,0,0,1.78,2.36,13.724,13.724,0,0,0,6.449,3.691q.862.263,1.785.488c3.826.924,7.7,1.556,11.447,2.421a50.513,50.513,0,0,1,6.794,2,44.365,44.365,0,0,1,11.3,6.27c4.883,4.008,7.763,7.732,9.587,11.506q.539,1.116.959,2.248a22.279,22.279,0,0,1,1.426,8.654c-.01.263-.028.538-.046.82-.22,3.348-.729,8.054,4.888,10.037a35.863,35.863,0,0,0,5.83,1.229,24.027,24.027,0,0,1,3.494.8,20.213,20.213,0,0,1,4.073,1.883,16.516,16.516,0,0,1,1.8,1.275,19.125,19.125,0,0,1,2.784,2.815,44.566,44.566,0,0,1,4.081,6.559c2.023,3.62,4.22,7.106,8.534,10.1,4.5,3.076,9.657,5.531,13.372,8.665,2.947,2.618,3.987,4.887,4.2,7.212a11.042,11.042,0,0,1-.016,2.153c.214-.21.439-.415.678-.622,3.513-3.079,8.712-5.284,14.326-6.969q1.564-.47,3.147-.911c16.237-4.523,33.7-6.806,51.53-8.317,12.774-1.071,25.164-1.741,37.414-2.518q2.3-.146,4.6-.3M33.775,124.172a4.11,4.11,0,0,1-.425-1.633c-.422.466-.116,1.058.425,1.633" transform="translate(-2.252 -4.904)" fill="#d8d8d8"/>
          <path id="Path_126525" data-name="Path 126525" d="M249.549,208.268l-3.754.064-2.376.738-.051.171,1.055,1.158.535,2.76L243,216.384l-11.714,4.992-1.859,1.176.945.2c2.755.588,3.8.812,4.227.957l.006-.029.182.04.123.17,1.139,2.047-1.35,1.389-5.739,2.114-2.163,1.256-4.772,3.8-8.775,5.317-4.309,4.866-8.76-.414-4.217,2.887-2.51,1.044-5.643.22-.175-.172-1.425-1.674.619-2.651-.236-.53-1.6-.67-6.128-.858.005-.013h-.011l.165-.5,2.327-5.64-.273-1.075-.331-.207-4.24.638-10.555,3.242-1.724-.638-.013-.049-.068-.159-.547-1.832-.552-.017-6.86,1.336-.066-.169c-.456-.211-2-.9-3.494-1.562-3.351-1.492-4.493-2-4.879-2.26l-.033.042-1.9-1.494-3.8.678-2.165-2.153c4.938-.893,6.338-1.136,6.514-1.136h.348l.036.182,2.417,1.887,7.5,3.344,6.153-1.2,2.642.083.013.042.1.258.638,2.122c.985-.269,4.17-1.261,6.367-1.945a33.651,33.651,0,0,1,3.522-1.057l1.438-.22c2.369-.364,3.454-.529,3.644-.529h.249l.069.117,1.766,1.1.729,2.831-1.623,3.935.608.091c1.661.242,2.355.343,2.667.414a11.956,11.956,0,0,1,2.083.834c.332.138.579.242.611.256l.195.049.033.165.911,2.04-.509,2.186,3.9-.152,1.939-.807,4.611-3.18,8.411.394,3.881-4.324,8.906-5.388,4.8-3.826,2.522-1.449.009.017c.195-.1.631-.26,1.686-.648.714-.261,1.612-.592,2.339-.86l-.312-.066c-2.186-.461-3.2-.676-3.669-.831v.015h-.014c-.206,0-.234-.031-1.682-1.63-.21-.231-.39-.431-.5-.541l-.926-.166,5.277-3.312,11.1-4.744,1.049-1.731-.222-1.142-1.516-1.67.8-2.789,4.112-1.241,3.8-.031" transform="translate(-11.982 -18.316)" fill="#d8d8d8"/>
          <path id="Path_126526" data-name="Path 126526" d="M70.307,201.346l-.526,15.8-4.108-4.969.68-13.306Z" transform="translate(-5.38 -17.701)" fill="#757d85"/>
          <path id="Path_126527" data-name="Path 126527" d="M141.876,234.561,140.343,247.5l-1.985-2.122,1.354-12.966Z" transform="translate(-11.849 -20.686)" fill="#757d85"/>
          <path id="Path_126528" data-name="Path 126528" d="M387.287,374.739l-.182-.049c-.177-.049-.341-.1-.486-.147l-.054-.016c-.158-.053-.3-.1-.422-.156l-.091-.038c-.072-.031-.134-.061-.2-.091-.077-.036-.15-.074-.216-.11-.043-.025-.085-.048-.122-.072-.06-.038-.115-.075-.165-.111l-.091-.066c-.051-.041-.1-.081-.141-.121-.02-.017-.041-.036-.059-.053-.057-.055-.114-.108-.169-.162l-.693,13.64.169.162c.018.017.04.036.059.053.044.04.091.08.142.121.026.021.058.043.091.065.05.036.106.075.165.112l.122.071c.065.036.138.075.217.112.032.016.055.03.091.046l.1.045.091.039c.124.049.255.1.408.151h.014l.055.016c.146.047.31.1.486.147l.182.049c.066.017.125.036.195.053q.213.055.456.109l.7-13.64c-.241-.052-.451-.1-.651-.159" transform="translate(-33.731 -33.249)" fill="#757d85"/>
          <path id="Path_126529" data-name="Path 126529" d="M375.894,376.161l-.023.1-.064,2.745.42,1.481-.091,3.816a3.816,3.816,0,0,0-.436.547l-.139,2.723a5.651,5.651,0,0,0,.971,1.353c0-.005.01-.016.014-.02l.077-.133v.042c.058-.091.126-.182.182-.292l.055-.084c.008-.019.039-.084.064-.143.01-.036.026-.086.039-.128v-.013c.013-.037.025-.071.026-.076a1.243,1.243,0,0,1,.127-.305c.014-.023.028-.045.043-.067a1.822,1.822,0,0,1,.189-.252l.7-13.64a1.706,1.706,0,0,0-.127.153c-.025.032-.042.067-.064.1s-.029.045-.042.066-.019.027-.026.042a1.284,1.284,0,0,0-.077.182c-.008.026-.016.053-.023.078l-.026.074,0,.015-.005.016c-.013.037-.026.078-.034.109-.026.059-.056.125-.064.143l-.055.085c-.051.091-.106.166-.157.243v-.05c-.031.066-.07.127-.108.191l-.015.02q-.036.052-.068.107c-.091.078-.163.142-.247.207a6.864,6.864,0,0,1-1.023.282l0,.1a.182.182,0,0,1,.017.182" transform="translate(-32.962 -33.273)" fill="#646d75"/>
          <path id="Path_126530" data-name="Path 126530" d="M319.991,373.017l-.7,13.64-3.853.806.65-13.574Z" transform="translate(-27.611 -33.202)" fill="#757d85"/>
          <path id="Path_126531" data-name="Path 126531" d="M333.562,363.782a15.93,15.93,0,0,1,2.717.02,36.321,36.321,0,0,1,6.382.595c8.086,1.52,15.569,4.027,23.034,6.417a37.449,37.449,0,0,0,7.063,1.784c.01.117.009.222.026.332a1.457,1.457,0,0,0-.359.625c0,.009-.048.142-.068.215a.632.632,0,0,1-.065.143l-.049.085c-.061.108-.128.2-.182.291l.034-.1c-.031.066-.07.127-.107.191a.9.9,0,0,0-.085.127c-.091.077-.163.142-.247.208a4.323,4.323,0,0,1-.758.37c-6.424-.933-12.338-3.226-17.888-5.217q-1.055-.381-2.116-.757c-2.627-.928-5.295-1.822-8.1-2.551a36.691,36.691,0,0,0-6.945-1.337c-.526.006-1.051.022-1.573.049-.209.012-.417.025-.625.04l-.311.025c-.169.015-.34.03-.507.047a37.511,37.511,0,0,0-9.468,3.119c-.42.182-.834.39-1.237.606a7.266,7.266,0,0,0-1.458,1.72,5.787,5.787,0,0,0-.59,1.361l-3.65.82a2.77,2.77,0,0,1,.047-1.2c.411-1.4,1.766-2.551,3.5-3.547,2.681-2.29,7.071-3.726,11.874-4.245.444-.077.889-.147,1.342-.2.123-.014.247-.026.374-.036" transform="translate(-27.696 -32.375)" fill="#d8d8d8"/>
          <path id="Path_126532" data-name="Path 126532" d="M381.829,373.02c-1.74.129-3.945.244-3.945.244l-1.731,2.483a39.567,39.567,0,0,0,5.672,0,31.177,31.177,0,0,0,5.44-1.024l-2.66-3.244a4.144,4.144,0,0,1-2.779,1.54" transform="translate(-33.015 -33.065)" fill="#d8d8d8"/>
          <path id="Path_126533" data-name="Path 126533" d="M288.652,213.624l-1.934-12.681a1.366,1.366,0,0,1,.245-1.009l5.881-8.087a1.367,1.367,0,0,1,.494-.419l8.819-4.411,13.948-6.279V166.182a1.366,1.366,0,0,1,.492-1.049l4.41-3.676a1.367,1.367,0,0,1,.875-.317h22.892v-7.057l-4.894-7.688-2.894-3.618a1.366,1.366,0,0,1-.059-1.628l8.091-11.765a1.366,1.366,0,0,1,1.125-.592h5.246v-6.719a1.367,1.367,0,0,1,.547-1.093l9.8-7.351-7.218-12.178,2.35-1.393,7.843,13.231a1.366,1.366,0,0,1-.354,1.79l-10.235,7.677v7.4a1.367,1.367,0,0,1-1.367,1.366h-5.893l-7.106,10.336,2.307,2.884a1.3,1.3,0,0,1,.091.12l5.146,8.085a1.377,1.377,0,0,1,.214.729V162.5a1.366,1.366,0,0,1-1.366,1.366H322.385l-3.538,2.949v14.8a1.366,1.366,0,0,1-.806,1.246l-14.7,6.618-8.472,4.238-5.354,7.364,1.849,12.13Z" transform="translate(-25.053 -8.906)" fill="#d8d8d8"/>
          <path id="Path_126534" data-name="Path 126534" d="M148.176,134l-1.907-1.959c.182-.176,4.49-4.293,13.931-3.516,7.546.622,8.974-.855,10.778-2.725.182-.182.358-.371.547-.557,2.226-2.227,12.332-3.553,16.331-4,3.111-5.05,6.233-11.051,6.111-12.328-.755-2.247-.182-11.028-.051-12.9V80.623a1.368,1.368,0,0,1,.07-.433l7.333-22,2.891-12.279V33.707c-2.845.415-7.686.865-9.686-.47-1.466-.729-12.315-.461-21.937.226h-12.5a1.366,1.366,0,0,1-.7-.19l-7.452-4.411a1.308,1.308,0,0,1-.2-.148l-13.058-11.42H125.7l-14.459,5.785a1.366,1.366,0,0,1-.508.1H87.942a1.366,1.366,0,0,1-1.275-.882L78.576.977,81.127,0,88.88,20.44h21.586l14.459-5.784a1.366,1.366,0,0,1,.508-.1H139.19a1.367,1.367,0,0,1,.9.338l13.35,11.681,7.021,4.156h11.977c6.358-.455,21.265-1.328,23.595.23,1.079.72,5.662.455,9.292-.208a1.366,1.366,0,0,1,1.59,1.1,1.386,1.386,0,0,1,.022.245V46.071a1.389,1.389,0,0,1-.036.312l-2.941,12.5a.9.9,0,0,1-.034.12L196.65,80.849V96.16c-.3,4.162-.514,10.628-.066,11.97.776,2.328-3.245,9.51-6.754,15.122a1.366,1.366,0,0,1-1.016.638c-6.487.683-14.2,2.134-15.352,3.28-.174.175-.343.35-.51.522-2.493,2.584-4.747,4.227-12.968,3.553-8.1-.665-11.652,2.611-11.8,2.75" transform="translate(-6.528)" fill="#d8d8d8"/>
          <path id="Path_126535" data-name="Path 126535" d="M267.623,90.075a1.373,1.373,0,0,1-.4-.059l-16.91-5.146a1.366,1.366,0,0,1-.968-1.307V73.472l-12.121-4.714H213.952V66.025h23.525a1.4,1.4,0,0,1,.5.091l13.233,5.146a1.366,1.366,0,0,1,.872,1.275V82.55l15.432,4.7,10.266-4.919a1.366,1.366,0,0,1,1.493.207l5.846,5.146-1.806,2.052-5.168-4.549-9.93,4.756a1.361,1.361,0,0,1-.589.134" transform="translate(-18.578 -5.877)" fill="#d8d8d8"/>
          <path id="Path_126536" data-name="Path 126536" d="M117.928,131.875h-2.733V110.012a1.366,1.366,0,0,1,.827-1.255l12.67-5.435-12.67-5.431c-.035-.015-.07-.032-.1-.05L87.3,82.571l-14.98-6.377H-.045l-.466-2.971,73.106.238a1.367,1.367,0,0,1,.535.109l15.292,6.5a1.181,1.181,0,0,1,.108.052l28.622,15.265L132.7,102.06a1.367,1.367,0,0,1,0,2.512l-14.77,6.345Z" transform="translate(0.511 -6.517)" fill="#d8d8d8"/>
          <path id="Path_126537" data-name="Path 126537" d="M264.353,321.371H261.62l-1.4-4.069V306.795l.781-1.235,10.078-4.776,10.444-4.614,8.079-13.953.424-.456,8.6-5.739.758-.23h24.978l11.086-21.249,2.423,1.264-11.469,21.983-1.212.734H299.8l-7.993,5.328-8.138,14.061-.629.566-10.819,4.779-9.264,4.391v9.58Z" transform="translate(-22.696 -22.656)" fill="#d8d8d8"/>
          <path id="Path_126538" data-name="Path 126538" d="M293.782,332.3H282.62a1.366,1.366,0,0,1-1.366-1.366V323.7h-19.53v-2.733h20.9a1.366,1.366,0,0,1,1.367,1.366v7.235h9.181l7.065-7.947,3.655-10.044V303.21a1.366,1.366,0,0,1,.512-1.067l8.592-6.876-9.7-15.039,2.3-1.481,10.373,16.082a1.366,1.366,0,0,1-.3,1.808l-9.045,7.236v7.945a1.34,1.34,0,0,1-.083.467L302.711,322.8a1.372,1.372,0,0,1-.262.441l-7.646,8.6a1.366,1.366,0,0,1-1.021.456" transform="translate(-22.83 -24.811)" fill="#d8d8d8"/>
          <path id="Path_126539" data-name="Path 126539" d="M317.814,366.351l-2.186-1.646,5.491-7.278,2.337-5.062-2.186-7.652H304.8l-12.223,6.314-3.389,2.542a1.366,1.366,0,0,1-1.886-.239l-3.838-4.785a1.367,1.367,0,0,1-.3-.855v-4.35a1.366,1.366,0,0,1,.911-1.286l6.411-2.288v-3.826h2.733v4.793a1.366,1.366,0,0,1-.911,1.287l-6.411,2.287v2.906l2.709,3.379,2.422-1.817a1.46,1.46,0,0,1,.192-.121l12.615-6.525a1.367,1.367,0,0,1,.629-.152H322.3a1.366,1.366,0,0,1,1.314.991l2.61,9.135a1.368,1.368,0,0,1-.073.948l-2.61,5.655a1.429,1.429,0,0,1-.15.25Z" transform="translate(-24.738 -29.901)" fill="#d8d8d8"/>
          <path id="Path_126540" data-name="Path 126540" d="M731.571,296.872l-.445-.167-2.551,1.055-.352.111-.273,13.49,3.627-1.166Z" transform="translate(-64.328 -26.409)" fill="#757d85"/>
        </g>
      </g>
    </g>
    <g id="named">
      <path id="www" d="M1666.924,1333.616a7.086,7.086,0,1,1-7.086-7.086,7.086,7.086,0,0,1,7.086,7.086" transform="translate(-1194.537 -1122.318)" fill="#fff"/>
      <text id="" transform="translate(443.317 242.806)" fill="#fff" font-size="16" font-family="SSTArabic-Bold, SST Arabic" font-weight="700"><tspan x="0" y="0"></tspan></text>
    </g>
    <g id="named-2" data-name="named" transform="translate(186 -16)">
      <path id="www-2" data-name="www" d="M1666.924,1333.616a7.086,7.086,0,1,1-7.086-7.086,7.086,7.086,0,0,1,7.086,7.086" transform="translate(-1194.537 -1122.318)" fill="#fff"/>
      <text id="_" data-name=" " transform="translate(407.801 242.384)" fill="#fff" font-size="16" font-family="SSTArabic-Bold, SST Arabic" font-weight="700"><tspan x="0" y="0"> </tspan></text>
    </g>
  </g>
</svg>
