<svg xmlns="http://www.w3.org/2000/svg" width="88.296" height="88.376" viewBox="0 0 88.296 88.376">
  <g id="serv-Icon4" transform="translate(0 0)">
    <path id="Path_130045" data-name="Path 130045" d="M86.863,44.232H63.32a1.471,1.471,0,0,0-1.471,1.354,17.393,17.393,0,0,1-4.9,10.845L45.662,48.955V39.45l3.605,2.119a9.049,9.049,0,0,0,8.976,0l5.886-3.428a1.471,1.471,0,0,0,0-2.531l-5.886-3.429a9.123,9.123,0,0,0-8.976,0L45.662,34.3V27.678L49.267,29.8a9.049,9.049,0,0,0,8.976,0l5.886-3.428a1.471,1.471,0,0,0,0-2.531l-5.886-3.429a9.123,9.123,0,0,0-8.976,0l-3.605,2.119V21.056l3.222-5.474a9.123,9.123,0,0,0,0-8.976L45.456.721a1.471,1.471,0,0,0-2.531,0L39.5,6.607a9.123,9.123,0,0,0,0,8.976l3.222,5.5v1.471l-3.605-2.119a9.123,9.123,0,0,0-8.976,0l-5.886,3.429a1.471,1.471,0,0,0,0,2.531l5.886,3.429a9.049,9.049,0,0,0,8.976,0l3.605-2.148V34.3l-3.605-2.119a9.123,9.123,0,0,0-8.976,0l-5.886,3.429a1.471,1.471,0,0,0,0,2.531l5.886,3.428a9.049,9.049,0,0,0,8.976,0l3.605-2.119v9.506L31.492,56.43A17.466,17.466,0,0,1,26.607,45.6a1.472,1.472,0,0,0-1.471-1.368H1.518A1.472,1.472,0,0,0,.047,45.7v7.357a1.472,1.472,0,0,0,1.471,1.471H7.4a37.842,37.842,0,0,0,3.5,8.476l-4.12,4.105a1.471,1.471,0,0,0-.008,2.081l.008.008L19.176,81.7a1.471,1.471,0,0,0,2.081.008l.008-.008,4.105-4.12a37.844,37.844,0,0,0,8.52,3.443V86.9a1.472,1.472,0,0,0,1.471,1.471H53.02A1.472,1.472,0,0,0,54.491,86.9V81.018a37.842,37.842,0,0,0,8.476-3.5l4.105,4.12a1.471,1.471,0,0,0,2.081.008l.008-.008,12.493-12.39a1.471,1.471,0,0,0,.008-2.081l-.008-.008-4.12-4.105a37.844,37.844,0,0,0,3.443-8.52h5.886a1.472,1.472,0,0,0,1.471-1.471V45.7a1.472,1.472,0,0,0-1.471-1.471M54.609,58.446a17.481,17.481,0,0,1-20.836,0L44.191,51.5ZM50.768,34.712a6.092,6.092,0,0,1,5.974,0l3.635,2.163L56.7,39.038a6.092,6.092,0,0,1-5.974,0l-3.59-2.163Zm0-11.772a6.092,6.092,0,0,1,5.974,0L60.377,25.1,56.7,27.266a6.092,6.092,0,0,1-5.974,0L47.134,25.1Zm-8.74-14.8L44.191,4.5l2.163,3.679a6.165,6.165,0,0,1,0,5.974l-2.163,3.59-2.163-3.679a6.166,6.166,0,0,1,0-5.93M37.613,27.266a6.092,6.092,0,0,1-5.974,0L28,25.1l3.679-2.163a6.092,6.092,0,0,1,5.974,0l3.59,2.163Zm0,11.772a6.092,6.092,0,0,1-5.974,0L28,36.875l3.679-2.163a6.092,6.092,0,0,1,5.974,0l3.59,2.163ZM85.392,51.589H79.9a1.472,1.472,0,0,0-1.471,1.118,35.17,35.17,0,0,1-4.047,9.77,1.471,1.471,0,0,0,.221,1.81l3.885,3.87L68.073,78.576l-3.826-3.885a1.471,1.471,0,0,0-1.81-.221,35.17,35.17,0,0,1-9.77,4.047,1.472,1.472,0,0,0-1.118,1.471v5.444H36.833V79.944a1.472,1.472,0,0,0-1.118-1.471,35.17,35.17,0,0,1-9.77-4.047,1.471,1.471,0,0,0-1.81.221l-3.87,3.885L9.847,68.158l3.885-3.87a1.471,1.471,0,0,0,.221-1.81,35.17,35.17,0,0,1-4.047-9.77,1.471,1.471,0,0,0-1.471-1.118H2.99V47.175H23.811a20.6,20.6,0,0,0,40.774,0H85.392Z" transform="translate(-0.038 0)" fill="#005d45"/>
    <path id="Path_130046" data-name="Path 130046" d="M349.29,12.591l1.192-3.576a4.415,4.415,0,1,0-2.943-.28l-.78,1.913H336.047v2.943h11.772a1.472,1.472,0,0,0,1.471-1m0-9.3a1.471,1.471,0,1,1-1.471,1.471,1.472,1.472,0,0,1,1.471-1.471" transform="translate(-274.237 -0.261)" fill="#46c752"/>
    <path id="Path_130047" data-name="Path 130047" d="M391.88,93.046l-1.118-3.576a1.472,1.472,0,0,0-1.471-1H376.047v2.943h12.184l.633,1.913a4.414,4.414,0,1,0,2.943-.28Zm-1.118,5.724a1.471,1.471,0,1,1,1.471-1.471,1.472,1.472,0,0,1-1.471,1.471" transform="translate(-306.88 -72.196)" fill="#46c752"/>
    <rect id="Rectangle_14202" data-name="Rectangle 14202" width="5.886" height="2.943" transform="translate(52.981 10.388)" fill="#46c752"/>
    <rect id="Rectangle_14203" data-name="Rectangle 14203" width="4.414" height="2.943" transform="translate(61.81 16.274)" fill="#46c752"/>
    <path id="Path_130048" data-name="Path 130048" d="M65.848,10.649H55.135L54.5,8.736a4.414,4.414,0,1,0-2.943.28l1.192,3.576a1.472,1.472,0,0,0,1.324,1H65.848ZM52.6,3.292a1.471,1.471,0,1,1-1.471,1.471A1.472,1.472,0,0,1,52.6,3.292" transform="translate(-39.353 -0.261)" fill="#46c752"/>
    <path id="Path_130049" data-name="Path 130049" d="M4.423,101.713a4.414,4.414,0,0,0,1.9-8.387l.633-1.913H19.138V88.47H5.895a1.472,1.472,0,0,0-1.471,1L3.231,93.046a4.414,4.414,0,0,0,1.192,8.667m0-5.886A1.471,1.471,0,1,1,2.952,97.3a1.472,1.472,0,0,1,1.471-1.471" transform="translate(0 -72.196)" fill="#46c752"/>
    <rect id="Rectangle_14204" data-name="Rectangle 14204" width="5.886" height="2.943" transform="translate(29.438 10.388)" fill="#46c752"/>
    <rect id="Rectangle_14205" data-name="Rectangle 14205" width="4.414" height="2.943" transform="translate(22.081 16.274)" fill="#46c752"/>
  </g>
</svg>
