<svg xmlns="http://www.w3.org/2000/svg" width="91.291" height="89.899" viewBox="0 0 91.291 89.899">
  <g id="serv-Icon5" transform="translate(0 0)">
    <path id="Path_130050" data-name="Path 130050" d="M270.242,374.838h0a1.112,1.112,0,1,0,0-2.224l-11.9-.023h0a1.112,1.112,0,1,0,0,2.224Z" transform="translate(-209.752 -303.82)" fill="#46c752"/>
    <path id="Path_130051" data-name="Path 130051" d="M353.228,372.773h0a1.112,1.112,0,0,0,0,2.224l1.38,0h0a1.112,1.112,0,0,0,0-2.224Z" transform="translate(-287.121 -303.968)" fill="#46c752"/>
    <path id="Path_130052" data-name="Path 130052" d="M398.969,372.862a1.112,1.112,0,0,0,0,2.224l15.5.03h0a1.112,1.112,0,0,0,0-2.224l-15.5-.03Z" transform="translate(-324.423 -304.04)" fill="#46c752"/>
    <path id="Path_130053" data-name="Path 130053" d="M322.387,474.7l-36.3-.069h0a1.112,1.112,0,1,0,0,2.224l36.3.069h0a1.112,1.112,0,1,0,0-2.224" transform="translate(-232.373 -387.024)" fill="#46c752"/>
    <path id="Path_130054" data-name="Path 130054" d="M102.8.567a2.221,2.221,0,0,0-1.722-.553C83.255,1.977,68.692,8.667,57.8,19.9A61.727,61.727,0,0,0,44,42,4.47,4.47,0,0,0,42.4,43.151a5.125,5.125,0,0,1-2.891,1.672l-6.65,1.234a2.238,2.238,0,0,1-.622.028l0-2.059,6.223-.957a7.234,7.234,0,0,0,3.5-1.558,7.468,7.468,0,0,1,1.324-.854,1.112,1.112,0,0,0-.976-2,9.862,9.862,0,0,0-1.762,1.137,5.007,5.007,0,0,1-2.426,1.076l-5.881.9,0-1.674c.008-4.451-2.554-8.255-3.651-9.679a1.153,1.153,0,0,1-.24-.709v-.574a6.223,6.223,0,0,0,4.278-.4,6.564,6.564,0,0,0,2.98-2.93,22.057,22.057,0,0,0,2.206-8.963,1.112,1.112,0,1,0-2.22-.13c0,.007,0,.014,0,.02a19.777,19.777,0,0,1-1.981,8.091,4.311,4.311,0,0,1-1.941,1.9,3.923,3.923,0,0,1-3.605-.089q-.115-.064-.229-.136a1.109,1.109,0,0,0-.34-.14l-1.921-1.248a1.148,1.148,0,0,0-1.455.134,1.112,1.112,0,0,0,.2,1.7l1.81,1.176,0,1.584a3.407,3.407,0,0,0,.705,2.074c.96,1.247,3.193,4.554,3.186,8.314l-.007,3.664-1.981-5.3c0-.012-.009-.024-.014-.036a10.378,10.378,0,0,0-2.006-3.567,4.672,4.672,0,0,0-2.4-1.2,1.113,1.113,0,0,0-1.3,1.177,1.129,1.129,0,0,0,.94,1.018,2.456,2.456,0,0,1,1.239.629,9.643,9.643,0,0,1,1.46,2.773l2.3,6.154a4.47,4.47,0,0,0,5,2.83l6.524-1.21a7.2,7.2,0,0,0,4.237-2.363,2.3,2.3,0,0,1,3.532.02,2.352,2.352,0,0,1,.152,2.7,6.455,6.455,0,0,1-3.844,2.933c-2.575.714-7.1,1.818-11.365,2.582a6.4,6.4,0,0,1-6.544-2.9,71.089,71.089,0,0,1-5.294-9.776,5.707,5.707,0,0,1-.312-2.227,14.047,14.047,0,0,1,.661-4.235l.089-.279a16.315,16.315,0,0,0,.766-4.906l.008-4.142L22.418,24a3.1,3.1,0,0,0,.679-4.019l-.025-.042a1.11,1.11,0,0,1,.178-1.4,1.04,1.04,0,0,1,1.3-.195,3.074,3.074,0,0,1,.927.895,1.112,1.112,0,0,0,1.551.256l.056-.043a9.019,9.019,0,0,0,2.87-5.014l6.7.013,5.377.01h.007a3.378,3.378,0,0,0,3.235-2.3,3.425,3.425,0,0,0-3.229-4.526L39.7,7.63h0a1.086,1.086,0,0,0-1.009.632,1.119,1.119,0,0,0,1.009,1.591l2.3.005A1.219,1.219,0,0,1,43.2,10.8a1.191,1.191,0,0,1-.921,1.41,1.211,1.211,0,0,1-.243.025h0l-4.284-.008c-.143-2.469-1.093-8.147-6.675-10.494a11.611,11.611,0,0,0-10.744.908c-2.418,1.543-5.3,4.642-5.315,10.648a1.117,1.117,0,0,0,1.109,1.121l11.566.022a6.693,6.693,0,0,1-1.284,2.523,4.582,4.582,0,0,0-.741-.537,3.259,3.259,0,0,0-4,.566,3.329,3.329,0,0,0-.491,4.1l.041.066A.872.872,0,0,1,21,22.281l-.241.2A8.976,8.976,0,0,1,17.5,16.841a1.144,1.144,0,0,0-1.076-.948,1.112,1.112,0,0,0-1.116,1.326,10.891,10.891,0,0,0,4.343,7.192l-.008,4.171a14.073,14.073,0,0,1-.662,4.238l-.461,1.45A9.307,9.307,0,0,0,18.126,38v0a7.928,7.928,0,0,0,.489,3.1A73.287,73.287,0,0,0,24.08,51.2,8.606,8.606,0,0,0,32.891,55.1c4.344-.778,8.946-1.9,11.567-2.628a8.663,8.663,0,0,0,5.086-3.814,4.642,4.642,0,0,0-.307-5.412,4.429,4.429,0,0,0-2.759-1.551C50.127,31.87,63.022,6.834,100.4,2.333c-7.875,1.29-37.106,8.018-50.621,37.878a1.113,1.113,0,0,0,.556,1.473,1.093,1.093,0,0,0,.219.073,1.142,1.142,0,0,0,1.27-.671C65.439,11.057,95.545,5.267,101.591,4.4a2.244,2.244,0,0,0,1.679-1.14A2.208,2.208,0,0,0,102.8.567ZM21.527,4.517a9.388,9.388,0,0,1,8.686-.734c4.364,1.835,5.174,6.369,5.312,8.441L17.281,12.19a9.344,9.344,0,0,1,4.246-7.672" transform="translate(-12.244 -0.001)" fill="#005d45"/>
    <path id="Path_130055" data-name="Path 130055" d="M372.058,69.988a1.112,1.112,0,0,0-1.461.581c-1.513,3.513-2.512,8.672.988,13.707a8.048,8.048,0,0,0-1.418,8.061,1.112,1.112,0,0,0,1.72.445l3.213-2.56,3.13,2.565a1.112,1.112,0,0,0,1.737-.448c.732-1.835,1.186-5.755-1.809-8.384,1.254-2.273,3.9-8.42.16-14.678a4.051,4.051,0,0,0-2.952-1.955A23.752,23.752,0,0,1,381.6,51.281c8.063-8.487,8.488-14.206,8.5-14.446a1.112,1.112,0,0,0-2.22-.131c0,.05-.386,5.142-7.894,13.045a25.721,25.721,0,0,0-6.811,18.692,1.291,1.291,0,0,0,1.359,1.08,1.885,1.885,0,0,1,1.871.9c3.872,6.474-.447,12.914-.632,13.183a1.112,1.112,0,0,0,.282,1.547l.021.014a4.849,4.849,0,0,1,2.174,4.77l-2.44-2a1.112,1.112,0,0,0-1.4-.01l-2.564,2.043a6.751,6.751,0,0,1,1.93-4.838,1.112,1.112,0,0,0,.1-1.484c-2.787-3.537-3.2-7.641-1.243-12.2A1.112,1.112,0,0,0,372.058,69.988Z" transform="translate(-301.063 -29.08)" fill="#005d45"/>
    <path id="Path_130056" data-name="Path 130056" d="M1.111,272.826l13.659.026h0l16.662.032,4.336.008-.028,14.037c0,.15.008.3.02.445l-.015,7.716a1.112,1.112,0,0,0,1.109,1.114h0a1.112,1.112,0,0,0,1.112-1.11l.007-3.868a5.315,5.315,0,0,0,.661.392l4.795,2.388a3.474,3.474,0,0,0,3.7-5.837l-2.453-1.932a2.41,2.41,0,0,1-.914-2.038l.912-14.989a5.982,5.982,0,0,0-4.5-6.159l-8.446-2.131-1.233-.311a1.112,1.112,0,1,0-.544,2.156l.391.1-.015,7.793-6.352-.009-9.2-.018a6.5,6.5,0,0,1-6.548-4.92l4.978-2.633a1.112,1.112,0,0,0-1.021-1.975l-.019.01-4.1,2.168.017-9.036a1.112,1.112,0,0,0-1.11-1.114h0a1.112,1.112,0,0,0-1.112,1.109l-.02,10.883a1.113,1.113,0,0,0,.011.153.019.019,0,0,0,0,0,9.379,9.379,0,0,0,2.837,5.337L1.115,270.6h0a1.112,1.112,0,1,0,0,2.224Zm41.347-3.749-.912,14.989a4.634,4.634,0,0,0,1.758,3.919l2.453,1.932a1.25,1.25,0,0,1-1.33,2.1l-4.794-2.388a2.98,2.98,0,0,1-1.645-2.4l.029-15.446a1.112,1.112,0,0,0-1.109-1.114l-4.356-.008.014-7.237,7.066,1.783A3.756,3.756,0,0,1,42.458,269.077Z" transform="translate(0 -206.408)" fill="#005d45"/>
    <path id="Path_130057" data-name="Path 130057" d="M394.99,240.705a1.159,1.159,0,0,0,.22-.022,1.2,1.2,0,0,0,.208-.064,1.074,1.074,0,0,0,.192-.1,1.135,1.135,0,0,0,.167-.136,1.108,1.108,0,0,0,.006-1.567l-.006-.006a1.361,1.361,0,0,0-.167-.139,1.267,1.267,0,0,0-.192-.1,1.193,1.193,0,0,0-.208-.064,1.112,1.112,0,1,0-.22,2.2" transform="translate(-321.176 -194.463)" fill="#46c752"/>
    <path id="Path_130058" data-name="Path 130058" d="M100.258,97.707a1.112,1.112,0,1,0,.784-.325,1.112,1.112,0,0,0-.784.325" transform="translate(-81.487 -79.408)" fill="#46c752"/>
    <path id="Path_130059" data-name="Path 130059" d="M253.67,412.511a1.112,1.112,0,0,0,1.112,1.112h23.493a1.112,1.112,0,1,0,0-2.224H254.782A1.112,1.112,0,0,0,253.67,412.511Z" transform="translate(-206.848 -335.464)" fill="#46c752"/>
    <path id="Path_130060" data-name="Path 130060" d="M435.527,411.4H424.733a1.112,1.112,0,0,0,0,2.224h10.794a1.112,1.112,0,1,0,0-2.224" transform="translate(-345.43 -335.464)" fill="#46c752"/>
  </g>
</svg>
