<svg xmlns="http://www.w3.org/2000/svg" width="89.99" height="89.899" viewBox="0 0 89.99 89.899">
  <g id="serv-Icon2" transform="translate(0 0)">
    <path id="Path_130019" data-name="Path 130019" d="M45.077,388.644a11.07,11.07,0,0,1,7.1-2.3,1.406,1.406,0,0,0,0-2.812,13.81,13.81,0,0,0-8.855,2.913,1.406,1.406,0,0,0,1.754,2.2Z" transform="translate(-35.291 -316.137)" fill="#46c752"/>
    <path id="Path_130020" data-name="Path 130020" d="M357.148,390.272c-3.257,1.453-5.05,3.992-5.05,7.147a1.406,1.406,0,0,0,2.812,0c0-2.065,1.107-3.563,3.385-4.579a1.406,1.406,0,1,0-1.129-2.575Z" transform="translate(-290.225 -321.587)" fill="#46c752"/>
    <path id="Path_130021" data-name="Path 130021" d="M455.241,364.227a14.85,14.85,0,0,1,6.519,6.016,1.406,1.406,0,0,0,2.53-1.224,17.422,17.422,0,0,0-7.833-7.326,1.406,1.406,0,0,0-1.234,2.526l.016.008Z" transform="translate(-374.578 -298.015)" fill="#005d45"/>
    <path id="Path_130022" data-name="Path 130022" d="M71.7,352.944a1.406,1.406,0,0,0-1.6-1.176c-6.894,1.059-13.85,5.744-13.85,13.824a11.247,11.247,0,0,1-22.493,0c0-8.77-8.435-14.058-16.87-14.058-11.978,0-16.533,8.836-16.721,9.212a1.406,1.406,0,0,0,2.513,1.262c.159-.313,4.019-7.662,14.208-7.662,5.838,0,14.058,3.489,14.058,11.247a14.058,14.058,0,0,0,28.116,0c0-6.414,5.758-10.169,11.465-11.045a1.406,1.406,0,0,0,1.176-1.6" transform="translate(0 -289.76)" fill="#005d45"/>
    <path id="Path_130023" data-name="Path 130023" d="M205.658,95.161c.152.219,3.778,5.37,8.062,6.663a7.4,7.4,0,0,0,3.458.218,7.312,7.312,0,0,0,.212,3.421c1.285,4.256,6.429,7.848,6.647,8a1.407,1.407,0,0,0,2.1-.635c.1-.246,2.4-6.085,1.11-10.342a7.592,7.592,0,0,0-4.033-4.655l4.259-4.258c2.778,2.607,2.978,3.394,3.976,3.394a1.407,1.407,0,0,0,.994-2.4L224.5,86.614a1.406,1.406,0,1,0-2,1.976l.012.012,2.983,2.982-4.211,4.211a7.62,7.62,0,0,0-4.582-3.834c-4.283-1.293-10.154.991-10.4,1.09a1.406,1.406,0,0,0-.637,2.11m15.138,5.282c.189-.141.354-.273.495-.392,4.15,1.5,4.04,5.62,2.835,9.909-3.217-2.788-5.624-6.011-3.33-9.517m-1.624-2.506c-.118.138-.25.3-.388.486-3.523,2.287-6.793-.105-9.611-3.353,4.312-1.192,8.47-1.3,10,2.867" transform="translate(-169.311 -71.049)" fill="#46c752"/>
    <path id="Path_130024" data-name="Path 130024" d="M122.685,54.333a1.406,1.406,0,0,0,1.988,0,7.023,7.023,0,0,1,9.932-.007l.007.007a1.407,1.407,0,0,0,1.988,0l24.854-24.851a5.63,5.63,0,0,0,0-7.952L141.573,1.647a5.621,5.621,0,0,0-7.949,0l0,0L128.9,6.364a1.406,1.406,0,1,0,1.988,1.989c4.446-4.138,4.774-5.54,6.7-5.54,2.1,0,1,.243,21.87,20.7a2.815,2.815,0,0,1,0,3.976L135.538,51.421a9.843,9.843,0,0,0-11.788,0L105.785,33.457l3.976-3.976c16.454,16.233,15.792,16.317,16.9,16.317a1.407,1.407,0,0,0,.994-2.4L111.749,27.492l9.218-9.217a1.406,1.406,0,0,0-1.988-1.988L102.8,32.463a1.406,1.406,0,0,0,0,1.988Z" transform="translate(-84.399 0.001)" fill="#005d45"/>
    <path id="Path_130025" data-name="Path 130025" d="M241.5,319.534a1.406,1.406,0,1,1-1.406,1.406,1.406,1.406,0,0,1,1.406-1.406" transform="translate(-197.906 -263.383)" fill="#46c752"/>
    <path id="Path_130026" data-name="Path 130026" d="M225.5,63.534A1.406,1.406,0,1,1,224.1,64.94a1.406,1.406,0,0,1,1.406-1.406" transform="translate(-184.718 -52.369)" fill="#46c752"/>
    <path id="Path_130027" data-name="Path 130027" d="M273.5,351.534a1.406,1.406,0,1,1-1.406,1.406,1.406,1.406,0,0,1,1.406-1.406" transform="translate(-224.284 -289.76)" fill="#46c752"/>
    <path id="Path_130028" data-name="Path 130028" d="M425.5,351.534a1.406,1.406,0,1,1-1.406,1.406,1.406,1.406,0,0,1,1.406-1.406" transform="translate(-349.573 -289.76)" fill="#46c752"/>
    <path id="Path_130029" data-name="Path 130029" d="M241.5,383.534a1.406,1.406,0,1,1-1.406,1.406,1.406,1.406,0,0,1,1.406-1.406" transform="translate(-197.906 -316.137)" fill="#46c752"/>
    <path id="Path_130030" data-name="Path 130030" d="M209.5,415.534a1.406,1.406,0,1,1-1.406,1.406,1.406,1.406,0,0,1,1.406-1.406" transform="translate(-171.529 -342.513)" fill="#46c752"/>
    <path id="Path_130031" data-name="Path 130031" d="M257.5,415.534a1.406,1.406,0,1,1-1.406,1.406,1.406,1.406,0,0,1,1.406-1.406" transform="translate(-211.095 -342.513)" fill="#46c752"/>
    <path id="Path_130032" data-name="Path 130032" d="M273.5,447.534a1.406,1.406,0,1,1-1.406,1.406,1.406,1.406,0,0,1,1.406-1.406" transform="translate(-224.284 -368.89)" fill="#46c752"/>
    <path id="Path_130033" data-name="Path 130033" d="M241.5,463.534a1.406,1.406,0,1,1-1.406,1.406,1.406,1.406,0,0,1,1.406-1.406" transform="translate(-197.906 -382.078)" fill="#46c752"/>
    <path id="Path_130034" data-name="Path 130034" d="M43.346,415.534a7,7,0,0,0-6.445,4.219,4.926,4.926,0,0,0-4.8,4.919c0,4.751,6.326,6.366,6.326,3.515a1.406,1.406,0,0,0-1.406-1.406,2.109,2.109,0,1,1,0-4.217c.492,0,.942.3,1.586-.1a1.4,1.4,0,0,0,.637-.879,4.218,4.218,0,0,1,8.321.975,1.406,1.406,0,0,0,1.406,1.406c3.2,0,.913-8.435-5.623-8.435" transform="translate(-26.458 -342.513)" fill="#005d45"/>
    <path id="Path_130035" data-name="Path 130035" d="M421.937,421.354a6.967,6.967,0,0,0-6.966-5.82c-6.672,0-8.78,8.435-5.623,8.435a1.406,1.406,0,0,0,1.406-1.406c0-5.63,8.471-5.59,8.471,0a1.406,1.406,0,0,0,1.406,1.406c1.245,0,2.775,1.762,2.775,3.2a2.784,2.784,0,0,1-2.812,2.428A1.406,1.406,0,0,0,419.188,431c0,3.04,7.029.91,7.029-3.834a6.5,6.5,0,0,0-4.281-5.81" transform="translate(-336.228 -342.513)" fill="#005d45"/>
  </g>
</svg>
