<svg xmlns="http://www.w3.org/2000/svg" width="93.275" height="89.899" viewBox="0 0 93.275 89.899">
  <g id="serv-Icon7" transform="translate(0 0)">
    <path id="Path_130013" data-name="Path 130013" d="M387.7,35.455a1.693,1.693,0,0,0-.474-3.133L376.911,30a1.693,1.693,0,0,0-1.771,2.627l2.212,3.122a5.36,5.36,0,0,0,7.011,1.58Zm-4.674-.512a2.633,2.633,0,0,1-3.444-.776l-.646-.912L384,34.4Z" transform="translate(-306.544 -24.498)" fill="#46c752"/>
    <path id="Path_130014" data-name="Path 130014" d="M93.02,85.87c-2.655-5.89-9.259-9.663-18.3-10.545l3.111-13.8A3.357,3.357,0,0,0,75.3,57.508l-5.7-1.285,8.39-37.232,5.84-3.276A7.148,7.148,0,0,0,81.9,2.508L71.549.175a7.148,7.148,0,0,0-7.4,11.1l3.871,5.464L65.134,29.532a1.366,1.366,0,0,0,2.666.6l2.715-12.048,4.636,1.045L66.927,55.622l-4.636-1.045,4.2-18.651a1.366,1.366,0,0,0-2.666-.6l-4.2,18.651-5.7-1.285a3.361,3.361,0,0,0-4.013,2.537L47.463,66.082a74.171,74.171,0,0,0-7.507-.373A70.288,70.288,0,0,0,27.2,66.825V50.742A3.973,3.973,0,0,1,30.76,46.79a4.061,4.061,0,0,1,.73-.009,9.143,9.143,0,0,0,1.634,6.96c2.809,3.889,8.463,5.685,11.366,5.9.055,0,.109.006.163.006a2.179,2.179,0,0,0,2.107-2c.58-3.762-.269-10.736-5.014-13.434-4.283-2.435-7.358-1.363-8.957.024a6.7,6.7,0,0,0-8.326,6.5v3.71a6.676,6.676,0,0,0-5.594-1.105c-1.6-1.386-4.674-2.458-8.957-.023C5.167,56.021,4.319,63,4.9,66.758a2.179,2.179,0,0,0,2.107,2c.054,0,.108,0,.163-.006,2.9-.219,8.557-2.015,11.366-5.9a9.142,9.142,0,0,0,1.634-6.96,4.044,4.044,0,0,1,.73.009,3.973,3.973,0,0,1,3.564,3.952V67.4a46.811,46.811,0,0,0-9.518,3.289C7.593,74.218,2.481,79.55.161,86.109A2.846,2.846,0,0,0,2.849,89.9H70.7a1.366,1.366,0,0,0,0-2.733H2.849a.11.11,0,0,1-.1-.051.093.093,0,0,1-.015-.094c2.9-8.2,10.67-14.072,21.725-16.823v8.994a1.366,1.366,0,1,0,2.733,0v-9.6a67.212,67.212,0,0,1,12.76-1.154C52.52,68.441,63.19,71.5,70,77.049a3.775,3.775,0,0,0,2.221.841c9.191.366,15.863,3.684,18.306,9.1a.12.12,0,0,1-.007.123.1.1,0,0,1-.092.05H77.076a1.366,1.366,0,0,0,0,2.733H90.429A2.85,2.85,0,0,0,93.02,85.87ZM70.295,15.234,66.375,9.7a4.415,4.415,0,0,1,4.574-6.859L81.3,5.173a4.415,4.415,0,0,1,1.189,8.158l-5.914,3.317ZM34.109,48.042l3.012,2.7a1.366,1.366,0,1,0,1.824-2.035l-3.3-2.959-.044-.038c.994-.361,2.547-.4,4.795.879,3.473,1.975,4,7.6,3.713,10.262-2.285-.336-6.619-1.736-8.769-4.712a6.315,6.315,0,0,1-1.23-4.1M16.319,61.25c-2.149,2.976-6.484,4.376-8.769,4.712-.285-2.663.24-8.287,3.713-10.262a7.169,7.169,0,0,1,3.5-1.1,3.757,3.757,0,0,1,1.294.219l-.043.037-3.3,2.959a1.366,1.366,0,0,0,1.824,2.035l3.012-2.7a6.315,6.315,0,0,1-1.23,4.1ZM71.977,75.077a1.015,1.015,0,0,1-.249-.147c-5.325-4.34-12.775-7.255-21.539-8.514l2.386-10.587a.625.625,0,0,1,.746-.472L74.7,60.174a.624.624,0,0,1,.472.746Z" transform="translate(0 0)" fill="#005d45"/>
    <path id="Path_130015" data-name="Path 130015" d="M71.393,441.738a1.366,1.366,0,1,0,1.366-1.366,1.366,1.366,0,0,0-1.366,1.366" transform="translate(-58.387 -360.146)" fill="#46c752"/>
    <path id="Path_130016" data-name="Path 130016" d="M105.029,431.006a1.366,1.366,0,1,1-1.366,1.366,1.366,1.366,0,0,1,1.366-1.366" transform="translate(-84.778 -352.486)" fill="#46c752"/>
    <path id="Path_130017" data-name="Path 130017" d="M279.247,404.727a1.366,1.366,0,1,0,1.366-1.366,1.366,1.366,0,0,0-1.366,1.366" transform="translate(-228.374 -329.878)" fill="#46c752"/>
    <path id="Path_130018" data-name="Path 130018" d="M315.217,412.723a1.366,1.366,0,1,0,1.366-1.366,1.366,1.366,0,0,0-1.366,1.366" transform="translate(-257.792 -336.417)" fill="#46c752"/>
  </g>
</svg>
