<svg id="serv-Icon6" xmlns="http://www.w3.org/2000/svg" width="89.899" height="89.899" viewBox="0 0 89.899 89.899">
  <path id="Path_130061" data-name="Path 130061" d="M113.5,14.983a1.5,1.5,0,0,1-1.5-1.5V1.5A1.5,1.5,0,0,1,113.5,0h47.946a1.5,1.5,0,0,1,0,3H115V13.485a1.5,1.5,0,0,1-1.5,1.5" transform="translate(-91.024)" fill="#005d45"/>
  <path id="Path_130062" data-name="Path 130062" d="M387.412,20.986H369.495a1.5,1.5,0,0,1-1.5-1.5V9a1.5,1.5,0,1,1,3,0v8.99H383.8L368.431,2.566A1.5,1.5,0,1,1,370.556.453l17.917,17.98a1.5,1.5,0,0,1-1.061,2.553Z" transform="translate(-299.074 -0.01)" fill="#005d45"/>
  <path id="Path_130063" data-name="Path 130063" d="M283.451,167.919H241.5a1.5,1.5,0,0,1,0-3h40.454V97.5a1.5,1.5,0,1,1,3,0v68.922a1.5,1.5,0,0,1-1.5,1.5" transform="translate(-195.051 -78.02)" fill="#005d45"/>
  <path id="Path_130064" data-name="Path 130064" d="M61.485,96A13.5,13.5,0,0,0,48,109.485a13.3,13.3,0,0,0,2.853,8.265c2.589,3.311,6.137,7.851,6.137,12.286v.426a1.5,1.5,0,1,0,3,0v-.426c0-5.469-3.914-10.476-6.79-14.159a10.287,10.287,0,0,1-2.2-6.392,10.488,10.488,0,1,1,20.976,0,10.327,10.327,0,0,1-2.218,6.419c-2.859,3.656-6.772,8.663-6.772,14.132v6.419h1.5a2.892,2.892,0,0,1,1.5.458v-6.877c0-4.435,3.548-8.975,6.158-12.313a13.273,13.273,0,0,0,2.832-8.238A13.5,13.5,0,0,0,61.485,96" transform="translate(-39.01 -78.02)" fill="#005d45"/>
  <path id="Path_130065" data-name="Path 130065" d="M43.451,369.98H1.5a1.5,1.5,0,0,1-1.5-1.5v-5.993A10.5,10.5,0,0,1,10.488,352h1.5a1.5,1.5,0,0,1,0,3h-1.5A7.5,7.5,0,0,0,3,362.488v4.495H41.953v-4.495A7.5,7.5,0,0,0,34.461,355H19.478a1.5,1.5,0,0,1,0-3H34.461a10.5,10.5,0,0,1,10.488,10.488v5.993a1.5,1.5,0,0,1-1.5,1.5" transform="translate(0 -286.074)" fill="#46c752"/>
  <path id="Path_130066" data-name="Path 130066" d="M53.458,440.99H17.5a1.5,1.5,0,0,1-1.5-1.5V433.5a1.5,1.5,0,0,1,1.5-1.5h35.96a1.5,1.5,0,0,1,1.5,1.5v5.993a1.5,1.5,0,0,1-1.5,1.5m-34.461-3H51.96v-3H19Z" transform="translate(-13.003 -351.091)" fill="#46c752"/>
  <path id="Path_130067" data-name="Path 130067" d="M93.485,309.993a1.5,1.5,0,0,1-1.5-1.5,1.5,1.5,0,0,0-1.5-1.5H84.495a1.5,1.5,0,0,0-1.5,1.5,1.5,1.5,0,1,1-3,0A4.5,4.5,0,0,1,84.495,304h5.993a4.5,4.5,0,0,1,4.495,4.495,1.5,1.5,0,0,1-1.5,1.5" transform="translate(-65.017 -247.064)" fill="#46c752"/>
  <path id="Path_130068" data-name="Path 130068" d="M281.447,212.979h-.036a1.5,1.5,0,0,1-1.118-.539l-7.492-8.99a1.5,1.5,0,0,1,2.3-1.921L281.5,209.2l15.322-16.715a1.5,1.5,0,1,1,2.205,2.026l-16.475,17.98a1.49,1.49,0,0,1-1.1.485" transform="translate(-221.427 -156.043)"/>
  <path id="Path_130069" data-name="Path 130069" d="M241.98,211.96a17.98,17.98,0,1,1,9.059-33.514,1.5,1.5,0,0,1-1.51,2.589,14.985,14.985,0,1,0,7.435,12.945,15.152,15.152,0,0,0-.345-3.212,1.5,1.5,0,1,1,2.928-.644,18.289,18.289,0,0,1,.414,3.857A18,18,0,0,1,241.98,211.96Z" transform="translate(-182.047 -143.037)" fill="#46c752"/>
  <path id="Path_130070" data-name="Path 130070" d="M212.976,97.5a1.5,1.5,0,0,1-1.5,1.5H193.5a1.5,1.5,0,0,1,0-3h17.98a1.5,1.5,0,0,1,1.5,1.5" transform="translate(-156.04 -78.02)" fill="#46c752"/>
  <path id="Path_130071" data-name="Path 130071" d="M218.97,65.5a1.5,1.5,0,0,1-1.5,1.5H193.5a1.5,1.5,0,0,1,0-3h23.973a1.5,1.5,0,0,1,1.5,1.5" transform="translate(-156.04 -52.013)" fill="#46c752"/>
</svg>
