<svg id="serv-Icon3" xmlns="http://www.w3.org/2000/svg" width="91.175" height="89.899" viewBox="0 0 91.175 89.899">
  <path id="Path_130036" data-name="Path 130036" d="M106.939,185.932c-8.224-4.4-18.434-2.694-23.822-1.134a3.455,3.455,0,0,0-2.411,1.843,2.873,2.873,0,0,0,.425,2.552,43.516,43.516,0,0,1,3.545,7.8c2.411,6.381,4.963,13.045,12.62,14.6a13.627,13.627,0,0,0,10.493-1.843,18.775,18.775,0,0,1,2.269,7.515H85.669a1.418,1.418,0,0,0,0,2.836h69.055a1.418,1.418,0,0,0,0-2.836h-41.4c.142-2.127,1.56-6.806,9.926-9.075a1.458,1.458,0,0,0,.992-1.7,1.346,1.346,0,0,0-1.7-.993c-1.276.425-2.552.851-3.545,1.276-.567-4.4,2.836-9.359,10.209-9.075,6.1.284,9.217-2.127,10.918-4.4a15.937,15.937,0,0,1-4.112,14.463,11.233,11.233,0,0,1-9.784,3.687,1.329,1.329,0,0,0-1.56,1.134c0,.709.425,1.56,1.134,1.56a14.234,14.234,0,0,0,12.194-4.537,18.76,18.76,0,0,0,3.687-20.56,1.243,1.243,0,0,0-1.418-.709,1.731,1.731,0,0,0-1.276,1.134c0,.283-1.418,5.814-9.784,5.388-9.642-.284-14.463,7.09-12.9,13.187a12.561,12.561,0,0,0-4.112,4.112,29.491,29.491,0,0,0-1.843-4.254c6.806-6.381,4.963-17.583-3.4-21.978Zm-3.545,14.747a1.364,1.364,0,0,0-1.276,2.411,17.616,17.616,0,0,1,4.537,4.112,11.082,11.082,0,0,1-8.508,1.418c-6.239-1.276-8.366-6.948-10.635-12.9a55.971,55.971,0,0,0-3.829-8.366c.142,0,.284-.142.425-.142,8.366-2.269,16.307-1.985,21.695.992,6.381,3.4,7.941,11.911,3.12,17.016A25.24,25.24,0,0,0,103.394,200.679Z" transform="translate(-65.392 -148.64)" fill="#005d45"/>
  <path id="Path_130037" data-name="Path 130037" d="M1.418,367.26H13.187a1.418,1.418,0,1,0,0-2.836H1.418a1.418,1.418,0,0,0,0,2.836" transform="translate(0 -295.795)" fill="#005d45"/>
  <path id="Path_130038" data-name="Path 130038" d="M143.16,12.431a1.46,1.46,0,1,0-1.418-2.552c-8.933,4.963-20.419-1.418-21.128-1.7-5.53-2.411-15.03-.992-19,1.418-6.1,3.829-14.747,12.9-18.575,16.59a4.579,4.579,0,0,0-.709,6.381,4.644,4.644,0,0,0,2.694,1.7,4.432,4.432,0,0,0,4.4-.567,33.367,33.367,0,0,1,7.941-4.963,1.4,1.4,0,1,0-1.134-2.552,39.492,39.492,0,0,0-8.366,5.246,2.058,2.058,0,0,1-1.7.284l-1.418-.851c-.851-.85-.284-1.843.567-2.694,5.388-4.963,13.612-13.755,18.008-16.023,3.97-2.411,12.336-2.978,15.881-1.56C121.323,11.438,132.808,18.1,143.16,12.431Z" transform="translate(-66.022 -5.625)" fill="#005d45"/>
  <path id="Path_130039" data-name="Path 130039" d="M217.714,2.836h7.232a1.34,1.34,0,0,0,1.418-1.418A1.34,1.34,0,0,0,224.945,0H216.3a1.34,1.34,0,0,0-1.418,1.418V17.583a.5.5,0,0,1-.284.142,14.757,14.757,0,0,0-3.545,3.12c-1.276,1.56-1.985,3.828-6.381,4.537-2.836.567-7.373.142-11.769-1.56a93.115,93.115,0,0,0-15.6-5.53c-4.4-.993-5.246-.709-6.1-.993a2.6,2.6,0,0,1-1.843-2.552c.142-1.985,3.261-1.134,5.1-.567,5.672,1.843,15.03,2.978,19.71-.142a1.551,1.551,0,0,0,.567-1.843,1.456,1.456,0,0,0-1.843-.709c-.142,0-6.381,3.545-17.016,0a14.774,14.774,0,0,0-3.97-.992,4.7,4.7,0,0,0-4.679,2.269c-1.56,2.552.709,6.523,3.828,7.232a47.19,47.19,0,0,1,8.224,1.56,71.069,71.069,0,0,1,12.336,4.679c4.537,1.7,9.217,2.694,14.038,1.843,5.388-.851,6.664-4.254,7.941-5.814a13.348,13.348,0,0,1,1.418-1.418v1.843a1.34,1.34,0,0,0,1.418,1.418h8.649a1.34,1.34,0,0,0,1.418-1.418V8.224a1.418,1.418,0,1,0-2.836,0V21.269h-5.956Z" transform="translate(-135.33)" fill="#005d45"/>
  <path id="Path_130040" data-name="Path 130040" d="M34.993,425.236a1.418,1.418,0,0,0,0-2.836H30.03a1.418,1.418,0,0,0,0,2.836Z" transform="translate(-23.224 -342.852)" fill="#46c752"/>
  <path id="Path_130041" data-name="Path 130041" d="M226.24,420.718a1.418,1.418,0,0,0,0-2.836h-4.963a1.418,1.418,0,0,0,0,2.836Z" transform="translate(-178.454 -339.185)" fill="#46c752"/>
  <path id="Path_130042" data-name="Path 130042" d="M336.17,462.13a1.418,1.418,0,0,0,0-2.836h-4.963a1.418,1.418,0,0,0,0,2.836Z" transform="translate(-267.682 -372.798)" fill="#46c752"/>
  <path id="Path_130043" data-name="Path 130043" d="M123.087,465.142a1.418,1.418,0,0,0,0-2.836h-4.963a1.418,1.418,0,0,0,0,2.836Z" transform="translate(-94.728 -375.243)" fill="#46c752"/>
  <path id="Path_130044" data-name="Path 130044" d="M415.228,410.177a1.418,1.418,0,0,0,0-2.836h-4.963a1.418,1.418,0,0,0,0,2.836Z" transform="translate(-331.852 -330.629)" fill="#46c752"/>
</svg>
