<svg id="img-Icon" xmlns="http://www.w3.org/2000/svg" width="59.645" height="46.945" viewBox="0 0 59.645 46.945">
  <path id="Path_130090" data-name="Path 130090" d="M57.661,7.314a6.413,6.413,0,0,0-4.706-1.984H43.543V5.216a5.09,5.09,0,0,0-1.531-3.685A5.188,5.188,0,0,0,38.327,0H21.318a5.227,5.227,0,0,0-5.273,5.216v.113H6.69A6.413,6.413,0,0,0,1.984,7.314,6.741,6.741,0,0,0,0,12.02V40.255a6.413,6.413,0,0,0,1.984,4.706A6.741,6.741,0,0,0,6.69,46.945H52.955a6.413,6.413,0,0,0,4.706-1.984,6.741,6.741,0,0,0,1.984-4.706V12.02a6.413,6.413,0,0,0-1.984-4.706M56.7,40.255H56.64a3.678,3.678,0,0,1-3.685,3.685H6.69A3.678,3.678,0,0,1,3,40.255V12.02A3.678,3.678,0,0,1,6.69,8.334H17.633A1.524,1.524,0,0,0,19.164,6.8V5.159a2.227,2.227,0,0,1,.624-1.588,2.227,2.227,0,0,1,1.588-.624H38.327a2.227,2.227,0,0,1,1.588.624,2.227,2.227,0,0,1,.624,1.588V6.8a1.524,1.524,0,0,0,1.531,1.531H53.012A3.678,3.678,0,0,1,56.7,12.02Z" fill="#fff"/>
  <path id="Path_130091" data-name="Path 130091" d="M125.947,86a13.937,13.937,0,1,0,9.865,4.082A13.972,13.972,0,0,0,125.947,86m7.711,21.715a10.951,10.951,0,0,1-15.422,0A10.839,10.839,0,0,1,115.062,100a11.08,11.08,0,0,1,3.175-7.711,10.839,10.839,0,0,1,7.711-3.175,11.08,11.08,0,0,1,7.711,3.175A10.839,10.839,0,0,1,136.833,100a10.609,10.609,0,0,1-3.175,7.711" transform="translate(-96.125 -73.81)" fill="#fff"/>
  <path id="Path_130092" data-name="Path 130092" d="M335.978,85.6a2.778,2.778,0,1,1-2.778,2.778,2.778,2.778,0,0,1,2.778-2.778" transform="translate(-285.972 -73.467)" fill="#fff"/>
</svg>
