<svg xmlns="http://www.w3.org/2000/svg" width="58.56" height="58.56" viewBox="0 0 58.56 58.56">
  <g id="Video_Icon" transform="translate(0 -0.109)">
    <path id="Path_130098" data-name="Path 130098" d="M29.28,55.632A26.352,26.352,0,1,0,2.928,29.28,26.352,26.352,0,0,0,29.28,55.632m0,2.928A29.28,29.28,0,1,0,0,29.28,29.28,29.28,0,0,0,29.28,58.56" transform="translate(0 0.109)" fill="#fff" fill-rule="evenodd"/>
    <path id="Path_130099" data-name="Path 130099" d="M195.589,157.888l-13.465-8.976v17.953Zm2.72-1.705a2.05,2.05,0,0,1,0,3.411l-15.927,10.618a2.05,2.05,0,0,1-3.187-1.706V147.271a2.05,2.05,0,0,1,3.187-1.705Z" transform="translate(-158.7 -128.499)" fill="#fff" fill-rule="evenodd"/>
  </g>
</svg>
