<svg id="EMIcon3" xmlns="http://www.w3.org/2000/svg" width="96.278" height="60.902" viewBox="0 0 96.278 60.902">
  <path id="Path_129847" data-name="Path 129847" d="M89.539,25.819l-2.493-9.973a1.508,1.508,0,0,0,1.193-1.474V12.764a6.339,6.339,0,0,0-6.331-6.331H70.551V3.116A3.119,3.119,0,0,0,67.435,0H9.547A3.119,3.119,0,0,0,6.432,3.116V30.452a1.508,1.508,0,0,0,3.015,0V3.116a.1.1,0,0,1,.1-.1H67.435a.1.1,0,0,1,.1.1V30.452a1.508,1.508,0,0,0,3.015,0V28.743H88.342a4.933,4.933,0,0,1,4.685,3.417H88.339a1.508,1.508,0,0,0-1.508,1.508v3.216a4.729,4.729,0,0,0,4.723,4.723h1.709V48.24H89.322a9.544,9.544,0,0,0-18.045,0H70.55V36.883a1.508,1.508,0,1,0-3.015,0V48.24H36.258a9.544,9.544,0,0,0-18.045,0H9.547a.1.1,0,0,1-.1-.1V44.823h6.532a1.508,1.508,0,0,0,0-3.015H1.508a1.508,1.508,0,1,0,0,3.015H6.432v3.317a3.119,3.119,0,0,0,3.116,3.116h8.143c0,.033,0,.067,0,.1a9.547,9.547,0,0,0,19.095,0c0-.034,0-.067,0-.1H70.754c0,.033,0,.067,0,.1a9.547,9.547,0,0,0,19.095,0c0-.034,0-.067,0-.1h4.927a1.508,1.508,0,0,0,1.508-1.508V33.667a7.951,7.951,0,0,0-6.74-7.849M70.551,9.447H81.907a3.32,3.32,0,0,1,3.317,3.317v.1H70.551Zm0,16.281V15.879h13.4l2.462,9.849ZM27.235,57.888a6.532,6.532,0,1,1,6.532-6.532,6.54,6.54,0,0,1-6.532,6.532m53.064,0a6.532,6.532,0,1,1,6.532-6.532A6.54,6.54,0,0,1,80.3,57.888m12.965-19.3H91.555a1.711,1.711,0,0,1-1.709-1.709V35.175h3.417v3.417Z" fill="#005d45"/>
  <path id="Path_129848" data-name="Path 129848" d="M131.383,256.535a3.116,3.116,0,1,0,3.116,3.116,3.119,3.119,0,0,0-3.116-3.116" transform="translate(-104.147 -208.295)" fill="#46c752"/>
  <path id="Path_129849" data-name="Path 129849" d="M413.57,256.535a3.116,3.116,0,1,0,3.116,3.116,3.119,3.119,0,0,0-3.116-3.116" transform="translate(-333.271 -208.295)" fill="#46c752"/>
  <path id="Path_129850" data-name="Path 129850" d="M229.246,222.331H206.735a1.508,1.508,0,0,0,0,3.015h22.512a1.508,1.508,0,1,0,0-3.015" transform="translate(-166.635 -180.523)" fill="#46c752"/>
  <path id="Path_129851" data-name="Path 129851" d="M37.906,188.126H18.61a1.508,1.508,0,0,0,0,3.015h19.3a1.508,1.508,0,0,0,0-3.015" transform="translate(-13.886 -152.75)" fill="#46c752"/>
  <path id="Path_129852" data-name="Path 129852" d="M170.455,77.4a1.507,1.507,0,0,0-2.132,0L154.917,90.808l-6.974-6.974a1.507,1.507,0,0,0-2.132,2.132l8.04,8.04a1.507,1.507,0,0,0,2.132,0l14.472-14.472a1.508,1.508,0,0,0,0-2.132" transform="translate(-118.034 -62.489)" fill="#46c752"/>
</svg>
