<svg xmlns="http://www.w3.org/2000/svg" width="99.061" height="80.874" viewBox="0 0 99.061 80.874">
  <g id="EMIcon5" transform="translate(0 -0.368)">
    <path id="Path_129841" data-name="Path 129841" d="M36.056,306.1a1.451,1.451,0,0,0,0,2.9c4.5,0,8.166-4.131,8.166-9.209s-3.663-9.209-8.166-9.209-8.166,4.131-8.166,9.209a1.451,1.451,0,0,0,2.9,0c0-3.477,2.361-6.306,5.264-6.306s5.264,2.829,5.264,6.306-2.361,6.306-5.264,6.306" transform="translate(-22.494 -233.993)" fill="#46c752"/>
    <path id="Path_129842" data-name="Path 129842" d="M115.582,179.619a1.451,1.451,0,0,0,0-2.9c-2.925,0-5.3-2.85-5.3-6.354s2.379-6.354,5.3-6.354,5.3,2.85,5.3,6.354a1.451,1.451,0,0,0,2.9,0c0-5.1-3.681-9.256-8.207-9.256s-8.207,4.152-8.207,9.256S111.057,179.619,115.582,179.619Z" transform="translate(-86.6 -129.568)" fill="#46c752"/>
    <path id="Path_129843" data-name="Path 129843" d="M85.5,49.987h-5a16.779,16.779,0,0,0,2.9-9.562,17.121,17.121,0,0,0-1.283-6.569,1.451,1.451,0,1,0-2.683,1.107A14.235,14.235,0,0,1,80.5,40.425a14.627,14.627,0,0,1-.519,3.886H56.891a1.451,1.451,0,0,0,0,2.9h21.92a12.225,12.225,0,0,1-2.073,2.774H44.617a12.235,12.235,0,0,0-6.658,2.005,16.4,16.4,0,0,0,4.584-11.566,17.655,17.655,0,0,0-.119-2.047H56.891a1.451,1.451,0,1,0,0-2.9H41.829a15.52,15.52,0,0,0-4.942-7.592H69.844a9.574,9.574,0,0,1,6.449,2.56,1.451,1.451,0,1,0,1.937-2.161,12.431,12.431,0,0,0-8.386-3.3H42.419l-1.493-4.11c3.118-2.761,5.217-6.605,3.8-10.506C41.935,2.687,34.4.431,32.914.056a1.825,1.825,0,0,0-1.935.7c-.9,1.239-5.229,7.809-2.438,15.49,1.415,3.894,5.484,5.5,9.657,5.615l1.133,3.119H28.981c-7.478,0-13.562,6.928-13.562,15.443a16.758,16.758,0,0,0,2.918,9.56h-4.8a12.121,12.121,0,0,0-5.963,1.578A1.451,1.451,0,1,0,9,54.1a9.249,9.249,0,0,1,4.565-1.208c5.878,0,10.66,5.626,10.66,12.541s-4.782,12.541-10.66,12.541S2.9,72.345,2.9,65.43a13.906,13.906,0,0,1,2.16-7.563,1.451,1.451,0,1,0-2.439-1.572A16.8,16.8,0,0,0,0,65.43c0,8.5,6.062,15.418,13.522,15.443H74.27a1.451,1.451,0,1,0,0-2.9H52.542A16.177,16.177,0,0,0,58.2,65.43,17.5,17.5,0,0,0,57.861,62H84.185a1.451,1.451,0,1,0,0-2.9H57a15.3,15.3,0,0,0-4.462-6.206H85.5c5.877,0,10.659,5.626,10.659,12.541a14.452,14.452,0,0,1-.687,4.43H77.654a1.451,1.451,0,1,0,0,2.9H94.142A10.263,10.263,0,0,1,85.5,77.971h-5a1.451,1.451,0,0,0,0,2.9h5c7.477,0,13.561-6.928,13.561-15.443S92.978,49.987,85.5,49.987ZM31.269,15.258c-1.994-5.488.481-10.338,1.647-12.182C34.993,3.74,40,5.87,42,11.359c.949,2.612-.776,5.082-2.155,6.532L36.093,7.571a1.451,1.451,0,1,0-2.728.991l3.749,10.319C35.126,18.654,32.217,17.868,31.269,15.258Zm-2.3,12.628h.062c5.855.032,10.61,5.645,10.61,12.541,0,6.915-4.782,12.541-10.66,12.541s-10.66-5.626-10.66-12.541S23.1,27.893,28.97,27.886M27.124,65.43a16.472,16.472,0,0,0-4.249-11.216,12.17,12.17,0,0,0,6.066,1.656h5.053a16.757,16.757,0,0,0-2.918,9.56,16.177,16.177,0,0,0,5.657,12.541H21.467A16.178,16.178,0,0,0,27.124,65.43Zm28.173,0c0,6.915-4.782,12.541-10.66,12.541s-10.66-5.626-10.66-12.541,4.782-12.541,10.66-12.541S55.3,58.515,55.3,65.43" transform="translate(0 0.368)" fill="#005d45"/>
    <path id="Path_129844" data-name="Path 129844" d="M195.248,288.547a1.451,1.451,0,0,0,0,2.9c3.09,0,5.6,3.006,5.6,6.7s-2.514,6.7-5.6,6.7-5.6-3.006-5.6-6.7a1.451,1.451,0,0,0-2.9,0c0,5.295,3.816,9.6,8.506,9.6s8.507-4.308,8.507-9.6-3.816-9.6-8.507-9.6" transform="translate(-150.611 -232.351)" fill="#46c752"/>
    <path id="Path_129845" data-name="Path 129845" d="M333.169,183.369a1.451,1.451,0,1,0,0,2.9h5.492a1.451,1.451,0,0,0,0-2.9Z" transform="translate(-267.538 -147.523)" fill="#46c752"/>
    <path id="Path_129846" data-name="Path 129846" d="M319.846,361.077a1.451,1.451,0,1,0,0,2.9h4.533a1.451,1.451,0,1,0,0-2.9Z" transform="translate(-256.792 -290.848)" fill="#46c752"/>
  </g>
</svg>
