<svg xmlns="http://www.w3.org/2000/svg" width="88.535" height="80.366" viewBox="0 0 88.535 80.366">
  <g id="EMIcon2" transform="translate(-108.857 -107.646)">
    <rect id="Rectangle_14202" data-name="Rectangle 14202" width="54" height="6" transform="translate(133.086 145.327)" fill="#daf4dc"/>
    <circle id="Ellipse_172" data-name="Ellipse 172" cx="5.5" cy="5.5" r="5.5" transform="translate(138.086 175.327)" fill="#daf4dc"/>
    <path id="_" data-name="^" d="M32,0,64,20H0Z" transform="translate(128.086 110.327)" fill="#daf4dc"/>
    <path id="Icon" d="M88.535,47.22V22.954L51.235,0l-37.3,22.954V33.459H0v2.6H22.242v25.1H0v2.6H22.242v8.481H0v2.6H27.906a6.836,6.836,0,0,0,13.424,0H88.535V49.989h-2.6V72.231H80.227v-36H24.838V33.459H16.53V30.517H34.618v-2.6H16.53V24.978H85.939V27.92H37.387v2.6H85.939v16.7ZM34.618,77.77a4.241,4.241,0,1,1,4.241-4.241,4.245,4.245,0,0,1-4.241,4.241m0-11.078a6.847,6.847,0,0,0-6.712,5.539H24.838V60.98H44.4V72.231H41.33a6.848,6.848,0,0,0-6.712-5.539m-9.78-8.308V49.9H34.08l8.481,8.481ZM63.61,56.913V52.672h2.943v8.481H58.072V52.672h2.943v4.241Zm8.481,15.318H63.61V63.75h2.943v4.241h2.6V63.75h2.942Zm-14.02-4.241V63.75h2.943v8.481H52.533V63.75h2.943v4.241Zm16.617,4.241V61.154H69.149V50.076H55.475V61.154H49.936V72.231H46.994V59.145L35.156,47.307H24.838V44.364H77.631V72.231Zm2.943-30.464H24.838V38.825H77.631Zm5.02-19.386H19.818L51.235,3.049Z" transform="translate(108.857 107.646)" fill="#005d45"/>
  </g>
</svg>
