<svg xmlns="http://www.w3.org/2000/svg" xmlns:xlink="http://www.w3.org/1999/xlink" width="82.767" height="82.767" viewBox="0 0 82.767 82.767">
  <defs>
    <clipPath id="clip-path">
      <rect id="Mask" width="82.767" height="82.767" fill="none"/>
    </clipPath>
  </defs>
  <g id="EMIcon1" clip-path="url(#clip-path)">
    <path id="Path_48553" data-name="Path 48553" d="M32.1,7.247a24.842,24.842,0,0,0-13.08,45.965,1.268,1.268,0,0,0,.256.16,24.793,24.793,0,0,0,25.65,0,1.286,1.286,0,0,0,.258-.16A24.842,24.842,0,0,0,32.1,7.247M21.559,51.669a10.512,10.512,0,0,1,9.058-5.188h2.959a10.511,10.511,0,0,1,9.056,5.188A22.2,22.2,0,0,1,21.559,51.669ZM40.948,31.258a1.309,1.309,0,0,0-1.844-.167l-5.7,4.75v-.477a8.512,8.512,0,0,1,8.5-8.5h4.577v1.962a8.509,8.509,0,0,1-8.5,8.5H35.708L40.779,33.1A1.312,1.312,0,0,0,40.948,31.258Zm-10.16,4.584-5.7-4.75a1.308,1.308,0,0,0-1.675,2.01l5.072,4.225H26.212a8.509,8.509,0,0,1-8.5-8.5V26.864h4.577a8.512,8.512,0,0,1,8.5,8.5ZM44.857,50.291A13.135,13.135,0,0,0,33.4,43.866V39.942H37.98A11.129,11.129,0,0,0,49.1,28.826v-3.27a1.309,1.309,0,0,0-1.31-1.307H41.9A11.126,11.126,0,0,0,32.1,30.14a11.126,11.126,0,0,0-9.809-5.891H16.4A1.307,1.307,0,0,0,15.1,25.557v3.27A11.127,11.127,0,0,0,26.212,39.942h4.577v3.924a13.136,13.136,0,0,0-11.454,6.425,22.232,22.232,0,1,1,25.522,0Z" transform="translate(9.288 9.289)" fill="#46c752"/>
    <path id="Path_48554" data-name="Path 48554" d="M80.581,44.7,77.43,43.145a1.318,1.318,0,0,1-.742-1.193c.007-.365.007-.757,0-1.139a1.323,1.323,0,0,1,.739-1.193l3.153-1.558a3.929,3.929,0,0,0,2.051-4.531l-1.6-5.971a3.933,3.933,0,0,0-4.043-2.9l-3.52.226a1.32,1.32,0,0,1-1.228-.673c-.18-.324-.367-.648-.559-.965a1.32,1.32,0,0,1,.03-1.4l1.958-2.936a3.934,3.934,0,0,0-.491-4.951L68.808,9.585A3.93,3.93,0,0,0,63.859,9.1l-2.936,1.958a1.32,1.32,0,0,1-1.4.027c-.317-.189-.641-.376-.965-.557a1.321,1.321,0,0,1-.675-1.23l.228-3.52a3.938,3.938,0,0,0-2.9-4.043L49.237.132A3.939,3.939,0,0,0,44.7,2.184L43.145,5.337a1.32,1.32,0,0,1-1.191.742c-.379-.007-.762-.007-1.141,0a1.32,1.32,0,0,1-1.191-.742L38.062,2.184A3.934,3.934,0,0,0,33.53.132l-5.971,1.6a3.935,3.935,0,0,0-2.9,4.043l.228,3.52a1.321,1.321,0,0,1-.675,1.23c-.324.178-.648.367-.965.557a1.324,1.324,0,0,1-1.4-.027l-2.936-1.96a3.937,3.937,0,0,0-4.951.491L9.585,13.957A3.936,3.936,0,0,0,9.1,18.908l1.958,2.936a1.32,1.32,0,0,1,.027,1.4c-.189.315-.376.641-.557.965a1.317,1.317,0,0,1-1.23.673l-3.52-.226a3.935,3.935,0,0,0-4.043,2.9l-1.6,5.969a3.937,3.937,0,0,0,2.051,4.534L5.337,39.62a1.325,1.325,0,0,1,.742,1.193c-.007.386-.007.753,0,1.139a1.325,1.325,0,0,1-.742,1.193L2.184,44.7A3.937,3.937,0,0,0,.132,49.237l1.6,5.969a3.933,3.933,0,0,0,4.043,2.9l3.52-.226a1.323,1.323,0,0,1,1.23.673c.18.324.367.65.557.967a1.311,1.311,0,0,1-.027,1.4L9.1,63.857a3.934,3.934,0,0,0,.491,4.951l4.369,4.372a3.937,3.937,0,0,0,4.951.491l2.936-1.958a1.32,1.32,0,0,1,1.4-.03c.317.189.641.379.965.557a1.323,1.323,0,0,1,.675,1.23l-.228,3.52a3.938,3.938,0,0,0,2.9,4.043l5.971,1.6a3.934,3.934,0,0,0,4.531-2.051l1.561-3.153a1.308,1.308,0,0,1,1.191-.739c.379.007.762.007,1.141,0a1.317,1.317,0,0,1,1.191.739L44.7,80.581a3.939,3.939,0,0,0,4.534,2.051l5.971-1.6a3.938,3.938,0,0,0,2.9-4.043l-.228-3.52a1.317,1.317,0,0,1,.675-1.228c.324-.183.648-.37.965-.559a1.32,1.32,0,0,1,1.4.03l2.936,1.958a3.934,3.934,0,0,0,4.949-.491l4.372-4.372a3.934,3.934,0,0,0,.491-4.951l-1.958-2.936a1.316,1.316,0,0,1-.03-1.4c.192-.317.379-.643.559-.965a1.317,1.317,0,0,1,1.228-.675l3.523.226a3.927,3.927,0,0,0,4.041-2.9l1.6-5.969A3.932,3.932,0,0,0,80.581,44.7Zm-.475,3.856-1.6,5.971a1.313,1.313,0,0,1-1.348.965l-3.52-.226a3.938,3.938,0,0,0-3.68,2.012c-.169.3-.342.6-.518.892a3.945,3.945,0,0,0,.1,4.2l1.958,2.936a1.315,1.315,0,0,1-.162,1.652L66.96,71.329a1.31,1.31,0,0,1-1.65.164l-2.936-1.958a3.949,3.949,0,0,0-4.2-.1c-.292.176-.593.349-.892.516a3.952,3.952,0,0,0-2.012,3.682l.228,3.52a1.315,1.315,0,0,1-.967,1.348l-5.971,1.6a1.313,1.313,0,0,1-1.51-.684L45.49,76.269a3.95,3.95,0,0,0-3.518-2.2c-.123,0-.5.011-1.113,0a3.949,3.949,0,0,0-3.582,2.195l-1.558,3.153a1.316,1.316,0,0,1-1.513.684l-5.969-1.6a1.315,1.315,0,0,1-.967-1.348l.228-3.52a3.952,3.952,0,0,0-2.012-3.682c-.3-.167-.6-.34-.894-.516a3.945,3.945,0,0,0-4.2.1l-2.936,1.958a1.309,1.309,0,0,1-1.65-.164L11.435,66.96a1.312,1.312,0,0,1-.162-1.65l1.958-2.936a3.954,3.954,0,0,0,.1-4.2c-.176-.292-.351-.593-.518-.892a3.946,3.946,0,0,0-3.682-2.012l-3.52.228A1.312,1.312,0,0,1,4.26,54.53l-1.6-5.971a1.309,1.309,0,0,1,.682-1.51L6.5,45.49a3.948,3.948,0,0,0,2.2-3.582c-.007-.349-.007-.7,0-1.05a3.948,3.948,0,0,0-2.2-3.582L3.343,35.718a1.312,1.312,0,0,1-.682-1.513l1.6-5.969a1.312,1.312,0,0,1,1.346-.967l3.523.228a3.953,3.953,0,0,0,3.68-2.012c.167-.3.342-.6.518-.894a3.95,3.95,0,0,0-.1-4.2l-1.958-2.936a1.312,1.312,0,0,1,.162-1.65l4.372-4.372a1.309,1.309,0,0,1,1.65-.164l2.936,1.958a3.94,3.94,0,0,0,4.2.1c.294-.176.6-.349.894-.516A3.95,3.95,0,0,0,27.5,9.126l-.228-3.52a1.308,1.308,0,0,1,.967-1.346l5.969-1.6a1.316,1.316,0,0,1,1.513.684L37.277,6.5a3.942,3.942,0,0,0,3.582,2.2c.349-.007.7-.007,1.05,0A3.953,3.953,0,0,0,45.49,6.5l1.558-3.153a1.313,1.313,0,0,1,1.51-.684l5.971,1.6A1.31,1.31,0,0,1,55.5,5.606l-.228,3.52a3.95,3.95,0,0,0,2.012,3.682c.3.167.6.34.892.516a3.944,3.944,0,0,0,4.2-.1l2.936-1.958a1.31,1.31,0,0,1,1.65.164L71.329,15.8a1.313,1.313,0,0,1,.164,1.652l-1.958,2.936a3.945,3.945,0,0,0-.1,4.2c.176.294.349.6.518.894a3.947,3.947,0,0,0,3.68,2.01l3.52-.226a1.312,1.312,0,0,1,1.348.967l1.6,5.969a1.312,1.312,0,0,1-.684,1.51l-3.153,1.561a3.942,3.942,0,0,0-2.195,3.582c0,.356,0,.694,0,1.05a3.939,3.939,0,0,0,2.195,3.58l3.153,1.561A1.311,1.311,0,0,1,80.107,48.559Z" transform="translate(0 0.001)" fill="#005d45"/>
  </g>
</svg>
