<svg xmlns="http://www.w3.org/2000/svg" width="88.83" height="74.464" viewBox="0 0 88.83 74.464">
  <g id="EMIcon4" transform="translate(0 0)">
    <path id="Path_129853" data-name="Path 129853" d="M345.8,344.378a4.054,4.054,0,1,0,4.054,4.054,4.058,4.058,0,0,0-4.054-4.054m0,5.992a1.939,1.939,0,1,1,1.939-1.939,1.941,1.941,0,0,1-1.939,1.939" transform="translate(-281.515 -283.681)" fill="#46c752"/>
    <path id="Path_129854" data-name="Path 129854" d="M120.685,344.378a4.054,4.054,0,1,0,4.054,4.054,4.058,4.058,0,0,0-4.054-4.054m0,5.992a1.939,1.939,0,1,1,1.939-1.939,1.941,1.941,0,0,1-1.939,1.939" transform="translate(-96.075 -283.681)" fill="#46c752"/>
    <path id="Path_129855" data-name="Path 129855" d="M366.856,266.432h-1.521a1.058,1.058,0,0,0,0,2.115h1.521a1.058,1.058,0,0,0,0-2.115" transform="translate(-300.08 -219.473)" fill="#46c752"/>
    <path id="Path_129856" data-name="Path 129856" d="M73.032,66.649h2.115a3.188,3.188,0,0,0,.761,5.434,3.112,3.112,0,0,0,3.459-.681l-.005-.005c.08-.07.153-.143.22-.21l4.538-4.538h1.971V68.62c-.028.029-4.761,4.759-4.784,4.786a3.129,3.129,0,0,0,.037,4.449,3.185,3.185,0,0,0,4.747-.261v2.115a3.173,3.173,0,0,0,6.345,0V77.593l.269.269a3.148,3.148,0,0,0,2.256.929,3.184,3.184,0,0,0,2.231-5.416L92.436,68.62V66.649h1.971c.029.028,4.759,4.761,4.786,4.784a3.129,3.129,0,0,0,4.449-.037,3.185,3.185,0,0,0-.261-4.747H105.5a3.173,3.173,0,1,0,0-6.345h-2.115a3.185,3.185,0,0,0,.261-4.748,3.129,3.129,0,0,0-4.449-.037c-.026.022-4.758,4.758-4.786,4.784H92.436V58.332c.027-.029,4.763-4.76,4.784-4.786a3.129,3.129,0,0,0-.037-4.449,3.184,3.184,0,0,0-4.747.261V47.245a3.173,3.173,0,0,0-6.345,0v2.115a3.184,3.184,0,0,0-4.747-.261,3.129,3.129,0,0,0-.037,4.448c.021.026,4.758,4.758,4.784,4.786V60.3H84.12c-.029-.028-4.759-4.761-4.786-4.784a3.129,3.129,0,0,0-4.449.037,3.185,3.185,0,0,0,.261,4.747H73.032a3.173,3.173,0,0,0,0,6.345Zm0-4.23H77.7a1.058,1.058,0,0,0,.748-1.805L76.39,58.556a1.058,1.058,0,1,1,1.5-1.5l5.049,5.049a1.057,1.057,0,0,0,.748.31h3.466a1.058,1.058,0,0,0,1.058-1.058V57.894a1.058,1.058,0,0,0-.31-.748L82.847,52.1a1.058,1.058,0,1,1,1.5-1.5L86.4,52.66a1.058,1.058,0,0,0,1.805-.748V47.245a1.058,1.058,0,0,1,2.115,0v4.668a1.058,1.058,0,0,0,1.805.748L94.184,50.6a1.058,1.058,0,1,1,1.5,1.5l-5.049,5.049a1.057,1.057,0,0,0-.31.748v3.467a1.058,1.058,0,0,0,1.057,1.058h3.467a1.058,1.058,0,0,0,.748-.31l5.049-5.049a1.058,1.058,0,1,1,1.5,1.5l-2.058,2.058a1.062,1.062,0,0,0,.748,1.805h4.668a1.058,1.058,0,1,1,0,2.115h-4.668a1.062,1.062,0,0,0-.748,1.805l2.058,2.058a1.058,1.058,0,1,1-1.5,1.5l-5.049-5.049a1.057,1.057,0,0,0-.748-.31H91.378a1.058,1.058,0,0,0-1.058,1.058v3.466a1.058,1.058,0,0,0,.31.748L95.7,74.873a1.031,1.031,0,0,1,.219,1.147,1.047,1.047,0,0,1-1.717.346l-2.074-2.074a1.058,1.058,0,0,0-1.805.748v4.668a1.058,1.058,0,0,1-2.115,0V75.04a1.057,1.057,0,0,0-1.805-.748L84.342,76.35a1.058,1.058,0,1,1-1.5-1.5L87.9,69.805a1.057,1.057,0,0,0,.31-.748V65.591a1.058,1.058,0,0,0-1.058-1.058H83.681a1.058,1.058,0,0,0-.748.31c-.005,0-4.956,4.957-5.067,5.067a1.031,1.031,0,0,1-1.147.219,1.047,1.047,0,0,1-.346-1.717l2.074-2.074a1.062,1.062,0,0,0-.748-1.805H73.031a1.058,1.058,0,0,1,0-2.115Z" transform="translate(-57.56 -36.304)" fill="#46c752"/>
    <path id="Path_129857" data-name="Path 129857" d="M267.955,266.432a1.058,1.058,0,0,0,0,2.115h2.489a1.057,1.057,0,1,0,0-2.115Z" transform="translate(-219.863 -219.473)" fill="#46c752"/>
    <path id="Path_129858" data-name="Path 129858" d="M71.408,267.49a1.058,1.058,0,0,0-1.058-1.057H67.861a1.058,1.058,0,0,0,0,2.115H70.35a1.058,1.058,0,0,0,1.058-1.057" transform="translate(-55.035 -219.473)" fill="#46c752"/>
    <path id="Path_129859" data-name="Path 129859" d="M88.827,61.688c0-3.415,0-10.276,0-13.675V45.429a3.176,3.176,0,0,0-3.173-3.173H82.737L78.811,20.2a5.281,5.281,0,0,0-5.206-4.361H70.164a11.624,11.624,0,0,0,4.957-9.518V3.173A3.176,3.176,0,0,0,71.949,0c-8,0-56.629,0-65.733,0A3.176,3.176,0,0,0,3.043,3.173V60.79A4.1,4.1,0,0,0,4.1,68.851H15.776a9.759,9.759,0,0,0,17.669,0H55.453a9.759,9.759,0,0,0,17.669,0H85.656a3.176,3.176,0,0,0,3.173-3.173c-.007-.018.006-3.975,0-3.991Zm-2.115-8.229H81.92a2.193,2.193,0,0,1,0-4.385h4.792Zm0-8.03v1.53H81.92a4.308,4.308,0,0,0,0,8.615h4.792v5.077H73.121a9.791,9.791,0,0,0-12.757-4.819V44.372H85.655a1.059,1.059,0,0,1,1.057,1.058ZM73.605,17.956a3.169,3.169,0,0,1,3.124,2.617l3.86,21.684H60.364v-24.3Zm-.6-14.783v3.15a9.528,9.528,0,0,1-9.518,9.518H60.364V2.116H71.949a1.059,1.059,0,0,1,1.057,1.058m-67.848,0A1.059,1.059,0,0,1,6.215,2.116H58.249V57.107a9.913,9.913,0,0,0-2.8,3.543h-22a9.756,9.756,0,0,0-17.677,0H5.158Zm9.913,63.563H4.1a1.985,1.985,0,0,1,0-3.97H15.071a9.846,9.846,0,0,0,0,3.97m9.539,5.642A7.625,7.625,0,1,1,30.741,60.22,7.639,7.639,0,0,1,24.61,72.378Zm30.138-5.642h-20.6a9.9,9.9,0,0,0,0-3.97h20.6a9.9,9.9,0,0,0,0,3.97m9.539,5.642a7.627,7.627,0,1,1,7.627-7.627,7.642,7.642,0,0,1-7.627,7.627m9.539-5.642a9.9,9.9,0,0,0,0-3.97H86.712v2.913a1.059,1.059,0,0,1-1.057,1.058Z" transform="translate(0 0)" fill="#005d45"/>
  </g>
</svg>
