<svg xmlns="http://www.w3.org/2000/svg" width="21.451" height="31.13" viewBox="0 0 21.451 31.13">
  <g id="EstbIcon" transform="translate(0.5 0.5)">
    <path id="Path_48291" data-name="Path 48291" d="M18.428,42.387h5.09V37.3h-5.09v5.09Zm.925-4.164h3.239v3.239H19.353Z" transform="translate(-14.359 -26.087)" fill="#63be6a"/>
    <rect id="Rectangle_3297" data-name="Rectangle 3297" width="5.552" height="0.925" transform="translate(10.793 14.41)" fill="#63be6a"/>
    <rect id="Rectangle_3298" data-name="Rectangle 3298" width="5.552" height="0.925" transform="translate(10.793 12.174)" fill="#63be6a"/>
    <path id="Path_48292" data-name="Path 48292" d="M18.428,67.969h5.09V62.88h-5.09v5.09Zm.925-4.164h3.239v3.239H19.353Z" transform="translate(-14.359 -43.779)" fill="#63be6a"/>
    <rect id="Rectangle_3299" data-name="Rectangle 3299" width="5.552" height="0.925" transform="translate(10.793 22.301)" fill="#63be6a"/>
    <rect id="Rectangle_3300" data-name="Rectangle 3300" width="5.552" height="0.925" transform="translate(10.793 20.065)" fill="#63be6a"/>
    <path id="Path_48293" data-name="Path 48293" d="M24.468,9.7H22.359a3,3,0,1,0-5.993,0H14.353L13.891,11.8H9.139V36.833H29.59V11.805h-4.66ZM19.363,8.644A1.056,1.056,0,1,1,18.306,9.7,1.056,1.056,0,0,1,19.363,8.644Zm9.178,4.211V35.785H10.188V12.854H13.66l-.319,1.454H25.479l-.319-1.454Z" transform="translate(-9.139 -6.703)" fill="#63be6a" stroke="#63be6a" stroke-width="1"/>
  </g>
</svg>
