<svg xmlns="http://www.w3.org/2000/svg" xmlns:xlink="http://www.w3.org/1999/xlink" width="92.767" height="82.767" viewBox="0 0 92.767 82.767">
  <defs>
    <clipPath id="clip-path">
      <rect id="EMIcon2" width="92.767" height="82.767" transform="translate(1574 1118.991)" fill="none" stroke="#707070" stroke-width="1"/>
    </clipPath>
    <clipPath id="clip-path-2">
      <path id="Path_129871" data-name="Path 129871" d="M57.672,18.912,53.083,6.367H44.651L35.494,13,37.875,24.76l-.994,7.813L36.056,38l-2.078,9.427H57.672Z" transform="translate(-33.978 -6.367)" fill="#fff"/>
    </clipPath>
  </defs>
  <g id="Icon" transform="translate(-1574 -1118.991)" clip-path="url(#clip-path)">
    <g id="Group_125738" data-name="Group 125738" transform="translate(1580.696 1135.522)">
      <g id="Group_125737" data-name="Group 125737" transform="translate(-4.828 -0.726)">
        <path id="Path_129867" data-name="Path 129867" d="M65.471,46.335c.544.846,1.786,5.663,1.557,6.655L64.367,64.566a2.467,2.467,0,0,1-.829,1.353,2.281,2.281,0,0,1-1.451.526H59.216m1.665-29.016c-1.211,2.285-2.507,5.22-2.2,6.837.556,2.9,2.013,7.644,2.013,7.644L54.718,65.528a2.339,2.339,0,0,1-.835,1.005,2.192,2.192,0,0,1-1.222.375h-.014a2.36,2.36,0,0,1-1.958-3.544,23.967,23.967,0,0,0,1.689-20.007,10.382,10.382,0,0,1-.047-6.735l2.929-8.711Z" transform="translate(2.961 -12.373)" fill="none" stroke="#4789c8" stroke-linecap="round" stroke-linejoin="round" stroke-miterlimit="10" stroke-width="2.5"/>
        <path id="Path_129868" data-name="Path 129868" d="M44.154,35.1l.821,8.351L43.641,55.183l8.208,6.827a2.466,2.466,0,0,1,.922,1.5l0,.02a2.361,2.361,0,0,1-3.694,2.456l-9.1-7.63L38.1,44.426l-3.395-3.2c-12.86,4.258-19.717-11.67-19.717-11.67L8.83,28.333l-2.248.613c-.551.108-1.239-.9-1.466-1.432C4.075,25.039,6.961,23.6,6.961,23.6l9.8-1.776a1.526,1.526,0,0,1,1.647.851c1.594,3.244,6.949,12.53,14.262,8.1,0,0,1.7-5.939,9.437-8.52a8.24,8.24,0,0,0,4.47-3.486c.776-1.269,1.778-2.556,2.749-2.8a37.643,37.643,0,0,1,6.348-.732,2.754,2.754,0,0,1,1.571.42,2.937,2.937,0,0,1,1.1,1.248c.922,1.979,13.382,11.166,13.382,11.166a7.049,7.049,0,0,1,1.753,2.513,7.34,7.34,0,0,1,.549,3.058,33.149,33.149,0,0,0,2.3,11.037" transform="translate(-4.89 -15.24)" fill="none" stroke="#4789c8" stroke-linecap="round" stroke-linejoin="round" stroke-miterlimit="10" stroke-width="2.5"/>
        <path id="Path_129869" data-name="Path 129869" d="M45.385,40.373c3.3-.346,7.8-1.068,9.428-2.362M30.2,41.907,28.863,62.3a1.279,1.279,0,0,0,.019.534,1.249,1.249,0,0,0,.234.475,1.182,1.182,0,0,0,.4.326,1.13,1.13,0,0,0,.5.115h1.8a2.294,2.294,0,0,0,1.658-.718,2.511,2.511,0,0,0,.687-1.734V58.154Z" transform="translate(-0.756 -10.087)" fill="none" stroke="#4789c8" stroke-linecap="round" stroke-linejoin="round" stroke-miterlimit="10" stroke-width="2.5"/>
      </g>
      <g id="Mask_Group_1" data-name="Mask Group 1" transform="translate(62.377 12.744)" clip-path="url(#clip-path-2)">
        <path id="Path_129870" data-name="Path 129870" d="M110.95,65.9c-1.128-1.159-2.584-4.984-3.922-7.05.681-.625,1.339-.863,1-1.235-.313-.35-1-.172-1.658.374a1.915,1.915,0,0,0-.492-.393c-.053-.828-.177-1.319-.615-1.3-.379.015-.691.512-.829,1.222a13.33,13.33,0,0,0-5.979,3.094c-1.031,1.275-4.469,1.53-5.729,1.657,0,0-7.334,1.657-13.178,1.02q-1.754-.19-3.516-.257c.123,1.848.189,3.817.191,5.928,0,2.131-.063,4.425-.19,6.825a4.637,4.637,0,0,1-4.391,4.611,4.091,4.091,0,0,1-2.639-.972V92.056a1.12,1.12,0,0,0,1.784.076,1.426,1.426,0,0,0,.339-.974L70.959,85,74.5,91.866a1.148,1.148,0,0,0,1.519.563,1.39,1.39,0,0,0,.675-1.616l-2.116-7.8.607-.9c2.8.6,5.837.7,7.8-.6,2.192-1.446,7.088-.97,10.571-.3l.952,9.621A1.259,1.259,0,0,0,95.7,92.029h.012A1.254,1.254,0,0,0,96.9,90.862l1.131-9.706c1.81-3.083,3.539-13.093,6.184-13.408,3.208-.382,4.483,1.084,5.471,1.211A1.788,1.788,0,0,0,110.95,65.9Zm-4.755-3a.82.82,0,1,1,.745-.828A.79.79,0,0,1,106.2,62.9Z" transform="translate(-90.027 -53.815)" fill="none" stroke="#4789c8" stroke-width="2.5"/>
      </g>
    </g>
  </g>
</svg>
