<svg id="IconDateWhit" xmlns="http://www.w3.org/2000/svg" width="34.567" height="34.567" viewBox="0 0 34.567 34.567">
  <g id="Group_70" data-name="Group 70">
    <g id="Group_69" data-name="Group 69">
      <ellipse id="Ellipse_10" data-name="Ellipse 10" cx="1.567" cy="1.044" rx="1.567" ry="1.044" transform="translate(7.411 12.989)" fill="#fff"/>
      <path id="Path_415" data-name="Path 415" d="M5.4,2.7H7.156V1.35a1.35,1.35,0,0,1,2.7,0V2.7H16V1.35a1.35,1.35,0,1,1,2.7,0V2.7h6.076V1.35a1.35,1.35,0,1,1,2.7,0V2.7h1.688a5.407,5.407,0,0,1,5.4,5.4V29.166a5.407,5.407,0,0,1-5.4,5.4H18.836a1.35,1.35,0,0,1,0-2.7h10.33a2.7,2.7,0,0,0,2.7-2.7V8.1a2.7,2.7,0,0,0-2.7-2.7H27.478v1.35a1.35,1.35,0,1,1-2.7,0V5.4H18.7v1.35a1.35,1.35,0,1,1-2.7,0V5.4H9.857v1.35a1.35,1.35,0,1,1-2.7,0V5.4H5.4A2.7,2.7,0,0,0,2.7,8.1v7.7a1.35,1.35,0,0,1-2.7,0V8.1A5.407,5.407,0,0,1,5.4,2.7Z" transform="translate(0 0)" fill="#fff"/>
      <path id="Path_416" data-name="Path 416" d="M278.169,270A8.169,8.169,0,1,1,270,278.169,8.178,8.178,0,0,1,278.169,270Zm0,13.638a5.469,5.469,0,1,0-5.469-5.469A5.475,5.475,0,0,0,278.169,283.638Z" transform="translate(-270 -251.771)" fill="#fff"/>
      <path id="Path_417" data-name="Path 417" d="M372.35,332.768h.608V331.35a1.35,1.35,0,1,1,2.7,0v2.768a1.35,1.35,0,0,1-1.35,1.35H372.35a1.35,1.35,0,1,1,0-2.7Z" transform="translate(-366.139 -307.72)" fill="#fff"/>
      <ellipse id="Ellipse_11" data-name="Ellipse 11" cx="1.567" cy="1.044" rx="1.567" ry="1.044" transform="translate(12.633 12.989)" fill="#fff"/>
      <circle id="Ellipse_12" data-name="Ellipse 12" cx="1.044" cy="1.044" r="1.044" transform="translate(18.9 19.256)" fill="#fff"/>
      <circle id="Ellipse_13" data-name="Ellipse 13" cx="1.044" cy="1.044" r="1.044" transform="translate(25.167 12.989)" fill="#fff"/>
      <circle id="Ellipse_14" data-name="Ellipse 14" cx="1.044" cy="1.044" r="1.044" transform="translate(25.167 19.256)" fill="#fff"/>
      <ellipse id="Ellipse_15" data-name="Ellipse 15" cx="1.044" cy="1.567" rx="1.044" ry="1.567" transform="translate(25.167 24.478)" fill="#fff"/>
      <ellipse id="Ellipse_16" data-name="Ellipse 16" cx="1.044" cy="1.567" rx="1.044" ry="1.567" transform="translate(18.9 24.478)" fill="#fff"/>
      <circle id="Ellipse_17" data-name="Ellipse 17" cx="1.044" cy="1.044" r="1.044" transform="translate(18.9 12.989)" fill="#fff"/>
    </g>
  </g>
</svg>
