<svg xmlns="http://www.w3.org/2000/svg" width="31.113" height="42.432" viewBox="0 0 31.113 42.432">
  <g id="namaIcon" transform="translate(-109.37 -1.963)">
    <path id="Path_129901" data-name="Path 129901" d="M193.208,32.088V20.41l-5.541,4.065a7.562,7.562,0,0,0-3.086,6.093V50.9l5.541-4.065a7.551,7.551,0,0,0,3.086-6.093v-5l-3.627-.029Z" transform="translate(-75.21 -11.045)" fill="#0a8944"/>
    <path id="Path_129902" data-name="Path 129902" d="M249.666,35.135a7.558,7.558,0,0,0-3.086,6.093v1.088l3.511,3.507H246.58V57.7l5.541-4.065a7.551,7.551,0,0,0,3.086-6.093V31.07Z" transform="translate(-114.725 -17.839)" fill="#4789c8"/>
    <path id="Path_129903" data-name="Path 129903" d="M223.928,22.463V0L218.39,4.065a7.554,7.554,0,0,0-3.09,6.089v8.922l3.627,3.627H215.3V42.432l5.541-4.065a7.551,7.551,0,0,0,3.086-6.093V26.01h-3.547Z" transform="translate(-94.789 1.963)" fill="#63be6c"/>
  </g>
</svg>
