<svg xmlns="http://www.w3.org/2000/svg" width="103.872" height="103.942" viewBox="0 0 103.872 103.942">
  <path id="msg-Icon" d="M79.9,54.856A28.207,28.207,0,0,1,54.879,80a.97.97,0,0,0-.981.958V101.98a1.962,1.962,0,1,1-3.924,0V94.362a1.062,1.062,0,0,0-.981-.981A41.364,41.364,0,0,1,12.061,61.608a1.962,1.962,0,1,1,3.764-1.11c.013.043.024.086.033.129a37.3,37.3,0,0,0,33.008,28.7c.254.127.5,0,.739-.242a.738.738,0,0,0,.369-.739V80.986A.97.97,0,0,0,49.016,80h-.023a28.553,28.553,0,0,1-16.92-8.079,28.254,28.254,0,0,1-8.079-17.058A1.027,1.027,0,0,0,23.014,54H2.02a2.02,2.02,0,0,1,0-4.039H9.995a1.039,1.039,0,0,0,.981-.866A41.815,41.815,0,0,1,41.63,11.288a2.031,2.031,0,0,1,.981,3.936A37.44,37.44,0,0,0,15,48.843.946.946,0,0,0,15.985,50h6.983a1.027,1.027,0,0,0,.981-.866A28.207,28.207,0,0,1,48.993,23.937a.97.97,0,0,0,.981-.958c0-.008,0-.016,0-.023V1.962a1.962,1.962,0,0,1,3.924,0v23.81A2,2,0,0,1,52,27.861q-.094,0-.189,0c-21.34,0-32,26.13-16.92,41.226s40.833,4.294,41.2-17.116a1.939,1.939,0,0,1,1.916-1.962h23.845a2.02,2.02,0,0,1,0,4.039H94a.946.946,0,0,0-.981.866A41.711,41.711,0,0,1,61.5,92.366c-2.574.612-3.462-3.313-.866-3.924A37.51,37.51,0,0,0,88.973,55.1a.946.946,0,0,0-.981-1.154H80.882a1.027,1.027,0,0,0-.981.866ZM95.793,22.217l-14.184,14.1a1.939,1.939,0,0,1-1.339.623H70.818a1.651,1.651,0,0,0-.727.242l-16.8,16.931A2,2,0,0,1,50.459,51.3l16.8-16.943a.669.669,0,0,0,.369-.612V24.272a2.02,2.02,0,0,1,.612-1.466l14.1-14.092a2,2,0,0,1,3.462,1.35V17.8a1.05,1.05,0,0,0,.981.981H94.4a2.02,2.02,0,0,1,1.466,3.462ZM79.636,32.6l8.218-8.217a.993.993,0,0,0-.612-1.72H83.779a2.043,2.043,0,0,1-2.089-1.962V17.347a1.016,1.016,0,0,0-1.72-.727l-8.079,8.217a1.084,1.084,0,0,0-.369.739v6.382a.97.97,0,0,0,.958.981H79c.254,0,.5,0,.612-.254ZM68.6,51.994A16.677,16.677,0,1,1,51.9,35.34h.034a1.974,1.974,0,0,1,0,3.936,12.7,12.7,0,0,0,0,25.391c7.363,0,12.269-5.517,12.626-12.7a2.031,2.031,0,0,1,4.059-.168,2.052,2.052,0,0,1-.008.283Z" fill="#fff"/>
</svg>
