<svg id="vision-Icon" xmlns="http://www.w3.org/2000/svg" width="86.245" height="86.245" viewBox="0 0 86.245 86.245">
  <path id="Path_130009" data-name="Path 130009" d="M.288,306.112,4.1,311.2l-3.985,9.3a1.437,1.437,0,0,0,2.013,1.826l28.748-15.812a1.436,1.436,0,0,0,0-2.518L2.129,288.178A1.437,1.437,0,0,0,.117,290L4.1,299.3.288,304.386A1.438,1.438,0,0,0,.288,306.112Zm6.5,6.121,13.494-3.175L4.4,317.789Zm13.494-10.792L6.785,298.266,4.4,292.71Zm-13.944-.326,17.573,4.135L6.335,309.384l-3.1-4.135Z" transform="translate(0 -236.253)" fill="#46c752"/>
  <path id="Path_130010" data-name="Path 130010" d="M115.746,0A23.009,23.009,0,0,0,92.82,21.561H89.03L85.139,17.67,83.106,19.7l1.859,1.859H79.092a15.093,15.093,0,1,0,0,30.186H95.027l3.891,3.891,2.033-2.033-1.859-1.859h27.434a7.906,7.906,0,1,1,0,15.812h-13.06l-3.891-3.891L107.543,65.7l1.858,1.859H87v2.875h22.4l-1.858,1.858,2.033,2.033,3.891-3.891h13.06a10.781,10.781,0,0,0,0-21.561H99.092l1.859-1.859-2.033-2.033-3.891,3.891H79.092a12.218,12.218,0,1,1,0-24.436h5.873l-1.858,1.859,2.033,2.033,3.891-3.891h3.79A22.985,22.985,0,1,0,115.746,0Zm0,43.122A20.135,20.135,0,0,1,95.695,24.436h4.312a15.812,15.812,0,1,0,0-2.875H95.695a20.113,20.113,0,1,1,20.051,21.561m-3.3-14.8,4.312-4.312a1.437,1.437,0,0,0,0-2.033L112.45,17.67,110.417,19.7l1.858,1.859h-9.382a12.937,12.937,0,1,1,0,2.875h9.382l-1.858,1.859Z" transform="translate(-52.5)" fill="#005d45"/>
  <path id="Path_130011" data-name="Path 130011" d="M360.623,88.624A8.634,8.634,0,0,0,352,80v2.875a5.75,5.75,0,1,1,0,11.5v2.875a8.634,8.634,0,0,0,8.624-8.624" transform="translate(-288.753 -65.626)" fill="#46c752"/>
</svg>
